<?xml version="1.0" encoding="UTF-8"?><svg id="Layer_4" xmlns="http://www.w3.org/2000/svg" width="338" height="560" xmlns:xlink="http://www.w3.org/1999/xlink" viewBox="0 0 338 560"><defs><style>.cls-1,.cls-2,.cls-3,.cls-4,.cls-5,.cls-6,.cls-7,.cls-8,.cls-9,.cls-10{fill:none;}.cls-2,.cls-11,.cls-12{stroke-width:3px;}.cls-2,.cls-3,.cls-10{stroke-linecap:round;}.cls-2,.cls-8{stroke:#603813;}.cls-2,.cls-10{stroke-linejoin:round;}.cls-13{fill:url(#linear-gradient);}.cls-11,.cls-14,.cls-15,.cls-16,.cls-17,.cls-3,.cls-4,.cls-5,.cls-6,.cls-7,.cls-8,.cls-9,.cls-12{stroke-miterlimit:10;}.cls-11,.cls-5,.cls-12{stroke:#000;}.cls-18{fill:#01061f;}.cls-19,.cls-14{fill:#fff;}.cls-20{fill:#ffe1c9;}.cls-21{fill:#f1f1f1;}.cls-22,.cls-16,.cls-23{fill:#ffcfc9;}.cls-24{fill:red;}.cls-25{fill:#e5e5e5;}.cls-26{fill:#63d3cc;}.cls-27{fill:#ccc;}.cls-28{fill:#dea853;}.cls-29{fill:#c77624;}.cls-30{fill:#c7b299;}.cls-31{fill:#a2ebe9;}.cls-32{fill:#52b4af;}.cls-33{fill:#754c24;}.cls-34{fill:#4b5320;}.cls-14,.cls-3,.cls-4,.cls-7{stroke:#000043;}.cls-14,.cls-7{stroke-width:4px;}.cls-15{fill:#c69c6d;}.cls-15,.cls-3,.cls-4,.cls-5,.cls-6{stroke-width:2px;}.cls-15,.cls-6{stroke:#754c24;}.cls-16{stroke:#ffcfc9;}.cls-17{fill:#3b9f55;stroke:#009245;}.cls-35{opacity:.25;}.cls-9{stroke-width:.3px;}.cls-9,.cls-10{stroke:#a67c52;}.cls-10{stroke-width:.5px;}.cls-12{fill:#009;}.cls-23{opacity:.45;}.cls-36{fill:#f3cdaf;opacity:.63;}</style><linearGradient id="linear-gradient" x1="237.24" y1="507.25" x2="281.67" y2="507.25" gradientTransform="translate(-95.63 13.7) rotate(-9.48)" gradientUnits="userSpaceOnUse"><stop offset="0" stop-color="#8cc63f"/><stop offset="1" stop-color="#ed1c24"/></linearGradient></defs><rect class="cls-34" x="81" y="318" width="133" height="181"/><path class="cls-20" d="m235.14,479l-13.19-90h19.61c8.97,0,16.31,8.3,16.31,18.44l12.73,71.56h-35.47Z"/><g><path class="cls-17" d="m237.24,450.93c-.9-.87-.23-3.81,1.27-5.53.81-.93,1.24-.79,3.67-2.22,3.02-1.78,3.85-2.87,4.43-2.47.71.49.26,2.68-.25,4-.17.42-.86,2.08-3.16,3.87-.34.27-4.65,3.61-5.95,2.35Z"/><path class="cls-2" d="m233.28,449.35c3.58.75,6.43,3.42,7.3,6.86,1.16,4.56-1.77,8.09-2.05,8.42"/><path class="cls-13" d="m239.85,456.48c1.98-.84,1.77-2.53,4.41-4.47,0,0,1.68-1.24,3.78-1.81,4.47-1.21,8.65,1.21,9.54,1.72,8.37,4.85,8.22,17.47,8.19,18.81-.17,6.65-3,12.81-6.45,15.34-.91.67-4.24,3.11-6.4,2.37-.26-.09-.92-.36-1.69-.18-1.08.25-1.69,1.24-1.87,1.5-1.46,2.07-6.99,1.9-9.55,1.52-7.69-1.15-12.41-7.78-13.64-9.5-1.73-2.43-6.93-9.74-4.29-17.02.37-1.01,1.95-4.96,5.88-7.04,2.62-1.38,5.47-1.51,6.31-1.53,3.29-.07,4.01,1.04,5.77.29Z"/></g><g><path class="cls-30" d="m291.84,494.39l-1.32-.4c-3.68-1.11-5.97-4.3-5.12-7.11l10.89-35.94c.85-2.81,4.52-4.19,8.2-3.07l1.32.4c3.68,1.11,5.97,4.3,5.12,7.11l-13.53,34.48c-.85,2.81-1.88,5.64-5.56,4.53Z"/><path class="cls-29" d="m297.77,458.07c14.99,4.63,18.85,8.14,23.28,5.53,4.23-2.5,5.37-8.47,5.22-12.17-.33-7.72-6.6-12.47-9.34-14.54-7.88-5.96-22.03-10.12-31.69-2.98-5.17,3.82-9.79,11.43-7.56,16.55,1.72,3.95,6.14,3.31,20.1,7.62Z"/></g><g><path class="cls-28" d="m275.79,474.95c-.94-2.68-.62-5.04-2.41-6.58-4.29-3.71-10.71-.32-13.06-3.69-1.19-1.7-1.02-4.21-.12-5.76.95-1.62,2.45-1.79,7.95-3.5,5.81-1.81,7.11-3.88,8.34-5.25,1.8-2,3.64-2.94,5.86-3.64.17-.05,2.19-.67,3.26.34,1.61,1.53-.01,5.78-1.31,9.18-1.96,5.14-3.48,6.3-3.01,8.85.32,1.72,1.14,1.91,3.08,4.7,1.91,2.77,4.72,6.83,4.43,11.41-.16,2.49-1.33,6.65-4.4,7.59-1.97.6-4.41-.23-5.89-1.77-2.58-2.67-.57-5.71-2.72-11.86Z"/><path class="cls-10" d="m260.96,462.81c3.58-3.44,6.86-4.95,9.24-5.69,2.39-.74,4.77-.82,7.42-2.67,1.84-1.28,3.19-3.09,3.54-3.48,1.06-1.17,1.83-2.27,2.36-3.1"/><g><path class="cls-9" d="m269.28,465.15c.89.3,1.96.74,3.12,1.42.99.57,1.81,1.18,2.47,1.74"/><path class="cls-9" d="m269.8,464.01c1.56.47,2.47,1.18,3.02,1.76.35.37.77.92,1.58,1.58.49.4.94.69,1.24.87"/><path class="cls-9" d="m271.33,463.26c.83.38,2.25,1.17,3.49,2.71.59.73.99,1.44,1.27,2.03"/><path class="cls-9" d="m272.52,462.39c.37.29.9.73,1.47,1.34.59.64.97,1.19,1.48,1.93.3.44.71,1.04,1.15,1.79"/><path class="cls-9" d="m274.18,462.46c.38.34.91.89,1.37,1.69.25.43.32.67.58,1.19.25.5.65,1.22,1.27,2.03"/><path class="cls-9" d="m275.25,461.34l.81,1.66,2.21,4.51"/><path class="cls-9" d="m276.57,461.28c.34.73.51,1.34.6,1.77.17.81.11,1.12.38,1.88.2.56.46.98.58,1.19.28.46.56.82.8,1.08"/><path class="cls-9" d="m277.76,460.41c.31,1.05.38,1.89.39,2.46.02.76-.08,1.12.04,1.75.17.85.6,1.5.93,1.9"/><path class="cls-9" d="m278.85,459.87c-.18.53-.57,1.9-.13,3.6.29,1.12.82,1.93,1.16,2.38"/><path class="cls-9" d="m280.26,458.89c-.09.25-.2.6-.3,1.03-.14.6-.37,1.56-.26,2.78.11,1.18.49,2.15.84,2.83"/></g></g><ellipse class="cls-12" cx="155.95" cy="256.65" rx="18.65" ry="19"/><ellipse class="cls-11" cx="155.95" cy="256.65" rx="18.65" ry="19"/><rect class="cls-33" x="11" y="50" width="265.29" height="110" rx="40" ry="40"/><rect class="cls-20" x="36.27" y="64" width="222" height="222" rx="95" ry="95"/><path class="cls-20" d="m40.52,139h2.38c8.33,0,15.1,6.77,15.1,15.1v42.38c0,8.57-6.96,15.52-15.52,15.52h0c-20.68,0-37.48-16.79-37.48-37.48h0c0-19.61,15.92-35.52,35.52-35.52Z"/><path class="cls-23" d="m29.81,162h0c2.87,0,5.19,2.33,5.19,5.19v27.62c0,2.87-2.33,5.19-5.19,5.19h0c-8.17,0-14.81-6.64-14.81-14.81v-8.38c0-8.17,6.64-14.81,14.81-14.81Z"/><path class="cls-36" d="m33.5,178h1.5v15h-1.5c-4.14,0-7.5-3.36-7.5-7.5h0c0-4.14,3.36-7.5,7.5-7.5Z"/><path class="cls-20" d="m259.48,142h0c8.57,0,15.52,6.96,15.52,15.52v42.38c0,8.33-6.77,15.1-15.1,15.1h-2.38c-19.61,0-35.52-15.92-35.52-35.52h0c0-20.68,16.79-37.48,37.48-37.48Z" transform="translate(497 357) rotate(-180)"/><path class="cls-23" d="m259.81,165h0c2.87,0,5.19,2.33,5.19,5.19v27.62c0,2.87-2.33,5.19-5.19,5.19h0c-8.17,0-14.81-6.64-14.81-14.81v-8.38c0-8.17,6.64-14.81,14.81-14.81Z" transform="translate(510 368) rotate(180)"/><path class="cls-36" d="m252.5,181h1.5v15h-1.5c-4.14,0-7.5-3.36-7.5-7.5h0c0-4.14,3.36-7.5,7.5-7.5Z" transform="translate(499 377) rotate(-180)"/><rect class="cls-20" x="129.75" y="286" width="36" height="42"/><path class="cls-16" d="m146.31,212.5h-8.94c-5.65,0-9.18-7.26-6.35-13.07l4.47-9.2,4.47-9.2c2.82-5.81,9.89-5.81,12.71,0l4.47,9.2,4.47,9.2c2.82,5.81-.71,13.07-6.35,13.07h-8.94Z"/><path class="cls-4" d="m137,160h20"/><g><g><circle class="cls-14" cx="97.55" cy="159.01" r="14.98"/><circle class="cls-25" cx="97.84" cy="159.04" r="27.51"/><ellipse class="cls-21" cx="97.84" cy="159.24" rx="27.51" ry="23.58"/><circle class="cls-25" cx="97.64" cy="159.04" r="17.29"/><circle class="cls-4" cx="96.7" cy="158.97" r="39.97"/><circle class="cls-32" cx="97.75" cy="159.01" r="14.98"/><circle class="cls-26" cx="98.2" cy="159.18" r="11.5"/><circle class="cls-31" cx="98.2" cy="159.18" r="8.88"/><circle class="cls-7" cx="97.75" cy="159.01" r="14.98"/><path class="cls-26" d="m100.35,153.04l1.52-2.42c.15-.23.51-.07.42.2l-.88,2.71c-.08.23.21.41.39.24l2.07-1.96c.2-.19.51.06.36.3l-1.53,2.41c-.13.21.1.45.31.33l2.49-1.39c.24-.13.48.19.28.38l-2.08,1.95c-.18.17-.01.46.22.4l2.76-.72c.27-.07.42.3.17.43l-2.5,1.38c-.21.12-.13.44.11.44h2.85c.28-.02.33.38.06.45l-2.76.71c-.24.06-.24.4,0,.46l2.77.7c.27.07.22.46-.06.46h-2.85c-.24,0-.33.33-.11.45l2.51,1.36c.24.13.1.5-.17.44l-2.76-.71c-.24-.06-.4.23-.22.4l2.09,1.94c.2.19-.03.51-.27.38l-2.5-1.37c-.21-.12-.44.13-.31.33l1.54,2.4c.15.23-.16.49-.36.3l-2.08-1.95c-.18-.17-.46.01-.38.25l.89,2.71c.09.26-.27.43-.42.2l-1.53-2.41c-.13-.21-.45-.1-.43.14l.19,2.84c.02.28-.37.35-.46.09l-.88-2.71c-.08-.23-.41-.21-.46.03l-.52,2.8c-.05.27-.45.25-.47-.03l-.18-2.85c-.02-.24-.35-.31-.45-.08l-1.2,2.59c-.12.25-.5.13-.45-.14l.53-2.8c.05-.24-.26-.38-.41-.19l-1.81,2.21c-.18.21-.51,0-.4-.25l1.21-2.58c.1-.22-.16-.43-.35-.29l-2.3,1.69c-.22.16-.5-.13-.32-.34l1.82-2.2c.16-.19-.04-.46-.27-.37l-2.65,1.06c-.26.1-.45-.25-.23-.41l2.31-1.68c.2-.14.07-.46-.17-.42l-2.83.37c-.28.04-.38-.35-.12-.45l2.65-1.05c.23-.09.18-.42-.06-.45l-2.83-.34c-.28-.03-.28-.43,0-.47l2.83-.36c.24-.03.28-.36.06-.45l-2.66-1.04c-.26-.1-.16-.49.11-.45l2.83.35c.24.03.36-.28.17-.42l-2.32-1.66c-.23-.16-.03-.51.22-.41l2.65,1.05c.23.09.42-.18.27-.37l-1.83-2.19c-.18-.21.09-.5.32-.34l2.31,1.67c.2.14.46-.07.35-.29l-1.23-2.57c-.12-.25.22-.47.39-.25l1.82,2.2c.16.19.46.04.41-.2l-.55-2.8c-.05-.27.33-.4.44-.15l1.22,2.58c.1.22.43.16.45-.09l.16-2.85c.02-.28.41-.3.47-.03l.54,2.8c.05.24.38.26.46.03l.87-2.72c.08-.26.48-.19.46.09l-.18,2.85c-.02.24.3.35.43.14Z"/><path class="cls-32" d="m101.24,152.81l1.78-2.27c.2-.25.59-.01.46.28l-1.17,2.64c-.11.25.19.49.41.32l2.29-1.76c.25-.19.57.13.37.38l-1.79,2.27c-.17.22.06.52.32.41l2.66-1.13c.29-.12.52.27.27.46l-2.3,1.75c-.22.17-.07.52.2.48l2.86-.44c.31-.05.44.39.14.51l-2.66,1.12c-.26.11-.2.49.08.52l2.88.29c.32.03.33.49.01.53l-2.86.42c-.28.04-.31.42-.05.52l2.71.99c.3.11.19.55-.12.52l-2.87-.3c-.28-.03-.41.33-.18.49l2.38,1.64c.26.18.05.58-.25.47l-2.71-1.01c-.26-.1-.48.22-.3.43l1.9,2.18c.21.24-.1.58-.36.4l-2.37-1.65c-.23-.16-.52.09-.39.34l1.3,2.58c.14.28-.24.54-.44.3l-1.89-2.19c-.18-.21-.53-.04-.47.23l.61,2.82c.07.31-.36.46-.5.18l-1.29-2.59c-.12-.25-.5-.17-.51.11l-.11,2.89c-.01.32-.47.36-.53.05l-.6-2.83c-.06-.27-.44-.29-.52-.02l-.82,2.77c-.09.3-.54.23-.53-.09l.12-2.89c.01-.28-.36-.39-.5-.15l-1.49,2.48c-.16.27-.58.09-.49-.22l.83-2.77c.08-.27-.25-.47-.45-.27l-2.06,2.03c-.23.22-.58-.06-.42-.33l1.5-2.47c.14-.24-.12-.51-.37-.37l-2.5,1.46c-.27.16-.55-.2-.32-.42l2.06-2.02c.2-.2,0-.53-.26-.45l-2.78.79c-.3.09-.48-.33-.21-.49l2.5-1.45c.24-.14.14-.51-.14-.5l-2.89.07c-.32,0-.38-.44-.08-.53l2.78-.78c.27-.08.26-.46-.01-.52l-2.82-.65c-.31-.07-.26-.52.05-.53l2.89-.06c.28,0,.37-.38.12-.51l-2.57-1.33c-.28-.15-.12-.57.18-.5l2.81.66c.27.06.45-.28.24-.46l-2.16-1.92c-.24-.21.02-.59.3-.44l2.56,1.34c.25.13.5-.16.35-.39l-1.61-2.4c-.18-.26.17-.56.4-.35l2.15,1.93c.21.19.53-.03.43-.29l-.96-2.72c-.11-.3.3-.5.48-.24l1.6,2.41c.15.23.52.1.49-.17l-.25-2.88c-.03-.32.42-.41.52-.11l.95,2.73c.09.26.47.23.52-.04l.47-2.85c.05-.31.51-.29.53.02l.24,2.88c.02.28.4.34.51.09l1.16-2.65c.13-.29.56-.16.51.15l-.48,2.85c-.05.27.3.43.48.21Z"/><circle class="cls-18" cx="98.14" cy="159.01" r="5.55"/><path class="cls-19" d="m80.06,169.04c-6.76-4.32-7-15.31-.45-19.95,0,0,.72.67.72.67-.43.77-.84,1.52-1.18,2.29-1.7,3.71-2.13,7.97-.77,11.84.53,1.55,1.33,3.01,2.36,4.43l-.67.72h0Z"/><path class="cls-19" d="m115.55,169.07c6.76-4.32,7-15.31.45-19.95,0,0-.72.67-.72.67.43.77.84,1.52,1.18,2.29,1.7,3.71,2.13,7.97.77,11.84-.53,1.55-1.33,3.01-2.36,4.43l.67.72h0Z"/><circle class="cls-19" cx="89.2" cy="146.67" r="2.75"/><circle class="cls-19" cx="102.75" cy="162.97" r="1.57"/></g><line class="cls-3" x1="56.72" y1="153" x2="36.72" y2="136"/><g><circle class="cls-14" cx="195.89" cy="159.01" r="14.98"/><circle class="cls-25" cx="195.61" cy="159.04" r="27.51"/><ellipse class="cls-21" cx="195.61" cy="159.24" rx="27.51" ry="23.58"/><circle class="cls-25" cx="195.8" cy="159.04" r="17.29"/><circle class="cls-4" cx="196.75" cy="158.97" r="39.97"/><circle class="cls-32" cx="195.7" cy="159.01" r="14.98"/><circle class="cls-26" cx="195.25" cy="159.18" r="11.5"/><circle class="cls-31" cx="195.25" cy="159.18" r="8.88"/><circle class="cls-7" cx="195.7" cy="159.01" r="14.98"/><path class="cls-26" d="m193.1,153.04l-1.52-2.42c-.15-.23-.51-.07-.42.2l.88,2.71c.08.23-.21.41-.39.24l-2.07-1.96c-.2-.19-.51.06-.36.3l1.53,2.41c.13.21-.1.45-.31.33l-2.49-1.39c-.24-.13-.48.19-.28.38l2.08,1.95c.18.17.01.46-.22.4l-2.76-.72c-.27-.07-.42.3-.17.43l2.5,1.38c.21.12.13.44-.11.44h-2.85c-.28-.02-.33.38-.06.45l2.76.71c.24.06.24.4,0,.46l-2.77.7c-.27.07-.22.46.06.46h2.85c.24,0,.33.33.11.45l-2.51,1.36c-.24.13-.1.5.17.44l2.76-.71c.24-.06.4.23.22.4l-2.09,1.94c-.2.19.03.51.27.38l2.5-1.37c.21-.12.44.13.31.33l-1.54,2.4c-.15.23.16.49.36.3l2.08-1.95c.18-.17.46.01.38.25l-.89,2.71c-.09.26.27.43.42.2l1.53-2.41c.13-.21.45-.1.43.14l-.19,2.84c-.02.28.37.35.46.09l.88-2.71c.08-.23.41-.21.46.03l.52,2.8c.05.27.45.25.47-.03l.18-2.85c.02-.24.35-.31.45-.08l1.2,2.59c.12.25.5.13.45-.14l-.53-2.8c-.05-.24.26-.38.41-.19l1.81,2.21c.18.21.51,0,.4-.25l-1.21-2.58c-.1-.22.16-.43.35-.29l2.3,1.69c.22.16.5-.13.32-.34l-1.82-2.2c-.16-.19.04-.46.27-.37l2.65,1.06c.26.1.45-.25.23-.41l-2.31-1.68c-.2-.14-.07-.46.17-.42l2.83.37c.28.04.38-.35.12-.45l-2.65-1.05c-.23-.09-.18-.42.06-.45l2.83-.34c.28-.03.28-.43,0-.47l-2.83-.36c-.24-.03-.28-.36-.06-.45l2.66-1.04c.26-.1.16-.49-.11-.45l-2.83.35c-.24.03-.36-.28-.17-.42l2.32-1.66c.23-.16.03-.51-.22-.41l-2.65,1.05c-.23.09-.42-.18-.27-.37l1.83-2.19c.18-.21-.09-.5-.32-.34l-2.31,1.67c-.2.14-.46-.07-.35-.29l1.23-2.57c.12-.25-.22-.47-.39-.25l-1.82,2.2c-.16.19-.46.04-.41-.2l.55-2.8c.05-.27-.33-.4-.44-.15l-1.22,2.58c-.1.22-.43.16-.45-.09l-.16-2.85c-.02-.28-.41-.3-.47-.03l-.54,2.8c-.05.24-.38.26-.46.03l-.87-2.72c-.08-.26-.48-.19-.46.09l.18,2.85c.02.24-.3.35-.43.14Z"/><path class="cls-32" d="m192.21,152.81l-1.78-2.27c-.2-.25-.59-.01-.46.28l1.17,2.64c.11.25-.19.49-.41.32l-2.29-1.76c-.25-.19-.57.13-.37.38l1.79,2.27c.17.22-.06.52-.32.41l-2.66-1.13c-.29-.12-.52.27-.27.46l2.3,1.75c.22.17.07.52-.2.48l-2.86-.44c-.31-.05-.44.39-.14.51l2.66,1.12c.26.11.2.49-.08.52l-2.88.29c-.32.03-.33.49-.01.53l2.86.42c.28.04.31.42.05.52l-2.71.99c-.3.11-.19.55.12.52l2.87-.3c.28-.03.41.33.18.49l-2.38,1.64c-.26.18-.05.58.25.47l2.71-1.01c.26-.1.48.22.3.43l-1.9,2.18c-.21.24.1.58.36.4l2.37-1.65c.23-.16.52.09.39.34l-1.3,2.58c-.14.28.24.54.44.3l1.89-2.19c.18-.21.53-.04.47.23l-.61,2.82c-.07.31.36.46.5.18l1.29-2.59c.12-.25.5-.17.51.11l.11,2.89c.01.32.47.36.53.05l.6-2.83c.06-.27.44-.29.52-.02l.82,2.77c.09.3.54.23.53-.09l-.12-2.89c-.01-.28.36-.39.5-.15l1.49,2.48c.16.27.58.09.49-.22l-.83-2.77c-.08-.27.25-.47.45-.27l2.06,2.03c.23.22.58-.06.42-.33l-1.5-2.47c-.14-.24.12-.51.37-.37l2.5,1.46c.27.16.55-.2.32-.42l-2.06-2.02c-.2-.2,0-.53.26-.45l2.78.79c.3.09.48-.33.21-.49l-2.5-1.45c-.24-.14-.14-.51.14-.5l2.89.07c.32,0,.38-.44.08-.53l-2.78-.78c-.27-.08-.26-.46.01-.52l2.82-.65c.31-.07.26-.52-.05-.53l-2.89-.06c-.28,0-.37-.38-.12-.51l2.57-1.33c.28-.15.12-.57-.18-.5l-2.81.66c-.27.06-.45-.28-.24-.46l2.16-1.92c.24-.21-.02-.59-.3-.44l-2.56,1.34c-.25.13-.5-.16-.35-.39l1.61-2.4c.18-.26-.17-.56-.4-.35l-2.15,1.93c-.21.19-.53-.03-.43-.29l.96-2.72c.11-.3-.3-.5-.48-.24l-1.6,2.41c-.15.23-.52.1-.49-.17l.25-2.88c.03-.32-.42-.41-.52-.11l-.95,2.73c-.09.26-.47.23-.52-.04l-.47-2.85c-.05-.31-.51-.29-.53.02l-.24,2.88c-.02.28-.4.34-.51.09l-1.16-2.65c-.13-.29-.56-.16-.51.15l.48,2.85c.05.27-.3.43-.48.21Z"/><circle class="cls-18" cx="195.3" cy="159.01" r="5.55"/><path class="cls-19" d="m213.39,169.04c6.76-4.32,7-15.31.45-19.95,0,0-.72.67-.72.67.43.77.84,1.52,1.18,2.29,1.7,3.71,2.13,7.97.77,11.84-.53,1.55-1.33,3.01-2.36,4.43l.67.72h0Z"/><path class="cls-19" d="m177.9,169.07c-6.76-4.32-7-15.31-.45-19.95,0,0,.72.67.72.67-.43.77-.84,1.52-1.18,2.29-1.7,3.71-2.13,7.97-.77,11.84.53,1.55,1.33,3.01,2.36,4.43l-.67.72h0Z"/><circle class="cls-19" cx="204.25" cy="146.67" r="2.75"/><circle class="cls-19" cx="190.69" cy="162.97" r="1.57"/></g><path class="cls-4" d="m156.72,160h-20"/><line class="cls-3" x1="236.72" y1="153" x2="256.72" y2="136"/></g><rect class="cls-33" x="31" y="5" width="180" height="80" rx="40" ry="40"/><circle class="cls-33" cx="207.5" cy="64.5" r="46.5"/><path class="cls-27" d="m186,233v5.16c0,.58-.02,1.15-.05,1.72-.13,2.13-.51,4.18-1.09,6.18-3.67,12.35-15.73,21.81-30.64,23.62-1.71.22-3.45.32-5.22.32h-4c-19.76,0-35.91-13.34-36.94-30.12-.04-.57-.06-1.14-.06-1.72v-5.16h78Z"/><path class="cls-22" d="m184.86,246.06c-3.67,12.35-15.73,21.81-30.64,23.62-.47-1.68-.72-3.45-.72-5.27,0-11.4,9.63-20.65,21.5-20.65,3.56,0,6.91.83,9.86,2.31Z"/><path class="cls-19" d="m186,233v3.75c0,.42-.02.84-.05,1.25h-77.89c-.04-.41-.06-.83-.06-1.25v-3.75h78Z"/><path class="cls-20" d="m60.53,471l12.47-82h-18.55c-8.48,0-15.42,7.56-15.42,16.8l-12.04,65.2h33.53Z"/><path class="cls-20" d="m192.16,318c-7.8,7.68-24.75,13-44.42,13s-36.62-5.32-44.42-13h88.84Z"/><path class="cls-34" d="m74,406l14.5-88h-21.57c-9.86,0-17.93,8.12-17.93,18.03l-14,69.97h39Z"/><path class="cls-34" d="m218.76,406l-14.5-88h21.57c9.86,0,17.93,8.12,17.93,18.03l14,69.97h-39Z"/><path class="cls-6" d="m316.78,477.8c-.86-36.97-23.49-66.58-51.28-66.58s-50.41,29.62-51.28,66.58"/><path class="cls-15" d="m325.08,493.52l-21.16,47.77c-3.22,7.28-16.01,12.46-30.77,12.46h-11.45c-15.35,0-28.73-5.29-32.44-12.82l-23.33-47.41"/><rect class="cls-5" x="200" y="479.38" width="131.01" height="14.23" rx="6.73" ry="6.73"/><g class="cls-35"><line class="cls-8" x1="216.99" y1="493.45" x2="247.13" y2="552.01"/><line class="cls-8" x1="231.27" y1="493.05" x2="261.95" y2="554"/><line class="cls-8" x1="246.41" y1="493.34" x2="276.77" y2="554"/><line class="cls-8" x1="261.82" y1="493.34" x2="290.99" y2="551.01"/><line class="cls-8" x1="275.21" y1="493.53" x2="301.07" y2="545.04"/><line class="cls-8" x1="288.13" y1="493.63" x2="307.59" y2="532.6"/><line class="cls-8" x1="302" y1="493.43" x2="314.11" y2="518.16"/><line class="cls-8" x1="313.38" y1="493.08" x2="319.45" y2="505.72"/><line class="cls-8" x1="318.61" y1="493.67" x2="235.27" y2="547.03"/><line class="cls-8" x1="320" y1="505.97" x2="247.13" y2="552.01"/><line class="cls-8" x1="314.17" y1="518.59" x2="261.95" y2="554"/><line class="cls-8" x1="307.59" y1="533.59" x2="276.17" y2="554"/><line class="cls-8" x1="302.2" y1="493.91" x2="229.34" y2="541.06"/><line class="cls-8" x1="276.22" y1="493.54" x2="220.45" y2="523.64"/><line class="cls-8" x1="288.42" y1="493.35" x2="224.6" y2="531.6"/><line class="cls-8" x1="261.95" y1="493.27" x2="217.49" y2="517.66"/><line class="cls-8" x1="246.34" y1="493.62" x2="214.52" y2="511.19"/><line class="cls-8" x1="231.64" y1="493.89" x2="211.56" y2="504.72"/><line class="cls-8" x1="217.48" y1="493.78" x2="208" y2="498.25"/></g><g><rect class="cls-24" x="283.97" y="479.41" width="5.85" height="2.42"/><path class="cls-19" d="m202.69,486.5v5.34h-.27c-1.38-1.22-2.29-2.96-2.4-4.9-.01-.14-.02-.29-.02-.43h2.69Z"/><path class="cls-24" d="m202.69,491.83v.23c-.09-.07-.18-.15-.27-.23h.27Z"/><rect class="cls-24" x="202.69" y="486.5" width="5.85" height="5.34"/><path class="cls-19" d="m208.54,491.83v1.78h-1.43c-1.67,0-3.2-.58-4.42-1.55v-.23h5.85Z"/><rect class="cls-19" x="208.54" y="486.5" width="5.85" height="5.34"/><rect class="cls-24" x="208.54" y="491.83" width="5.85" height="1.78"/><rect class="cls-24" x="214.39" y="486.5" width="5.85" height="5.34"/><rect class="cls-19" x="214.39" y="491.83" width="5.85" height="1.78"/><rect class="cls-19" x="220.25" y="486.5" width="5.85" height="5.34"/><rect class="cls-24" x="220.24" y="491.83" width="5.85" height="1.78"/><rect class="cls-24" x="226.1" y="486.5" width="5.85" height="5.34"/><rect class="cls-19" x="226.09" y="491.83" width="5.86" height="1.78"/><rect class="cls-19" x="231.95" y="486.5" width="5.85" height="5.34"/><rect class="cls-24" x="231.95" y="491.83" width="5.85" height="1.78"/><rect class="cls-24" x="237.8" y="486.5" width="5.85" height="5.34"/><rect class="cls-19" x="243.65" y="486.5" width="5.85" height="5.34"/><rect class="cls-24" x="243.65" y="491.83" width="5.85" height="1.78"/><rect class="cls-24" x="249.51" y="486.5" width="5.85" height="5.34"/><rect class="cls-19" x="249.5" y="491.83" width="5.85" height="1.78"/><rect class="cls-19" x="255.36" y="486.5" width="5.85" height="5.34"/><rect class="cls-24" x="255.36" y="491.83" width="5.86" height="1.78"/><rect class="cls-24" x="261.21" y="486.5" width="5.85" height="5.34"/><rect class="cls-19" x="261.21" y="491.83" width="5.85" height="1.78"/><rect class="cls-19" x="267.06" y="486.5" width="5.85" height="5.34"/><rect class="cls-24" x="267.06" y="491.83" width="5.85" height="1.78"/><path class="cls-19" d="m202.22,481.35v.25h-.25s.08-.08.12-.12c.04-.04.08-.08.13-.12Z"/><path class="cls-24" d="m202.22,481.59v5.34h-2.2c-.01-.14-.02-.29-.02-.43,0-1.9.75-3.62,1.97-4.9h.25Z"/><path class="cls-24" d="m208.07,479.38v2.21h-5.85v-.25c1.28-1.22,3.01-1.96,4.9-1.96h.95Z"/><rect class="cls-19" x="202.22" y="481.59" width="5.85" height="5.34"/><rect class="cls-19" x="208.07" y="479.38" width="5.85" height="2.21"/><rect class="cls-24" x="208.07" y="481.59" width="5.85" height="5.34"/><rect class="cls-24" x="213.92" y="479.38" width="5.86" height="2.21"/><rect class="cls-19" x="213.92" y="481.59" width="5.85" height="5.34"/><rect class="cls-19" x="219.78" y="479.38" width="5.85" height="2.21"/><rect class="cls-24" x="219.77" y="481.59" width="5.85" height="5.34"/><rect class="cls-24" x="225.63" y="479.38" width="5.85" height="2.21"/><rect class="cls-19" x="225.62" y="481.59" width="5.85" height="5.34"/><rect class="cls-19" x="231.48" y="479.38" width="5.85" height="2.21"/><rect class="cls-24" x="231.48" y="481.59" width="5.85" height="5.34"/><rect class="cls-24" x="237.33" y="479.38" width="5.85" height="2.21"/><rect class="cls-19" x="237.33" y="481.59" width="5.85" height="5.34"/><rect class="cls-19" x="243.18" y="479.38" width="5.85" height="2.21"/><rect class="cls-24" x="243.18" y="481.59" width="5.85" height="5.34"/><rect class="cls-24" x="249.03" y="479.38" width="5.86" height="2.21"/><rect class="cls-19" x="249.03" y="481.59" width="5.85" height="5.34"/><rect class="cls-19" x="254.89" y="479.38" width="5.85" height="2.21"/><rect class="cls-24" x="254.88" y="481.59" width="5.85" height="5.34"/><rect class="cls-24" x="260.74" y="479.38" width="5.85" height="2.21"/><rect class="cls-19" x="260.74" y="481.59" width="5.85" height="5.34"/><rect class="cls-19" x="266.59" y="479.38" width="5.85" height="2.21"/><rect class="cls-24" x="266.59" y="481.59" width="5.85" height="5.34"/><rect class="cls-24" x="284.41" y="486.71" width="5.85" height="5.34"/><rect class="cls-19" x="284.41" y="492.05" width="5.86" height="1.56"/><rect class="cls-19" x="290.26" y="486.71" width="5.85" height="5.34"/><rect class="cls-24" x="290.26" y="492.05" width="5.85" height="1.56"/><rect class="cls-24" x="296.11" y="486.71" width="5.85" height="5.34"/><rect class="cls-19" x="296.12" y="492.05" width="5.85" height="1.56"/><rect class="cls-19" x="301.97" y="486.71" width="5.85" height="5.34"/><rect class="cls-24" x="301.97" y="492.05" width="5.85" height="1.56"/><rect class="cls-24" x="307.82" y="486.71" width="5.85" height="5.34"/><rect class="cls-19" x="307.82" y="492.05" width="5.85" height="1.56"/><rect class="cls-19" x="313.67" y="486.71" width="5.85" height="5.34"/><rect class="cls-24" x="313.67" y="492.05" width="5.86" height="1.56"/><rect class="cls-24" x="319.52" y="486.71" width="5.85" height="5.34"/><path class="cls-19" d="m325.38,492.05v1.41c-.48.1-.97.15-1.48.15h-4.37v-1.56h5.85Z"/><rect class="cls-19" x="325.38" y="486.71" width="5.85" height="5.34"/><path class="cls-24" d="m328.33,492.05c-.85.68-1.86,1.17-2.96,1.41v-1.41h2.96Z"/><rect class="cls-24" x="273.19" y="486.71" width="5.85" height="5.34"/><rect class="cls-19" x="273.19" y="492.05" width="5.86" height="1.56"/><rect class="cls-19" x="279.05" y="486.71" width="5.85" height="5.34"/><rect class="cls-24" x="279.05" y="492.05" width="5.85" height="1.56"/><rect class="cls-19" x="283.94" y="481.81" width="5.85" height="5.34"/><rect class="cls-19" x="289.79" y="479.38" width="5.85" height="2.42"/><rect class="cls-24" x="289.79" y="481.81" width="5.85" height="5.34"/><rect class="cls-24" x="295.64" y="479.38" width="5.85" height="2.42"/><rect class="cls-19" x="295.64" y="481.81" width="5.85" height="5.34"/><rect class="cls-19" x="301.49" y="479.38" width="5.85" height="2.42"/><rect class="cls-24" x="301.49" y="481.81" width="5.85" height="5.34"/><rect class="cls-24" x="307.34" y="479.38" width="5.86" height="2.42"/><rect class="cls-19" x="307.35" y="481.81" width="5.85" height="5.34"/><rect class="cls-19" x="313.2" y="479.38" width="5.85" height="2.42"/><rect class="cls-24" x="313.2" y="481.81" width="5.85" height="5.34"/><path class="cls-24" d="m324.9,479.45v2.35h-5.85v-2.42h4.84c.34,0,.68.02,1.01.07Z"/><rect class="cls-19" x="319.05" y="481.81" width="5.85" height="5.34"/><path class="cls-19" d="m329.24,481.81h-4.33v-2.35c1.71.25,3.24,1.11,4.33,2.35Z"/><path class="cls-1" d="m330.75,481.81v2.81c-.29-1.06-.82-2.01-1.52-2.81h1.52Z"/><path class="cls-24" d="m330.75,484.62v2.53h-5.85v-5.34h4.33c.7.8,1.23,1.75,1.52,2.81Z"/><rect class="cls-24" x="272.72" y="479.38" width="5.85" height="2.42"/><rect class="cls-19" x="272.72" y="481.81" width="5.85" height="5.34"/><rect class="cls-24" x="278.57" y="481.81" width="5.85" height="5.34"/><path class="cls-19" d="m331.23,486.71v.43h-.47v-2.53c.17.6.25,1.23.25,1.88,0,.07,0,.14,0,.21h.23Z"/><path class="cls-6" d="m330.98,487.14c-.15,1.7-.91,3.23-2.06,4.38-.18.18-.38.36-.59.52-.85.68-1.86,1.17-2.96,1.41-.48.1-.97.15-1.48.15h-116.78c-1.67,0-3.2-.58-4.42-1.55-.09-.07-.18-.15-.27-.23-1.38-1.22-2.29-2.96-2.4-4.9-.01-.14-.02-.29-.02-.43,0-1.9.75-3.62,1.97-4.9.04-.04.08-.08.12-.12.04-.04.08-.08.13-.12,1.28-1.22,3.01-1.96,4.9-1.96h116.78c.34,0,.68.02,1.01.07,1.71.25,3.24,1.11,4.33,2.35.7.8,1.23,1.75,1.52,2.81.17.6.25,1.23.25,1.88"/></g></svg>