<?xml version="1.0" encoding="UTF-8"?><svg xmlns="http://www.w3.org/2000/svg" width="670" height="670" xmlns:xlink="http://www.w3.org/1999/xlink" viewBox="0 0 670 670"><defs><style>.cls-1,.cls-2,.cls-3,.cls-4,.cls-5,.cls-6,.cls-7,.cls-8,.cls-9,.cls-10,.cls-11{fill:none;}.cls-12{fill:url(#linear-gradient);}.cls-13{fill:#02b6af;}.cls-14{fill:#000621;}.cls-15{fill:#f0f0f0;}.cls-16{fill:#ffdfc5;}.cls-17{fill:#e7a43f;}.cls-18,.cls-19{fill:#fff;}.cls-20,.cls-21,.cls-22{fill:#ffccc6;}.cls-23{fill:red;}.cls-24{fill:#e4e4e4;}.cls-25{fill:#fdf6f5;}.cls-26{fill:#89ece9;}.cls-27{fill:#cab095;}.cls-28{fill:#cbcbcb;}.cls-29{fill:#d37100;}.cls-30{fill:#13d5cc;}.cls-31{fill:#495315;}.cls-32{fill:#7c4a1a;}.cls-33{fill:#00009f;}.cls-33,.cls-34,.cls-35,.cls-36,.cls-21,.cls-3,.cls-37,.cls-4,.cls-19,.cls-38,.cls-6,.cls-7,.cls-8,.cls-9,.cls-10,.cls-11,.cls-39,.cls-40,.cls-41,.cls-42{stroke-miterlimit:10;}.cls-33,.cls-2,.cls-38{stroke-width:2.66px;}.cls-33,.cls-38,.cls-8{stroke:#000;}.cls-34{stroke-width:.8px;}.cls-34,.cls-37{fill:#00ff82;}.cls-34,.cls-37,.cls-10{stroke:#666;}.cls-2,.cls-3,.cls-5{stroke-linecap:round;}.cls-2,.cls-5{stroke-linejoin:round;}.cls-2,.cls-6{stroke:#673606;}.cls-35{fill:#cd9965;}.cls-35,.cls-3,.cls-7,.cls-8,.cls-9{stroke-width:1.77px;}.cls-35,.cls-7{stroke:#7c4a1a;}.cls-36{fill:#00a14c;stroke:#00943a;}.cls-36,.cls-21,.cls-6{stroke-width:.89px;}.cls-21{stroke:#ffccc6;}.cls-3,.cls-19,.cls-9,.cls-11{stroke:#000046;}.cls-37,.cls-10{stroke-width:.66px;}.cls-4{stroke-width:.27px;}.cls-4,.cls-5{stroke:#ad7a4a;}.cls-19,.cls-11{stroke-width:3.54px;}.cls-43{opacity:.25;}.cls-5{stroke-width:.44px;}.cls-39{fill:#fff598;}.cls-39,.cls-40,.cls-41,.cls-42{stroke:#999;stroke-width:.17px;}.cls-40{fill:#eea6ee;}.cls-22{opacity:.45;}.cls-44{fill:#facaaa;opacity:.63;}.cls-41{fill:#82d864;}.cls-42{fill:#3d93e3;}</style><linearGradient id="linear-gradient" x1="412.04" y1="557.93" x2="451.64" y2="557.93" gradientTransform="translate(-96.93 8) rotate(-9.48)" gradientUnits="userSpaceOnUse"><stop offset="0" stop-color="#7ac710"/><stop offset="1" stop-color="#ff0006"/></linearGradient></defs><g id="Layer_3"><g><path class="cls-42" d="m275.62,359.71s-129.89-3.47-43.13-146.77c0,0,150.52,27.05,93.53,119.72"/><g><line class="cls-37" x1="267.1" y1="288.71" x2="273.52" y2="265.28"/><line class="cls-37" x1="242.24" y1="279.82" x2="267.1" y2="288.71"/><polyline class="cls-10" points="299.48 291.72 288.45 331.4 246.9 248.1"/><line class="cls-10" x1="246.9" y1="313.53" x2="288.45" y2="331.4"/></g><path class="cls-42" d="m275.62,359.71s28.43,6.44,34.42,2.48c5.99-3.97,15.98-29.54,15.98-29.54"/></g><g><path class="cls-42" d="m262.11,405.18s-92.04,91.07-136.84-70.11c0,0,123.47-89.67,151.82,15.2"/><g><line class="cls-34" x1="204.42" y1="362.38" x2="191.75" y2="341.62"/><line class="cls-34" x1="180.8" y1="374.14" x2="204.42" y2="362.38"/><polyline class="cls-10" points="228.93 341.16 250.29 376.44 160.86 348.93"/><line class="cls-10" x1="208.61" y1="394.02" x2="250.29" y2="376.44"/></g><path class="cls-42" d="m262.11,405.18s24.29-16.02,25.53-23.06-10.54-31.85-10.54-31.85"/></g><g><path class="cls-41" d="m323.94,330.71s-76.15-104.54,91.19-123.2c0,0,69.82,135.14-38.92,146.5"/><g><line class="cls-34" x1="375.56" y1="280.85" x2="398.19" y2="271.68"/><line class="cls-34" x1="367.56" y1="255.85" x2="375.56" y2="280.85"/><polyline class="cls-10" points="392.82 308.21 354.38 323.63 395.76 240.24"/><line class="cls-10" x1="343.43" y1="280" x2="354.38" y2="323.63"/></g><path class="cls-41" d="m323.94,330.71s12.12,26.33,18.93,28.65c6.81,2.31,33.33-5.34,33.33-5.34"/></g><g><path class="cls-41" d="m382.45,336.03s21.06-127.31,152.3-22.54c0,0-47.4,144.42-132.13,75.79"/><g><line class="cls-34" x1="454.46" y1="337.27" x2="476.96" y2="346.76"/><line class="cls-34" x1="466.7" y1="314.01" x2="454.46" y2="337.27"/><polyline class="cls-10" points="447.07 368.71 408.97 352.48 497.72 322.9"/><line class="cls-10" x1="432.43" y1="314.03" x2="408.97" y2="352.48"/></g><path class="cls-41" d="m382.45,336.03s-10.28,27.1-7.14,33.53c3.14,6.43,27.31,19.72,27.31,19.72"/></g></g><g id="Layer_1"><path class="cls-16" d="m256.55,486.52l11.12-72.59h-16.53c-7.56,0-13.75,6.69-13.75,14.88l-10.73,57.71h29.9Z"/><rect class="cls-31" x="274.8" y="351.08" width="118.58" height="160.23"/><ellipse class="cls-33" cx="341.62" cy="296.78" rx="16.63" ry="16.82"/><ellipse class="cls-38" cx="341.62" cy="296.78" rx="16.63" ry="16.82"/><rect class="cls-32" x="212.39" y="113.84" width="236.52" height="97.38" rx="35.41" ry="35.41"/><rect class="cls-16" x="234.92" y="126.23" width="197.92" height="196.52" rx="84.1" ry="84.1"/><path class="cls-16" d="m238.49,192.62h2.44c7.38,0,13.37,5.99,13.37,13.37v37.51c0,7.58-6.16,13.74-13.74,13.74h-.33c-18.31,0-33.18-14.87-33.18-33.18h0c0-17.36,14.09-31.45,31.45-31.45Z"/><path class="cls-22" d="m229.06,212.98h.13c2.54,0,4.6,2.06,4.6,4.6v24.45c0,2.54-2.06,4.6-4.6,4.6h-.13c-7.24,0-13.11-5.87-13.11-13.11v-7.42c0-7.24,5.87-13.11,13.11-13.11Z"/><path class="cls-44" d="m232.4,227.15h1.38v13.28h-1.39c-3.66,0-6.64-2.97-6.64-6.64h0c0-3.66,2.98-6.64,6.64-6.64Z"/><path class="cls-16" d="m433.68,195.28h.33c7.58,0,13.74,6.16,13.74,13.74v37.51c0,7.38-5.99,13.37-13.37,13.37h-2.44c-17.36,0-31.45-14.09-31.45-31.45h0c0-18.31,14.87-33.18,33.18-33.18Z" transform="translate(848.26 455.18) rotate(180)"/><path class="cls-22" d="m434.12,215.64h.13c2.54,0,4.6,2.06,4.6,4.6v24.45c0,2.54-2.06,4.6-4.6,4.6h-.13c-7.24,0-13.11-5.87-13.11-13.11v-7.42c0-7.24,5.87-13.11,13.11-13.11Z" transform="translate(859.85 464.92) rotate(180)"/><path class="cls-44" d="m427.65,229.8h1.39v13.28h-1.38c-3.66,0-6.64-2.98-6.64-6.64h0c0-3.66,2.97-6.64,6.64-6.64Z" transform="translate(850.05 472.89) rotate(180)"/><rect class="cls-16" x="318.26" y="322.75" width="32.1" height="37.18"/><path class="cls-21" d="m333.02,257.69h-7.97c-5.04,0-8.18-6.43-5.67-11.57l3.99-8.14,3.99-8.14c2.52-5.14,8.81-5.14,11.33,0l3.99,8.14,3.99,8.14c2.52,5.14-.63,11.57-5.67,11.57h-7.97Z"/><path class="cls-9" d="m324.72,211.21h17.83"/><g><g><ellipse class="cls-19" cx="289.56" cy="210.33" rx="13.36" ry="13.26"/><ellipse class="cls-24" cx="289.81" cy="210.37" rx="24.52" ry="24.35"/><ellipse class="cls-15" cx="289.81" cy="210.54" rx="24.52" ry="20.87"/><ellipse class="cls-24" cx="289.64" cy="210.37" rx="15.41" ry="15.31"/><ellipse class="cls-9" cx="288.79" cy="210.3" rx="35.64" ry="35.39"/><ellipse class="cls-13" cx="289.73" cy="210.33" rx="13.36" ry="13.26"/><ellipse class="cls-30" cx="290.13" cy="210.48" rx="10.25" ry="10.18"/><ellipse class="cls-26" cx="290.13" cy="210.48" rx="7.92" ry="7.86"/><ellipse class="cls-11" cx="289.73" cy="210.33" rx="13.36" ry="13.26"/><path class="cls-30" d="m292.05,205.05l1.35-2.14c.13-.21.45-.06.38.18l-.78,2.4c-.07.21.19.36.34.22l1.84-1.74c.18-.17.45.06.32.26l-1.36,2.13c-.12.18.09.4.28.29l2.22-1.23c.22-.12.43.17.25.33l-1.85,1.73c-.16.15-.01.41.2.35l2.46-.64c.24-.06.37.27.15.38l-2.23,1.22c-.19.1-.12.39.1.39h2.54c.25-.01.29.34.05.4l-2.46.63c-.21.05-.21.35,0,.4l2.47.62c.24.06.2.41-.05.41h-2.54c-.22,0-.29.29-.1.39l2.23,1.21c.22.12.09.45-.15.39l-2.46-.63c-.21-.05-.35.21-.2.35l1.86,1.72c.18.17-.03.45-.24.34l-2.23-1.21c-.19-.1-.4.11-.28.3l1.37,2.12c.13.21-.14.43-.32.26l-1.86-1.73c-.16-.15-.41.01-.34.22l.8,2.4c.08.23-.24.38-.38.18l-1.36-2.13c-.12-.18-.4-.09-.39.13l.17,2.52c.02.25-.33.31-.41.08l-.79-2.4c-.07-.21-.37-.19-.41.03l-.46,2.48c-.05.24-.4.22-.42-.02l-.16-2.52c-.01-.22-.31-.27-.4-.07l-1.07,2.29c-.1.22-.44.11-.4-.13l.47-2.48c.04-.21-.23-.34-.37-.17l-1.61,1.95c-.16.19-.46,0-.35-.22l1.08-2.29c.09-.2-.14-.38-.31-.26l-2.05,1.49c-.2.15-.44-.11-.29-.3l1.62-1.95c.14-.17-.04-.41-.24-.33l-2.36.94c-.23.09-.4-.22-.2-.36l2.06-1.49c.18-.13.06-.4-.15-.38l-2.52.33c-.25.03-.33-.31-.1-.4l2.36-.93c.2-.08.16-.37-.05-.4l-2.52-.3c-.25-.03-.25-.38,0-.41l2.52-.32c.22-.03.25-.32.05-.4l-2.37-.92c-.23-.09-.14-.43.1-.4l2.52.31c.22.03.33-.25.15-.38l-2.06-1.47c-.2-.14-.03-.45.2-.36l2.36.93c.2.08.38-.16.24-.33l-1.63-1.94c-.16-.19.08-.45.28-.3l2.06,1.48c.18.13.41-.06.31-.26l-1.09-2.28c-.11-.22.19-.41.35-.22l1.62,1.94c.14.17.41.04.37-.17l-.49-2.48c-.05-.24.29-.35.4-.13l1.08,2.28c.09.2.39.14.4-.08l.15-2.52c.01-.25.37-.27.42-.03l.48,2.48c.04.21.34.23.41.02l.77-2.4c.08-.23.42-.17.41.08l-.16,2.52c-.01.22.27.31.39.12Z"/><path class="cls-13" d="m292.84,204.85l1.59-2.01c.17-.22.52-.01.41.24l-1.05,2.34c-.1.23.17.44.37.29l2.04-1.56c.22-.17.51.12.33.34l-1.6,2.01c-.15.19.05.46.28.37l2.37-1c.26-.11.46.24.24.41l-2.05,1.55c-.2.15-.06.46.18.43l2.55-.39c.28-.04.39.35.13.46l-2.37.99c-.23.1-.18.43.07.46l2.56.26c.28.03.29.43.01.47l-2.55.38c-.25.04-.28.37-.05.46l2.42.88c.27.1.17.49-.11.46l-2.56-.27c-.25-.03-.37.29-.16.43l2.12,1.45c.23.16.05.52-.22.42l-2.42-.89c-.23-.09-.43.19-.26.38l1.69,1.93c.19.21-.09.51-.32.35l-2.12-1.46c-.2-.14-.46.08-.35.3l1.16,2.29c.13.25-.21.47-.4.26l-1.68-1.94c-.16-.19-.47-.03-.42.21l.55,2.5c.06.27-.32.41-.45.16l-1.15-2.29c-.11-.22-.45-.15-.45.1l-.1,2.56c-.01.28-.42.32-.47.04l-.54-2.5c-.05-.24-.39-.25-.46-.02l-.73,2.45c-.08.27-.48.2-.47-.08l.11-2.56c.01-.25-.32-.34-.45-.13l-1.32,2.19c-.15.24-.52.08-.44-.19l.74-2.45c.07-.24-.22-.41-.4-.24l-1.83,1.8c-.2.2-.52-.05-.37-.29l1.33-2.19c.13-.21-.11-.45-.33-.33l-2.23,1.29c-.24.14-.49-.18-.29-.38l1.84-1.79c.18-.17,0-.47-.23-.4l-2.48.7c-.27.08-.43-.29-.19-.44l2.23-1.28c.22-.12.12-.45-.13-.44l-2.58.07c-.28,0-.34-.39-.07-.47l2.48-.69c.24-.07.23-.41-.01-.46l-2.51-.57c-.28-.06-.23-.46.05-.47l2.58-.06c.25,0,.33-.34.1-.45l-2.29-1.17c-.25-.13-.11-.51.16-.44l2.51.58c.24.06.4-.25.21-.41l-1.92-1.7c-.21-.19.02-.52.27-.39l2.28,1.18c.22.11.45-.14.31-.34l-1.44-2.12c-.16-.23.15-.5.36-.31l1.92,1.71c.18.17.47-.02.39-.26l-.86-2.41c-.09-.26.27-.44.43-.21l1.43,2.13c.14.21.46.09.44-.15l-.23-2.55c-.02-.28.37-.36.47-.1l.85,2.42c.08.23.42.2.46-.04l.42-2.52c.05-.28.45-.26.48.02l.22,2.55c.02.25.36.3.46.08l1.04-2.34c.11-.26.5-.14.46.14l-.43,2.52c-.04.24.27.38.43.19Z"/><ellipse class="cls-14" cx="290.08" cy="210.33" rx="4.95" ry="4.91"/><path class="cls-18" d="m273.96,219.21c-6.03-3.83-6.24-13.55-.41-17.66,0,0,.64.59.64.59-.39.68-.75,1.35-1.05,2.03-1.51,3.28-1.9,7.05-.69,10.48.47,1.37,1.19,2.67,2.1,3.92l-.6.64h0Z"/><path class="cls-18" d="m305.6,219.24c6.03-3.83,6.24-13.55.41-17.66,0,0-.64.59-.64.59.39.68.75,1.35,1.05,2.03,1.51,3.28,1.9,7.05.69,10.48-.47,1.37-1.19,2.67-2.1,3.92l.6.64h0Z"/><ellipse class="cls-18" cx="282.11" cy="199.41" rx="2.45" ry="2.43"/><ellipse class="cls-18" cx="294.19" cy="213.85" rx="1.4" ry="1.39"/></g><line class="cls-3" x1="253.15" y1="205.02" x2="235.32" y2="189.97"/><g><ellipse class="cls-19" cx="377.23" cy="210.33" rx="13.36" ry="13.26"/><ellipse class="cls-24" cx="376.97" cy="210.37" rx="24.52" ry="24.35"/><ellipse class="cls-15" cx="376.97" cy="210.54" rx="24.52" ry="20.87"/><ellipse class="cls-24" cx="377.15" cy="210.37" rx="15.41" ry="15.31"/><ellipse class="cls-9" cx="377.99" cy="210.3" rx="35.64" ry="35.39"/><ellipse class="cls-13" cx="377.06" cy="210.33" rx="13.36" ry="13.26"/><ellipse class="cls-30" cx="376.66" cy="210.48" rx="10.25" ry="10.18"/><ellipse class="cls-26" cx="376.66" cy="210.48" rx="7.92" ry="7.86"/><ellipse class="cls-11" cx="377.06" cy="210.33" rx="13.36" ry="13.26"/><path class="cls-30" d="m374.74,205.05l-1.35-2.14c-.13-.21-.45-.06-.38.18l.78,2.4c.07.21-.19.36-.34.22l-1.84-1.74c-.18-.17-.45.06-.32.26l1.36,2.13c.12.18-.09.4-.28.29l-2.22-1.23c-.22-.12-.43.17-.25.33l1.85,1.73c.16.15.01.41-.2.35l-2.46-.64c-.24-.06-.37.27-.15.38l2.23,1.22c.19.1.12.39-.1.39h-2.54c-.25-.01-.29.34-.05.4l2.46.63c.21.05.21.35,0,.4l-2.47.62c-.24.06-.2.41.05.41h2.54c.22,0,.29.29.1.39l-2.23,1.21c-.22.12-.09.45.15.39l2.46-.63c.21-.05.35.21.2.35l-1.86,1.72c-.18.17.03.45.24.34l2.23-1.21c.19-.1.4.11.28.3l-1.37,2.12c-.13.21.14.43.32.26l1.86-1.73c.16-.15.41.01.34.22l-.8,2.4c-.08.23.24.38.38.18l1.36-2.13c.12-.18.4-.09.39.13l-.17,2.52c-.02.25.33.31.41.08l.79-2.4c.07-.21.37-.19.41.03l.46,2.48c.05.24.4.22.42-.02l.16-2.52c.01-.22.31-.27.4-.07l1.07,2.29c.1.22.44.11.4-.13l-.47-2.48c-.04-.21.23-.34.37-.17l1.61,1.95c.16.19.46,0,.35-.22l-1.08-2.29c-.09-.2.14-.38.31-.26l2.05,1.49c.2.15.44-.11.29-.3l-1.62-1.95c-.14-.17.04-.41.24-.33l2.36.94c.23.09.4-.22.2-.36l-2.06-1.49c-.18-.13-.06-.4.15-.38l2.52.33c.25.03.33-.31.1-.4l-2.36-.93c-.2-.08-.16-.37.05-.4l2.52-.3c.25-.03.25-.38,0-.41l-2.52-.32c-.22-.03-.25-.32-.05-.4l2.37-.92c.23-.09.14-.43-.1-.4l-2.52.31c-.22.03-.33-.25-.15-.38l2.06-1.47c.2-.14.03-.45-.2-.36l-2.36.93c-.2.08-.38-.16-.24-.33l1.63-1.94c.16-.19-.08-.45-.28-.3l-2.06,1.48c-.18.13-.41-.06-.31-.26l1.09-2.28c.11-.22-.19-.41-.35-.22l-1.62,1.94c-.14.17-.41.04-.37-.17l.49-2.48c.05-.24-.29-.35-.4-.13l-1.08,2.28c-.09.2-.39.14-.4-.08l-.15-2.52c-.01-.25-.37-.27-.42-.03l-.48,2.48c-.04.21-.34.23-.41.02l-.77-2.4c-.08-.23-.42-.17-.41.08l.16,2.52c.01.22-.27.31-.39.12Z"/><path class="cls-13" d="m373.94,204.85l-1.59-2.01c-.17-.22-.52-.01-.41.24l1.05,2.34c.1.23-.17.44-.37.29l-2.04-1.56c-.22-.17-.51.12-.33.34l1.6,2.01c.15.19-.05.46-.28.37l-2.37-1c-.26-.11-.46.24-.24.41l2.05,1.55c.2.15.06.46-.18.43l-2.55-.39c-.28-.04-.39.35-.13.46l2.37.99c.23.1.18.43-.07.46l-2.56.26c-.28.03-.29.43-.01.47l2.55.38c.25.04.28.37.05.46l-2.42.88c-.27.1-.17.49.11.46l2.56-.27c.25-.03.37.29.16.43l-2.12,1.45c-.23.16-.05.52.22.42l2.42-.89c.23-.09.43.19.26.38l-1.69,1.93c-.19.21.09.51.32.35l2.12-1.46c.2-.14.46.08.35.3l-1.16,2.29c-.13.25.21.47.4.26l1.68-1.94c.16-.19.47-.03.42.21l-.55,2.5c-.06.27.32.41.45.16l1.15-2.29c.11-.22.45-.15.45.1l.1,2.56c.01.28.42.32.47.04l.54-2.5c.05-.24.39-.25.46-.02l.73,2.45c.08.27.48.2.47-.08l-.11-2.56c-.01-.25.32-.34.45-.13l1.32,2.19c.15.24.52.08.44-.19l-.74-2.45c-.07-.24.22-.41.4-.24l1.83,1.8c.2.2.52-.05.37-.29l-1.33-2.19c-.13-.21.11-.45.33-.33l2.23,1.29c.24.14.49-.18.29-.38l-1.84-1.79c-.18-.17,0-.47.23-.4l2.48.7c.27.08.43-.29.19-.44l-2.23-1.28c-.22-.12-.12-.45.13-.44l2.58.07c.28,0,.34-.39.07-.47l-2.48-.69c-.24-.07-.23-.41.01-.46l2.51-.57c.28-.06.23-.46-.05-.47l-2.58-.06c-.25,0-.33-.34-.1-.45l2.29-1.17c.25-.13.11-.51-.16-.44l-2.51.58c-.24.06-.4-.25-.21-.41l1.92-1.7c.21-.19-.02-.52-.27-.39l-2.28,1.18c-.22.11-.45-.14-.31-.34l1.44-2.12c.16-.23-.15-.5-.36-.31l-1.92,1.71c-.18.17-.47-.02-.39-.26l.86-2.41c.09-.26-.27-.44-.43-.21l-1.43,2.13c-.14.21-.46.09-.44-.15l.23-2.55c.02-.28-.37-.36-.47-.1l-.85,2.42c-.08.23-.42.2-.46-.04l-.42-2.52c-.05-.28-.45-.26-.48.02l-.22,2.55c-.02.25-.36.3-.46.08l-1.04-2.34c-.11-.26-.5-.14-.46.14l.43,2.52c.04.24-.27.38-.43.19Z"/><ellipse class="cls-14" cx="376.71" cy="210.33" rx="4.95" ry="4.91"/><path class="cls-18" d="m392.83,219.21c6.03-3.83,6.24-13.55.41-17.66,0,0-.64.59-.64.59.39.68.75,1.35,1.05,2.03,1.51,3.28,1.9,7.05.69,10.48-.47,1.37-1.19,2.67-2.1,3.92l.6.64h0Z"/><path class="cls-18" d="m361.19,219.24c-6.03-3.83-6.24-13.55-.41-17.66,0,0,.64.59.64.59-.39.68-.75,1.35-1.05,2.03-1.51,3.28-1.9,7.05-.69,10.48.47,1.37,1.19,2.67,2.1,3.92l-.6.64h0Z"/><ellipse class="cls-18" cx="384.68" cy="199.41" rx="2.45" ry="2.43"/><ellipse class="cls-18" cx="372.59" cy="213.85" rx="1.4" ry="1.39"/></g><path class="cls-9" d="m342.31,211.21h-17.83"/><line class="cls-3" x1="413.63" y1="205.02" x2="431.46" y2="189.97"/></g><rect class="cls-32" x="230.22" y="74" width="160.48" height="70.82" rx="35.41" ry="35.41"/><ellipse class="cls-32" cx="387.58" cy="126.67" rx="41.46" ry="41.16"/><path class="cls-28" d="m368.41,275.84v4.57c0,.51-.02,1.02-.04,1.52-.12,1.88-.45,3.7-.97,5.47-3.27,10.93-14.02,19.31-27.32,20.91-1.52.19-3.08.28-4.65.28h-3.57c-17.62,0-32.02-11.81-32.93-26.66-.04-.5-.05-1.01-.05-1.52v-4.57h69.54Z"/><path class="cls-20" d="m367.39,287.4c-3.27,10.93-14.02,19.31-27.32,20.91-.42-1.49-.64-3.05-.64-4.67,0-10.09,8.59-18.28,19.17-18.28,3.17,0,6.16.73,8.79,2.04Z"/><path class="cls-18" d="m368.41,275.84v3.32c0,.37-.02.74-.04,1.11h-69.44c-.04-.37-.05-.74-.05-1.11v-3.32h69.54Z"/><path class="cls-16" d="m373.91,351.08c-6.95,6.8-22.07,11.51-39.6,11.51s-32.65-4.71-39.6-11.51h79.2Z"/><path class="cls-31" d="m268.56,428.98l12.93-77.9h-19.23c-8.79,0-15.99,7.18-15.99,15.96l-12.48,61.94h34.77Z"/></g><g id="Layer_4"><g><path class="cls-39" d="m430.78,389.97s100.6-81.65,129.24,83.11c0,0-131.74,77.19-149.59-29.93"/><g><line class="cls-34" x1="483.96" y1="438.19" x2="494.51" y2="460.08"/><line class="cls-34" x1="508.62" y1="428.78" x2="483.96" y2="438.19"/><polyline class="cls-10" points="457.47 456.91 439.7 419.72 525.97 455.81"/><line class="cls-10" x1="482.92" y1="406.29" x2="439.7" y2="419.72"/></g><path class="cls-39" d="m430.78,389.97s-25.76,13.57-27.68,20.46c-1.92,6.89,7.34,32.73,7.34,32.73"/></g><g><path class="cls-40" d="m262,464.5s-25.79,126.45-153.04,16.93c0,0,52.74-142.58,134.86-70.88"/><g><line class="cls-34" x1="190.09" y1="460.61" x2="167.96" y2="450.31"/><line class="cls-34" x1="177" y1="483.4" x2="190.09" y2="460.61"/><polyline class="cls-10" points="198.65 429.47 236.12 447.08 146.33 473.39"/><line class="cls-10" x1="211.24" y1="484.65" x2="236.12" y2="447.08"/></g><path class="cls-40" d="m262,464.5s11.28-26.7,8.38-33.24-26.55-20.71-26.55-20.71"/></g><path class="cls-40" d="m326.32,472.76s76.35,104.4-90.96,123.37c0,0-70.08-135.01,38.65-146.57"/><g><line class="cls-34" x1="274.79" y1="522.72" x2="252.18" y2="531.94"/><line class="cls-34" x1="282.84" y1="547.71" x2="274.79" y2="522.72"/><polyline class="cls-10" points="257.48 495.39 295.89 479.91 254.67 563.37"/><line class="cls-10" x1="306.92" y1="523.51" x2="295.89" y2="479.91"/></g><path class="cls-40" d="m326.32,472.76s-12.17-26.31-18.99-28.61c-6.82-2.3-33.32,5.41-33.32,5.41"/><g><path class="cls-39" d="m394.77,444.81s129.64,8.75,37.03,148.41c0,0-149.28-33.16-88.51-123.42"/><g><line class="cls-34" x1="400.35" y1="516.1" x2="392.97" y2="539.24"/><line class="cls-34" x1="424.83" y1="525.99" x2="400.35" y2="516.1"/><polyline class="cls-10" points="368.13 511.77 380.79 472.57 418.86 557.49"/><line class="cls-10" x1="421.56" y1="492.12" x2="380.79" y2="472.57"/></g><path class="cls-39" d="m394.77,444.81s-28.14-7.59-34.29-3.88c-6.15,3.72-17.19,28.86-17.19,28.86"/></g></g><g id="Layer_5"><g><path class="cls-16" d="m413.17,494l-11.76-79.67h17.49c8,0,14.54,7.35,14.54,16.33l11.35,63.34h-31.62Z"/><g><path class="cls-36" d="m415.04,469.15c-.81-.77-.21-3.37,1.13-4.9.72-.82,1.1-.7,3.27-1.97,2.7-1.58,3.44-2.54,3.95-2.19.63.43.23,2.37-.23,3.54-.15.37-.76,1.84-2.82,3.42-.31.24-4.14,3.19-5.31,2.08Z"/><path class="cls-2" d="m411.51,467.75c3.19.66,5.73,3.03,6.51,6.07,1.03,4.04-1.58,7.16-1.83,7.45"/><path class="cls-12" d="m417.37,474.07c1.76-.75,1.58-2.24,3.93-3.96,0,0,1.5-1.1,3.37-1.6,3.99-1.07,7.71,1.07,8.5,1.52,7.46,4.29,7.33,15.46,7.3,16.65-.15,5.89-2.68,11.34-5.75,13.58-.81.59-3.78,2.75-5.71,2.1-.24-.08-.82-.32-1.5-.16-.97.23-1.5,1.1-1.67,1.33-1.3,1.84-6.23,1.68-8.51,1.35-6.86-1.02-11.07-6.89-12.16-8.41-1.54-2.15-6.18-8.62-3.83-15.07.33-.9,1.74-4.39,5.25-6.23,2.33-1.23,4.87-1.34,5.63-1.36,2.93-.06,3.57.92,5.14.25Z"/></g><g><path class="cls-27" d="m463.72,507.63l-1.18-.35c-3.28-.99-5.32-3.8-4.56-6.29l9.71-31.81c.76-2.49,4.03-3.71,7.31-2.72l1.18.35c3.28.99,5.32,3.8,4.56,6.29l-12.06,30.52c-.76,2.49-1.68,5-4.96,4.01Z"/><path class="cls-29" d="m469.01,475.47c13.37,4.1,16.81,7.21,20.75,4.89,3.77-2.21,4.79-7.5,4.65-10.77-.29-6.84-5.89-11.04-8.33-12.88-7.02-5.28-19.64-8.96-28.25-2.64-4.61,3.38-8.73,10.11-6.74,14.65,1.53,3.5,5.48,2.93,17.92,6.74Z"/></g><g><path class="cls-17" d="m449.41,490.41c-.83-2.37-.56-4.46-2.15-5.83-3.83-3.29-9.55-.29-11.64-3.27-1.06-1.51-.91-3.72-.1-5.1.84-1.44,2.19-1.59,7.09-3.1,5.18-1.6,6.34-3.44,7.44-4.65,1.6-1.77,3.25-2.61,5.22-3.23.15-.05,1.96-.59,2.91.3,1.44,1.35-.01,5.12-1.16,8.12-1.75,4.55-3.11,5.58-2.69,7.83.28,1.52,1.02,1.69,2.74,4.16,1.7,2.45,4.21,6.05,3.95,10.1-.14,2.2-1.19,5.89-3.92,6.72-1.76.53-3.93-.2-5.25-1.57-2.3-2.37-.51-5.05-2.42-10.5Z"/><path class="cls-5" d="m436.19,479.67c3.19-3.05,6.12-4.38,8.24-5.04,2.13-.65,4.25-.73,6.62-2.36,1.64-1.13,2.84-2.73,3.15-3.08.94-1.04,1.63-2.01,2.11-2.74"/><g><path class="cls-4" d="m443.61,481.74c.79.26,1.75.66,2.79,1.25.88.51,1.62,1.05,2.2,1.54"/><path class="cls-4" d="m444.07,480.73c1.39.42,2.21,1.04,2.7,1.56.31.32.69.81,1.41,1.4.44.36.83.61,1.1.77"/><path class="cls-4" d="m445.43,480.07c.74.34,2,1.04,3.11,2.4.52.64.88,1.28,1.13,1.8"/><path class="cls-4" d="m446.49,479.29c.33.26.8.65,1.31,1.19.53.57.87,1.05,1.32,1.7.27.39.63.92,1.02,1.59"/><path class="cls-4" d="m447.97,479.35c.34.3.81.79,1.22,1.49.22.38.29.6.52,1.05.22.45.58,1.08,1.13,1.8"/><path class="cls-4" d="m448.93,478.37l.73,1.47c.66,1.33,1.31,2.66,1.97,4"/><path class="cls-4" d="m450.11,478.32c.3.64.45,1.19.53,1.57.15.71.09,1,.34,1.66.18.49.41.87.52,1.05.25.41.5.72.71.96"/><path class="cls-4" d="m451.17,477.54c.27.93.34,1.67.35,2.18.01.67-.07.99.04,1.55.15.75.54,1.32.83,1.68"/><path class="cls-4" d="m452.14,477.07c-.16.47-.5,1.68-.11,3.19.26.99.73,1.71,1.04,2.1"/><path class="cls-4" d="m453.4,476.2c-.08.22-.18.53-.27.91-.13.53-.33,1.38-.23,2.46.09,1.04.44,1.9.75,2.5"/></g></g><path class="cls-31" d="m398.56,429.38l-12.93-77.9h19.23c8.79,0,15.99,7.18,15.99,15.96l12.48,61.94h-34.77Z"/><path class="cls-7" d="m485.95,492.93c-.77-32.73-20.94-58.94-45.72-58.94s-44.95,26.22-45.72,58.94"/><path class="cls-35" d="m493.35,506.85l-18.86,42.29c-2.87,6.45-14.27,11.03-27.43,11.03h-10.21c-13.69,0-25.62-4.68-28.92-11.35l-20.8-41.97"/><rect class="cls-8" x="381.84" y="494.34" width="116.8" height="12.59" rx="5.95" ry="5.95"/><g class="cls-43"><line class="cls-6" x1="396.99" y1="506.79" x2="423.85" y2="558.63"/><line class="cls-6" x1="409.71" y1="506.43" x2="437.07" y2="560.39"/><line class="cls-6" x1="423.21" y1="506.7" x2="450.28" y2="560.39"/><line class="cls-6" x1="436.95" y1="506.7" x2="462.96" y2="557.75"/><line class="cls-6" x1="448.89" y1="506.86" x2="471.95" y2="552.46"/><line class="cls-6" x1="460.41" y1="506.95" x2="477.76" y2="541.44"/><line class="cls-6" x1="472.78" y1="506.77" x2="483.58" y2="528.66"/><line class="cls-6" x1="482.93" y1="506.46" x2="488.33" y2="517.65"/><line class="cls-6" x1="487.58" y1="506.99" x2="413.28" y2="554.22"/><line class="cls-6" x1="488.82" y1="517.87" x2="423.85" y2="558.63"/><line class="cls-6" x1="483.63" y1="529.05" x2="437.07" y2="560.39"/><line class="cls-6" x1="477.76" y1="542.33" x2="449.75" y2="560.39"/><line class="cls-6" x1="472.96" y1="507.2" x2="408" y2="548.94"/><line class="cls-6" x1="449.79" y1="506.87" x2="400.07" y2="533.51"/><line class="cls-6" x1="460.67" y1="506.7" x2="403.77" y2="540.56"/><line class="cls-6" x1="437.07" y1="506.63" x2="397.43" y2="528.22"/><line class="cls-6" x1="423.15" y1="506.94" x2="394.79" y2="522.5"/><line class="cls-6" x1="410.05" y1="507.18" x2="392.14" y2="516.77"/><line class="cls-6" x1="397.42" y1="507.08" x2="388.97" y2="511.04"/></g><g><rect class="cls-23" x="456.71" y="494.36" width="5.22" height="2.15"/><path class="cls-18" d="m384.24,500.63v4.72h-.24c-1.23-1.08-2.04-2.62-2.14-4.34-.01-.13-.02-.26-.02-.38h2.4Z"/><path class="cls-23" d="m384.24,505.36v.2c-.08-.06-.16-.13-.24-.2h.24Z"/><rect class="cls-23" x="384.24" y="500.63" width="5.22" height="4.72"/><path class="cls-18" d="m389.45,505.36v1.57h-1.27c-1.49,0-2.85-.51-3.94-1.37v-.2h5.22Z"/><rect class="cls-18" x="389.45" y="500.63" width="5.22" height="4.72"/><rect class="cls-23" x="389.45" y="505.36" width="5.22" height="1.57"/><rect class="cls-23" x="394.67" y="500.63" width="5.22" height="4.72"/><rect class="cls-18" x="394.67" y="505.36" width="5.22" height="1.57"/><rect class="cls-18" x="399.89" y="500.63" width="5.22" height="4.72"/><rect class="cls-23" x="399.89" y="505.36" width="5.22" height="1.57"/><rect class="cls-23" x="405.11" y="500.63" width="5.22" height="4.72"/><rect class="cls-18" x="405.1" y="505.36" width="5.22" height="1.57"/><rect class="cls-18" x="410.32" y="500.63" width="5.22" height="4.72"/><rect class="cls-23" x="410.32" y="505.36" width="5.22" height="1.57"/><rect class="cls-23" x="415.54" y="500.63" width="5.22" height="4.72"/><rect class="cls-18" x="420.76" y="500.63" width="5.22" height="4.72"/><rect class="cls-23" x="420.76" y="505.36" width="5.22" height="1.57"/><rect class="cls-23" x="425.97" y="500.63" width="5.22" height="4.72"/><rect class="cls-18" x="425.97" y="505.36" width="5.22" height="1.57"/><rect class="cls-18" x="431.19" y="500.63" width="5.22" height="4.72"/><rect class="cls-23" x="431.19" y="505.36" width="5.22" height="1.57"/><rect class="cls-23" x="436.41" y="500.63" width="5.22" height="4.72"/><rect class="cls-18" x="436.41" y="505.36" width="5.22" height="1.57"/><rect class="cls-18" x="441.63" y="500.63" width="5.22" height="4.72"/><rect class="cls-23" x="441.63" y="505.36" width="5.22" height="1.57"/><path class="cls-18" d="m383.81,496.07v.22h-.22s.07-.07.11-.11c.04-.04.07-.07.12-.11Z"/><path class="cls-23" d="m383.81,496.3v4.72h-1.96c-.01-.13-.02-.26-.02-.38,0-1.68.67-3.21,1.75-4.34h.22Z"/><path class="cls-23" d="m389.03,494.34v1.96h-5.22v-.22c1.14-1.08,2.68-1.74,4.37-1.74h.85Z"/><rect class="cls-18" x="383.81" y="496.29" width="5.22" height="4.72"/><rect class="cls-18" x="389.03" y="494.34" width="5.22" height="1.96"/><rect class="cls-23" x="389.03" y="496.29" width="5.22" height="4.72"/><rect class="cls-23" x="394.25" y="494.34" width="5.22" height="1.96"/><rect class="cls-18" x="394.25" y="496.29" width="5.22" height="4.72"/><rect class="cls-18" x="399.47" y="494.34" width="5.22" height="1.96"/><rect class="cls-23" x="399.47" y="496.29" width="5.22" height="4.72"/><rect class="cls-23" x="404.69" y="494.34" width="5.22" height="1.96"/><rect class="cls-18" x="404.68" y="496.29" width="5.22" height="4.72"/><rect class="cls-18" x="409.9" y="494.34" width="5.22" height="1.96"/><rect class="cls-23" x="409.9" y="496.29" width="5.22" height="4.72"/><rect class="cls-23" x="415.12" y="494.34" width="5.22" height="1.96"/><rect class="cls-18" x="415.12" y="496.29" width="5.22" height="4.72"/><rect class="cls-18" x="420.33" y="494.34" width="5.22" height="1.96"/><rect class="cls-23" x="420.34" y="496.29" width="5.22" height="4.72"/><rect class="cls-23" x="425.55" y="494.34" width="5.22" height="1.96"/><rect class="cls-18" x="425.55" y="496.29" width="5.22" height="4.72"/><rect class="cls-18" x="430.77" y="494.34" width="5.22" height="1.96"/><rect class="cls-23" x="430.77" y="496.29" width="5.22" height="4.72"/><rect class="cls-23" x="435.99" y="494.34" width="5.22" height="1.96"/><rect class="cls-18" x="435.99" y="496.29" width="5.22" height="4.72"/><rect class="cls-18" x="441.21" y="494.34" width="5.22" height="1.96"/><rect class="cls-23" x="441.21" y="496.29" width="5.22" height="4.72"/><rect class="cls-23" x="457.09" y="500.83" width="5.22" height="4.72"/><rect class="cls-18" x="457.09" y="505.55" width="5.22" height="1.39"/><rect class="cls-18" x="462.31" y="500.83" width="5.22" height="4.72"/><rect class="cls-23" x="462.31" y="505.55" width="5.22" height="1.39"/><rect class="cls-23" x="467.53" y="500.83" width="5.22" height="4.72"/><rect class="cls-18" x="467.53" y="505.55" width="5.22" height="1.39"/><rect class="cls-18" x="472.75" y="500.83" width="5.22" height="4.72"/><rect class="cls-23" x="472.75" y="505.55" width="5.22" height="1.39"/><rect class="cls-23" x="477.96" y="500.83" width="5.22" height="4.72"/><rect class="cls-18" x="477.96" y="505.55" width="5.22" height="1.39"/><rect class="cls-18" x="483.18" y="500.83" width="5.22" height="4.72"/><rect class="cls-23" x="483.18" y="505.55" width="5.22" height="1.39"/><rect class="cls-23" x="488.4" y="500.83" width="5.22" height="4.72"/><path class="cls-18" d="m493.62,505.55v1.25c-.43.09-.87.14-1.32.14h-3.9v-1.39h5.22Z"/><rect class="cls-18" x="493.62" y="500.82" width="5.22" height="4.72"/><path class="cls-23" d="m496.25,505.55c-.76.6-1.65,1.04-2.64,1.25v-1.25h2.64Z"/><rect class="cls-23" x="447.09" y="500.83" width="5.22" height="4.72"/><rect class="cls-18" x="447.09" y="505.55" width="5.22" height="1.39"/><rect class="cls-18" x="452.31" y="500.83" width="5.22" height="4.72"/><rect class="cls-23" x="452.31" y="505.55" width="5.22" height="1.39"/><rect class="cls-18" x="456.67" y="496.48" width="5.22" height="4.72"/><rect class="cls-18" x="461.89" y="494.34" width="5.22" height="2.15"/><rect class="cls-23" x="461.89" y="496.48" width="5.22" height="4.72"/><rect class="cls-23" x="467.11" y="494.34" width="5.22" height="2.15"/><rect class="cls-18" x="467.11" y="496.48" width="5.22" height="4.72"/><rect class="cls-18" x="472.32" y="494.34" width="5.22" height="2.15"/><rect class="cls-23" x="472.32" y="496.48" width="5.22" height="4.72"/><rect class="cls-23" x="477.54" y="494.34" width="5.22" height="2.15"/><rect class="cls-18" x="477.54" y="496.48" width="5.22" height="4.72"/><rect class="cls-18" x="482.76" y="494.34" width="5.22" height="2.15"/><rect class="cls-23" x="482.76" y="496.48" width="5.22" height="4.72"/><path class="cls-23" d="m493.19,494.4v2.08h-5.22v-2.15h4.32c.31,0,.61.02.9.06Z"/><rect class="cls-18" x="487.98" y="496.48" width="5.22" height="4.72"/><path class="cls-18" d="m497.06,496.48h-3.86v-2.08c1.53.22,2.89.98,3.86,2.08Z"/><path class="cls-1" d="m498.41,496.48v2.49c-.26-.93-.73-1.78-1.35-2.49h1.35Z"/><path class="cls-23" d="m498.41,498.97v2.24h-5.22v-4.72h3.86c.62.71,1.09,1.55,1.35,2.49Z"/><rect class="cls-23" x="446.67" y="494.34" width="5.22" height="2.15"/><rect class="cls-18" x="446.67" y="496.48" width="5.22" height="4.72"/><rect class="cls-23" x="451.89" y="496.48" width="5.22" height="4.72"/><path class="cls-18" d="m498.83,500.82v.38h-.42v-2.24c.15.53.23,1.09.23,1.66,0,.06,0,.13,0,.19h.2Z"/><path class="cls-7" d="m498.61,501.21c-.14,1.51-.81,2.86-1.83,3.88-.16.16-.34.32-.52.46-.76.6-1.65,1.04-2.64,1.25-.43.09-.87.14-1.32.14h-104.12c-1.49,0-2.85-.51-3.94-1.37-.08-.06-.16-.13-.24-.2-1.23-1.08-2.04-2.62-2.14-4.34-.01-.13-.02-.26-.02-.38,0-1.68.67-3.21,1.75-4.34.04-.04.07-.07.11-.11.04-.04.07-.07.12-.11,1.14-1.08,2.68-1.74,4.37-1.74h104.12c.31,0,.61.02.9.06,1.53.22,2.89.98,3.86,2.08.62.71,1.09,1.55,1.35,2.49.15.53.23,1.09.23,1.66"/></g></g><path class="cls-25" d="m227.55,303.74h.33c-.22,0-.44.03-.65.06-1.24.2-35.14.2-36.35.2H10.62c-5.83,0-10.6-2.81-10.6-6.24v-77.42c0-3.43,4.77-6.24,10.6-6.24h180.25c5.83,0,10.6,2.81,10.6,6.24v54.5l30.48,23.77c2.71,2.12.1,5.15-4.42,5.13Z"/><g><path d="m22.84,238.75l3.99,9.93,4.05-9.93h2.38l-6.47,15.4-6.33-15.4h2.38Z"/><path d="m47.66,249.02h-6.56c.07.73.32,1.32.77,1.78.44.45.98.67,1.64.67.96,0,1.75-.6,2.38-1.81l1.81,1c-.2.38-.41.71-.65.99-.23.28-.48.52-.75.71-.89.65-1.86.97-2.91.97-1.22,0-2.32-.48-3.3-1.45-.76.96-1.88,1.45-3.35,1.45-1.11,0-2.01-.28-2.7-.83s-1.04-1.28-1.04-2.18.33-1.66.99-2.23c.67-.57,1.54-.85,2.61-.85.77,0,1.56.2,2.37.61,0-.82-.17-1.39-.51-1.71-.35-.33-.93-.49-1.76-.49s-1.6.11-2.43.34v-1.94c1.08-.19,1.96-.28,2.64-.28,1.48,0,2.55.42,3.2,1.27.82-.85,1.87-1.27,3.18-1.27s2.39.42,3.19,1.27c.8.85,1.2,1.97,1.2,3.37l-.02.59Zm-12.6,1.27c0,.35.17.65.52.88.37.24.81.35,1.33.35.55,0,1.02-.12,1.39-.36.37-.25.56-.55.56-.92,0-.32-.19-.6-.58-.83-.39-.23-.85-.35-1.39-.35-.51,0-.94.12-1.3.36s-.53.53-.53.87Zm10.4-2.96c-.26-1.11-.94-1.66-2.05-1.66s-1.85.55-2.17,1.66h4.21Z"/><path d="m52.02,237.4v15.67h-2.1v-15.67h2.1Z"/><path d="m63.48,252.86c0,.43-.01.8-.04,1.13-.03.32-.07.61-.12.86-.15.68-.44,1.26-.88,1.75-.82.94-1.95,1.41-3.39,1.41-1.21,0-2.21-.32-3-.97-.81-.67-1.28-1.59-1.4-2.77h2.11c.08.45.21.79.4,1.03.44.56,1.07.84,1.91.84,1.54,0,2.31-.94,2.31-2.81v-1.26c-.83.85-1.8,1.27-2.89,1.27-1.24,0-2.25-.45-3.05-1.34-.8-.9-1.2-2.03-1.2-3.39s.37-2.44,1.11-3.36c.8-.98,1.85-1.47,3.16-1.47,1.15,0,2.1.42,2.86,1.27v-1.02h2.1v8.82Zm-2.02-4.29c0-.88-.24-1.58-.71-2.11-.48-.54-1.09-.81-1.84-.81-.8,0-1.43.29-1.89.88-.42.53-.63,1.21-.63,2.04s.21,1.5.63,2.02c.45.58,1.08.86,1.89.86s1.44-.29,1.91-.87c.43-.53.64-1.2.64-2.02Z"/><path d="m72.04,237.4h2.1v7.38c.75-.67,1.57-1,2.48-1,1.03,0,1.85.33,2.47.99.52.58.79,1.49.79,2.76v5.54h-2.1v-5.34c0-.72-.13-1.25-.39-1.57-.26-.33-.67-.49-1.25-.49-.73,0-1.25.23-1.55.68-.29.46-.44,1.24-.44,2.36v4.37h-2.1v-15.67Z"/><path d="m83.67,244.04l2.35,5.07,2.35-5.07h2.36l-4.73,9.66-4.69-9.66h2.35Z"/><path d="m91.83,240.28c0-.36.13-.68.4-.95.27-.27.59-.4.96-.4s.7.13.97.4c.27.26.4.58.4.96s-.13.7-.4.96c-.26.27-.58.4-.96.4s-.7-.13-.97-.4c-.27-.27-.4-.59-.4-.97Zm2.42,3.76v9.04h-2.1v-9.04h2.1Z"/><path d="m99.02,237.4v15.67h-2.1v-15.67h2.1Z"/><path d="m103.78,237.4v9.56l2.96-2.92h2.82l-3.95,3.79,4.24,5.24h-2.73l-3.01-3.81-.34.33v3.48h-2.1v-15.67h2.1Z"/><path d="m119.19,249.05h-6.52c.06.74.3,1.33.73,1.77.43.43.98.65,1.65.65.52,0,.96-.12,1.3-.37.34-.25.72-.71,1.15-1.37l1.77.98c-.27.46-.56.86-.87,1.19-.31.33-.63.6-.98.82-.35.21-.73.37-1.13.47-.4.1-.84.15-1.32.15-1.36,0-2.45-.43-3.27-1.3-.82-.87-1.23-2.03-1.23-3.47s.4-2.58,1.2-3.47c.8-.87,1.87-1.31,3.2-1.31s2.4.42,3.18,1.27c.77.84,1.16,2.01,1.16,3.5v.49Zm-2.17-1.71c-.29-1.11-1-1.67-2.12-1.67-.26,0-.5.04-.72.12-.22.08-.43.19-.61.33-.18.15-.34.32-.47.52s-.23.44-.3.7h4.22Z"/><path d="m121.49,244.04h2.11v.83c.73-.72,1.56-1.09,2.49-1.09,1.06,0,1.88.33,2.48.99.51.56.77,1.48.77,2.76v5.54h-2.11v-5.05c0-.89-.12-1.51-.37-1.85-.24-.35-.69-.52-1.33-.52-.7,0-1.19.23-1.49.69-.29.45-.43,1.24-.43,2.37v4.36h-2.11v-9.04Z"/><path d="m144.59,244.04h2.11v9.04h-2.11v-.95c-.87.8-1.8,1.21-2.79,1.21-1.26,0-2.3-.45-3.12-1.35-.82-.92-1.22-2.07-1.22-3.45s.41-2.48,1.22-3.39c.82-.9,1.84-1.35,3.06-1.35,1.06,0,2.01.43,2.85,1.3v-1.05Zm-4.99,4.49c0,.87.23,1.57.7,2.12.48.55,1.08.83,1.81.83.78,0,1.41-.27,1.89-.8.48-.55.72-1.25.72-2.1s-.24-1.55-.72-2.1c-.48-.54-1.1-.81-1.87-.81-.72,0-1.33.27-1.81.82-.48.55-.72,1.23-.72,2.04Zm.72-7.93c0-.54.2-1.01.6-1.4.4-.4.88-.59,1.43-.59s1.05.2,1.44.59c.4.4.6.87.6,1.43s-.2,1.03-.6,1.43c-.39.4-.87.59-1.43.59s-1.05-.2-1.45-.59c-.39-.4-.59-.88-.59-1.46Zm1.11.02c0,.27.09.49.27.66.18.18.4.26.66.26s.48-.09.66-.26c.18-.18.27-.39.27-.65s-.09-.48-.27-.65c-.18-.18-.4-.26-.66-.26-.13,0-.25.02-.36.07-.11.05-.21.12-.29.2-.08.08-.15.18-.2.29s-.07.23-.07.34Z"/><path d="m149.36,244.04h2.1v.81c.39-.4.73-.68,1.03-.83.3-.15.67-.23,1.08-.23.55,0,1.13.18,1.74.54l-.96,1.91c-.4-.28-.79-.43-1.17-.43-1.15,0-1.72.86-1.72,2.58v4.69h-2.1v-9.04Z"/><path d="m161.81,245.58l-1.74.92c-.27-.56-.61-.83-1.02-.83-.19,0-.36.06-.5.19-.14.13-.21.29-.21.49,0,.35.4.69,1.21,1.03,1.12.48,1.87.92,2.25,1.32.39.4.58.94.58,1.62,0,.87-.32,1.6-.97,2.19-.63.56-1.39.83-2.28.83-1.53,0-2.61-.74-3.24-2.22l1.79-.83c.25.43.44.71.57.83.26.24.56.35.92.35.71,0,1.06-.32,1.06-.96,0-.37-.27-.72-.82-1.04-.21-.1-.42-.21-.64-.31-.21-.1-.43-.2-.64-.31-.61-.3-1.04-.59-1.29-.89-.32-.38-.48-.86-.48-1.46,0-.79.27-1.43.81-1.95.55-.51,1.23-.77,2.02-.77,1.16,0,2.03.6,2.6,1.79Z"/><path d="m166.45,245.98v7.09h-2.1v-7.09h-.9v-1.95h.9v-3.31h2.1v3.31h1.63v1.95h-1.63Z"/><path d="m169.2,240.28c0-.36.13-.68.4-.95.27-.27.59-.4.96-.4s.7.13.97.4c.27.26.4.58.4.96s-.13.7-.4.96c-.26.27-.58.4-.96.4s-.7-.13-.97-.4c-.27-.27-.4-.59-.4-.97Zm2.42,3.76v9.04h-2.1v-9.04h2.1Z"/><path d="m180.99,237.4h2.11v15.67h-2.11v-.95c-.83.8-1.77,1.21-2.81,1.21-1.25,0-2.28-.45-3.1-1.35-.82-.92-1.22-2.07-1.22-3.45s.41-2.47,1.22-3.38c.81-.91,1.83-1.36,3.06-1.36,1.06,0,2.02.43,2.86,1.3v-7.68Zm-4.99,11.12c0,.87.23,1.57.7,2.12.48.55,1.08.83,1.81.83.78,0,1.41-.27,1.89-.8.48-.55.72-1.25.72-2.1s-.24-1.55-.72-2.1c-.48-.54-1.1-.81-1.87-.81-.72,0-1.33.27-1.81.82-.48.55-.72,1.23-.72,2.04Z"/><path d="m28.42,260.2h2.11v15.67h-2.11v-.95c-.83.8-1.77,1.21-2.81,1.21-1.25,0-2.28-.45-3.1-1.35-.82-.92-1.22-2.07-1.22-3.45s.41-2.47,1.22-3.38c.81-.91,1.83-1.36,3.06-1.36,1.06,0,2.02.43,2.86,1.3v-7.68Zm-4.99,11.12c0,.87.23,1.57.7,2.12.48.55,1.08.83,1.81.83.78,0,1.41-.27,1.89-.8.48-.55.72-1.25.72-2.1s-.24-1.55-.72-2.1c-.48-.54-1.1-.81-1.87-.81-.72,0-1.33.27-1.81.82-.48.55-.72,1.23-.72,2.04Z"/><path d="m35.29,266.84v5.19c0,1.5.59,2.25,1.78,2.25s1.78-.75,1.78-2.25v-5.19h2.1v5.23c0,.72-.09,1.35-.27,1.87-.17.47-.48.89-.91,1.27-.71.61-1.61.92-2.71.92s-1.99-.31-2.7-.92c-.44-.38-.74-.8-.92-1.27-.17-.42-.26-1.04-.26-1.87v-5.23h2.1Z"/><path d="m50.65,266.84l2.35,5.07,2.35-5.07h2.36l-4.73,9.66-4.69-9.66h2.35Z"/><path d="m58.81,263.08c0-.36.13-.68.4-.95.27-.27.59-.4.96-.4s.7.13.97.4c.27.26.4.58.4.96s-.13.7-.4.96c-.26.27-.58.4-.96.4s-.7-.13-.97-.4c-.27-.27-.4-.59-.4-.97Zm2.42,3.76v9.04h-2.1v-9.04h2.1Z"/><path d="m66,260.2v15.67h-2.1v-15.67h2.1Z"/><path d="m79.85,268.38l-1.74.92c-.27-.56-.61-.83-1.02-.83-.19,0-.36.06-.5.19-.14.13-.21.29-.21.49,0,.35.4.69,1.21,1.03,1.12.48,1.87.92,2.25,1.32.39.4.58.94.58,1.62,0,.87-.32,1.6-.97,2.19-.63.56-1.39.83-2.28.83-1.53,0-2.61-.74-3.24-2.22l1.79-.83c.25.43.44.71.57.83.26.24.56.35.92.35.71,0,1.06-.32,1.06-.96,0-.37-.27-.72-.82-1.04-.21-.1-.42-.21-.64-.31-.21-.1-.43-.2-.64-.31-.61-.3-1.04-.59-1.29-.89-.32-.38-.48-.86-.48-1.46,0-.79.27-1.43.81-1.95.55-.51,1.23-.77,2.02-.77,1.16,0,2.03.6,2.6,1.79Z"/><path d="m89.04,266.84h2.11v9.04h-2.11v-.95c-.87.8-1.8,1.21-2.79,1.21-1.26,0-2.3-.45-3.12-1.35-.82-.92-1.22-2.07-1.22-3.45s.41-2.48,1.22-3.39c.82-.9,1.84-1.35,3.06-1.35,1.06,0,2.01.43,2.85,1.3v-1.05Zm-4.99,4.49c0,.87.23,1.57.7,2.12.48.55,1.08.83,1.81.83.78,0,1.41-.27,1.89-.8.48-.55.72-1.25.72-2.1s-.24-1.55-.72-2.1c-.48-.54-1.1-.81-1.87-.81-.72,0-1.33.27-1.81.82-.48.55-.72,1.23-.72,2.04Z"/><path d="m93.8,266.84h2.11v.83c.73-.72,1.56-1.09,2.49-1.09,1.06,0,1.88.33,2.48.99.51.56.77,1.48.77,2.76v5.54h-2.11v-5.05c0-.89-.12-1.51-.37-1.85-.24-.35-.69-.52-1.33-.52-.7,0-1.19.23-1.49.69-.29.45-.43,1.24-.43,2.37v4.36h-2.11v-9.04Z"/><path d="m106.4,260.2v9.56l2.96-2.92h2.82l-3.95,3.79,4.24,5.24h-2.73l-3.01-3.81-.34.33v3.48h-2.1v-15.67h2.1Z"/><path d="m121.81,271.85h-6.52c.06.74.3,1.33.73,1.77.43.43.98.65,1.65.65.52,0,.96-.12,1.3-.37.34-.25.72-.71,1.15-1.37l1.77.98c-.27.46-.56.86-.87,1.19-.31.33-.63.6-.98.82-.35.21-.73.37-1.13.47-.4.1-.84.15-1.32.15-1.36,0-2.45-.43-3.27-1.3-.82-.87-1.23-2.03-1.23-3.47s.4-2.58,1.2-3.47c.8-.87,1.87-1.31,3.2-1.31s2.4.42,3.18,1.27c.77.84,1.16,2.01,1.16,3.5v.49Zm-2.17-1.71c-.29-1.11-1-1.67-2.12-1.67-.26,0-.5.04-.72.12-.22.08-.43.19-.61.33-.18.15-.34.32-.47.52s-.23.44-.3.7h4.22Z"/><path d="m129.69,263.08c0-.36.13-.68.4-.95.27-.27.59-.4.96-.4s.7.13.97.4c.27.26.4.58.4.96s-.13.7-.4.96c-.26.27-.58.4-.96.4s-.7-.13-.97-.4c-.27-.27-.4-.59-.4-.97Zm2.42,3.76v9.04h-2.1v-9.04h2.1Z"/></g></g></svg>