<?xml version="1.0" encoding="UTF-8"?><svg xmlns="http://www.w3.org/2000/svg" width="448" height="525" xmlns:xlink="http://www.w3.org/1999/xlink" viewBox="0 0 448 525"><defs><style>.cls-1,.cls-2,.cls-3,.cls-4,.cls-5,.cls-6,.cls-7,.cls-8,.cls-9,.cls-10,.cls-11{fill:none;}.cls-12{fill:url(#linear-gradient);}.cls-13{fill:#02b6af;}.cls-14{fill:#000621;}.cls-15{fill:#f0f0f0;}.cls-16{fill:#ffdfc5;}.cls-17{fill:#e7a43f;}.cls-18,.cls-19{fill:#fff;}.cls-20,.cls-21,.cls-22{fill:#ffccc6;}.cls-23{fill:red;}.cls-24{fill:#e4e4e4;}.cls-25{fill:#89ece9;}.cls-26{fill:#cab095;}.cls-27{fill:#cbcbcb;}.cls-28{fill:#d37100;}.cls-29{fill:#13d5cc;}.cls-30{fill:#495315;}.cls-31{fill:#7c4a1a;}.cls-32{fill:#00009f;}.cls-32,.cls-33,.cls-34,.cls-35,.cls-21,.cls-3,.cls-36,.cls-4,.cls-19,.cls-37,.cls-6,.cls-7,.cls-8,.cls-9,.cls-10,.cls-11,.cls-38,.cls-39,.cls-40,.cls-41{stroke-miterlimit:10;}.cls-32,.cls-2,.cls-37{stroke-width:2.66px;}.cls-32,.cls-37,.cls-8{stroke:#000;}.cls-33{stroke-width:.8px;}.cls-33,.cls-36{fill:#00ff82;}.cls-33,.cls-36,.cls-10{stroke:#666;}.cls-2,.cls-3,.cls-5{stroke-linecap:round;}.cls-2,.cls-5{stroke-linejoin:round;}.cls-2,.cls-6{stroke:#673606;}.cls-34{fill:#cd9965;}.cls-34,.cls-3,.cls-7,.cls-8,.cls-9{stroke-width:1.77px;}.cls-34,.cls-7{stroke:#7c4a1a;}.cls-35{fill:#00a14c;stroke:#00943a;}.cls-35,.cls-21,.cls-6{stroke-width:.89px;}.cls-21{stroke:#ffccc6;}.cls-3,.cls-19,.cls-9,.cls-11{stroke:#000046;}.cls-36,.cls-10{stroke-width:.66px;}.cls-4{stroke-width:.27px;}.cls-4,.cls-5{stroke:#ad7a4a;}.cls-19,.cls-11{stroke-width:3.54px;}.cls-42{opacity:.25;}.cls-5{stroke-width:.44px;}.cls-38{fill:#fff598;}.cls-38,.cls-39,.cls-40,.cls-41{stroke:#999;stroke-width:.17px;}.cls-39{fill:#eea6ee;}.cls-22{opacity:.45;}.cls-43{fill:#facaaa;opacity:.63;}.cls-40{fill:#82d864;}.cls-41{fill:#3d93e3;}</style><linearGradient id="linear-gradient" x1="301.09" y1="488.08" x2="340.42" y2="488.08" gradientTransform="translate(-86.84 -12.41) rotate(-9.48)" gradientUnits="userSpaceOnUse"><stop offset="0" stop-color="#7ac710"/><stop offset="1" stop-color="#ff0006"/></linearGradient></defs><g id="Layer_3"><g><path class="cls-41" d="m165.65,288.71s-128.97-3.47-42.83-146.77c0,0,149.46,27.05,92.87,119.72"/><g><line class="cls-36" x1="157.19" y1="217.71" x2="163.57" y2="194.28"/><line class="cls-36" x1="132.51" y1="208.82" x2="157.19" y2="217.71"/><polyline class="cls-10" points="189.34 220.72 178.39 260.4 137.13 177.1"/><line class="cls-10" x1="137.13" y1="242.53" x2="178.39" y2="260.4"/></g><path class="cls-41" d="m165.65,288.71s28.23,6.44,34.18,2.48c5.95-3.97,15.87-29.54,15.87-29.54"/></g><g><path class="cls-41" d="m152.24,334.18s-91.39,91.07-135.87-70.11c0,0,122.6-89.67,150.75,15.2"/><g><line class="cls-33" x1="94.95" y1="291.38" x2="82.37" y2="270.62"/><line class="cls-33" x1="71.5" y1="303.14" x2="94.95" y2="291.38"/><polyline class="cls-10" points="119.29 270.16 140.5 305.44 51.7 277.93"/><line class="cls-10" x1="99.11" y1="323.02" x2="140.5" y2="305.44"/></g><path class="cls-41" d="m152.24,334.18s24.12-16.02,25.35-23.06-10.47-31.85-10.47-31.85"/></g><g><path class="cls-40" d="m213.63,259.71s-75.61-104.54,90.55-123.2c0,0,69.33,135.14-38.65,146.5"/><g><line class="cls-33" x1="264.88" y1="209.85" x2="287.36" y2="200.68"/><line class="cls-33" x1="256.94" y1="184.85" x2="264.88" y2="209.85"/><polyline class="cls-10" points="282.03 237.21 243.85 252.63 284.94 169.24"/><line class="cls-10" x1="232.98" y1="209" x2="243.85" y2="252.63"/></g><path class="cls-40" d="m213.63,259.71s12.04,26.33,18.8,28.65c6.76,2.31,33.1-5.34,33.1-5.34"/></g><g><path class="cls-40" d="m271.73,265.03s20.92-127.31,151.22-22.54c0,0-47.06,144.42-131.2,75.79"/><g><line class="cls-33" x1="343.23" y1="266.27" x2="365.57" y2="275.76"/><line class="cls-33" x1="355.38" y1="243.01" x2="343.23" y2="266.27"/><polyline class="cls-10" points="335.89 297.71 298.06 281.48 386.18 251.9"/><line class="cls-10" x1="321.36" y1="243.03" x2="298.06" y2="281.48"/></g><path class="cls-40" d="m271.73,265.03s-10.21,27.1-7.09,33.53c3.12,6.43,27.11,19.72,27.11,19.72"/></g></g><g id="Layer_1"><path class="cls-16" d="m146.72,415.52l11.04-72.59h-16.42c-7.51,0-13.65,6.69-13.65,14.88l-10.66,57.71h29.68Z"/><rect class="cls-30" x="164.83" y="280.08" width="117.74" height="160.23"/><ellipse class="cls-32" cx="231.19" cy="225.78" rx="16.51" ry="16.82"/><ellipse class="cls-37" cx="231.19" cy="225.78" rx="16.51" ry="16.82"/><rect class="cls-31" x="102.87" y="42.84" width="234.85" height="97.38" rx="35.41" ry="35.41"/><rect class="cls-16" x="125.23" y="55.23" width="196.52" height="196.52" rx="84.1" ry="84.1"/><path class="cls-16" d="m129,121.62h2.1c7.38,0,13.37,5.99,13.37,13.37v37.51c0,7.58-6.16,13.74-13.74,13.74h0c-18.31,0-33.18-14.87-33.18-33.18h0c0-17.36,14.09-31.45,31.45-31.45Z"/><path class="cls-22" d="m119.52,141.98h0c2.54,0,4.6,2.06,4.6,4.6v24.45c0,2.54-2.06,4.6-4.6,4.6h0c-7.24,0-13.11-5.87-13.11-13.11v-7.42c0-7.24,5.87-13.11,13.11-13.11Z"/><path class="cls-43" d="m122.79,156.15h1.33v13.28h-1.33c-3.66,0-6.64-2.97-6.64-6.64h0c0-3.66,2.98-6.64,6.64-6.64Z"/><path class="cls-16" d="m322.83,124.28h0c7.58,0,13.74,6.16,13.74,13.74v37.51c0,7.38-5.99,13.37-13.37,13.37h-2.1c-17.36,0-31.45-14.09-31.45-31.45h0c0-18.31,14.87-33.18,33.18-33.18Z" transform="translate(626.23 313.18) rotate(-180)"/><path class="cls-22" d="m323.12,144.64h0c2.54,0,4.6,2.06,4.6,4.6v24.45c0,2.54-2.06,4.6-4.6,4.6h0c-7.24,0-13.11-5.87-13.11-13.11v-7.42c0-7.24,5.87-13.11,13.11-13.11Z" transform="translate(637.73 322.92) rotate(-180)"/><path class="cls-43" d="m316.65,158.8h1.33v13.28h-1.33c-3.66,0-6.64-2.98-6.64-6.64h0c0-3.66,2.97-6.64,6.64-6.64Z" transform="translate(628 330.89) rotate(180)"/><rect class="cls-16" x="207.99" y="251.75" width="31.87" height="37.18"/><path class="cls-21" d="m222.65,186.69h-7.92c-5,0-8.13-6.43-5.63-11.57l3.96-8.14,3.96-8.14c2.5-5.14,8.75-5.14,11.25,0l3.96,8.14,3.96,8.14c2.5,5.14-.63,11.57-5.63,11.57h-7.92Z"/><path class="cls-9" d="m214.41,140.21h17.7"/><g><g><circle class="cls-19" cx="179.49" cy="139.33" r="13.26"/><circle class="cls-24" cx="179.74" cy="139.37" r="24.35"/><ellipse class="cls-15" cx="179.74" cy="139.54" rx="24.35" ry="20.87"/><circle class="cls-24" cx="179.57" cy="139.37" r="15.31"/><circle class="cls-9" cx="178.73" cy="139.3" r="35.39"/><circle class="cls-13" cx="179.66" cy="139.33" r="13.26"/><circle class="cls-29" cx="180.06" cy="139.48" r="10.18"/><circle class="cls-25" cx="180.06" cy="139.48" r="7.86"/><circle class="cls-11" cx="179.66" cy="139.33" r="13.26"/><path class="cls-29" d="m181.97,134.05l1.34-2.14c.13-.21.45-.06.38.18l-.78,2.4c-.07.21.19.36.34.22l1.83-1.74c.18-.17.45.06.32.26l-1.35,2.13c-.12.18.09.4.28.29l2.21-1.23c.21-.12.42.17.24.33l-1.84,1.73c-.16.15-.01.41.2.35l2.44-.64c.24-.06.37.27.15.38l-2.21,1.22c-.19.1-.11.39.1.39h2.52c.25-.01.29.34.05.4l-2.44.63c-.21.05-.21.35,0,.4l2.45.62c.24.06.19.41-.05.41h-2.52c-.22,0-.29.29-.1.39l2.22,1.21c.22.12.09.45-.15.39l-2.45-.63c-.21-.05-.35.21-.19.35l1.85,1.72c.18.17-.03.45-.24.34l-2.21-1.21c-.19-.1-.39.11-.28.3l1.36,2.12c.13.21-.14.43-.32.26l-1.84-1.73c-.16-.15-.41.01-.34.22l.79,2.4c.08.23-.24.38-.37.18l-1.35-2.13c-.12-.18-.4-.09-.38.13l.17,2.52c.02.25-.33.31-.41.08l-.78-2.4c-.07-.21-.36-.19-.4.03l-.46,2.48c-.04.24-.4.22-.41-.02l-.16-2.52c-.01-.22-.31-.27-.4-.07l-1.06,2.29c-.1.22-.44.11-.39-.13l.47-2.48c.04-.21-.23-.34-.37-.17l-1.6,1.95c-.16.19-.45,0-.35-.22l1.07-2.29c.09-.2-.14-.38-.31-.26l-2.03,1.49c-.2.15-.44-.11-.28-.3l1.61-1.95c.14-.17-.04-.41-.24-.33l-2.34.94c-.23.09-.4-.22-.2-.36l2.04-1.49c.17-.13.06-.4-.15-.38l-2.5.33c-.24.03-.33-.31-.1-.4l2.35-.93c.2-.08.16-.37-.05-.4l-2.51-.3c-.24-.03-.24-.38,0-.41l2.5-.32c.21-.03.25-.32.05-.4l-2.35-.92c-.23-.09-.14-.43.1-.4l2.5.31c.21.03.32-.25.15-.38l-2.05-1.47c-.2-.14-.03-.45.2-.36l2.35.93c.2.08.38-.16.24-.33l-1.62-1.94c-.16-.19.08-.45.28-.3l2.04,1.48c.17.13.4-.06.31-.26l-1.09-2.28c-.11-.22.19-.41.35-.22l1.61,1.94c.14.17.41.04.37-.17l-.49-2.48c-.05-.24.29-.35.39-.13l1.08,2.28c.09.2.38.14.4-.08l.15-2.52c.01-.25.37-.27.41-.03l.48,2.48c.04.21.34.23.4.02l.77-2.4c.07-.23.42-.17.41.08l-.16,2.52c-.01.22.27.31.38.12Z"/><path class="cls-13" d="m182.75,133.85l1.58-2.01c.17-.22.52-.01.41.24l-1.04,2.34c-.1.23.17.44.36.29l2.03-1.56c.22-.17.51.12.33.34l-1.59,2.01c-.15.19.05.46.28.37l2.35-1c.26-.11.46.24.24.41l-2.04,1.55c-.2.15-.06.46.18.43l2.53-.39c.28-.04.39.35.13.46l-2.36.99c-.23.1-.18.43.07.46l2.55.26c.28.03.29.43.01.47l-2.53.38c-.24.04-.28.37-.05.46l2.4.88c.26.1.17.49-.11.46l-2.54-.27c-.25-.03-.36.29-.16.43l2.11,1.45c.23.16.05.52-.22.42l-2.4-.89c-.23-.09-.42.19-.26.38l1.68,1.93c.18.21-.08.51-.32.35l-2.1-1.46c-.2-.14-.46.08-.35.3l1.15,2.29c.13.25-.21.47-.39.26l-1.67-1.94c-.16-.19-.47-.03-.41.21l.54,2.5c.06.27-.32.41-.45.16l-1.14-2.29c-.11-.22-.44-.15-.45.1l-.1,2.56c-.01.28-.41.32-.47.04l-.53-2.5c-.05-.24-.39-.25-.46-.02l-.73,2.45c-.08.27-.48.2-.47-.08l.11-2.56c.01-.25-.32-.34-.44-.13l-1.32,2.19c-.14.24-.51.08-.43-.19l.74-2.45c.07-.24-.22-.41-.4-.24l-1.82,1.8c-.2.2-.52-.05-.37-.29l1.32-2.19c.13-.21-.11-.45-.32-.33l-2.21,1.29c-.24.14-.49-.18-.29-.38l1.83-1.79c.18-.17,0-.47-.23-.4l-2.46.7c-.27.08-.43-.29-.18-.44l2.21-1.28c.21-.12.12-.45-.13-.44l-2.56.07c-.28,0-.34-.39-.07-.47l2.46-.69c.24-.07.23-.41-.01-.46l-2.49-.57c-.27-.06-.23-.46.05-.47l2.56-.06c.25,0,.32-.34.1-.45l-2.27-1.17c-.25-.13-.11-.51.16-.44l2.49.58c.24.06.4-.25.21-.41l-1.91-1.7c-.21-.19.02-.52.27-.39l2.27,1.18c.22.11.45-.14.31-.34l-1.43-2.12c-.16-.23.15-.5.36-.31l1.9,1.71c.18.17.47-.02.38-.26l-.85-2.41c-.09-.26.27-.44.42-.21l1.42,2.13c.14.21.46.09.44-.15l-.23-2.55c-.02-.28.37-.36.46-.1l.84,2.42c.08.23.42.2.46-.04l.42-2.52c.05-.28.45-.26.47.02l.22,2.55c.02.25.36.3.46.08l1.03-2.34c.11-.26.5-.14.45.14l-.42,2.52c-.04.24.27.38.42.19Z"/><circle class="cls-14" cx="180.01" cy="139.33" r="4.91"/><path class="cls-18" d="m164,148.21c-5.98-3.83-6.19-13.55-.4-17.66,0,0,.64.59.64.59-.38.68-.74,1.35-1.05,2.03-1.5,3.28-1.89,7.05-.68,10.48.47,1.37,1.18,2.67,2.08,3.92l-.59.64h0Z"/><path class="cls-18" d="m195.42,148.24c5.98-3.83,6.19-13.55.4-17.66,0,0-.64.59-.64.59.38.68.74,1.35,1.05,2.03,1.5,3.28,1.89,7.05.68,10.48-.47,1.37-1.18,2.67-2.08,3.92l.59.64h0Z"/><circle class="cls-18" cx="172.09" cy="128.41" r="2.43"/><circle class="cls-18" cx="184.09" cy="142.85" r="1.39"/></g><line class="cls-3" x1="143.34" y1="134.02" x2="125.64" y2="118.97"/><g><circle class="cls-19" cx="266.54" cy="139.33" r="13.26"/><circle class="cls-24" cx="266.29" cy="139.37" r="24.35"/><ellipse class="cls-15" cx="266.29" cy="139.54" rx="24.35" ry="20.87"/><circle class="cls-24" cx="266.46" cy="139.37" r="15.31"/><circle class="cls-9" cx="267.3" cy="139.3" r="35.39"/><circle class="cls-13" cx="266.37" cy="139.33" r="13.26"/><circle class="cls-29" cx="265.98" cy="139.48" r="10.18"/><circle class="cls-25" cx="265.98" cy="139.48" r="7.86"/><circle class="cls-11" cx="266.37" cy="139.33" r="13.26"/><path class="cls-29" d="m264.07,134.05l-1.34-2.14c-.13-.21-.45-.06-.38.18l.78,2.4c.07.21-.19.36-.34.22l-1.83-1.74c-.18-.17-.45.06-.32.26l1.35,2.13c.12.18-.09.4-.28.29l-2.21-1.23c-.21-.12-.42.17-.24.33l1.84,1.73c.16.15.01.41-.2.35l-2.44-.64c-.24-.06-.37.27-.15.38l2.21,1.22c.19.1.11.39-.1.39h-2.52c-.25-.01-.29.34-.05.4l2.44.63c.21.05.21.35,0,.4l-2.45.62c-.24.06-.19.41.05.41h2.52c.22,0,.29.29.1.39l-2.22,1.21c-.22.12-.09.45.15.39l2.45-.63c.21-.05.35.21.19.35l-1.85,1.72c-.18.17.03.45.24.34l2.21-1.21c.19-.1.39.11.28.3l-1.36,2.12c-.13.21.14.43.32.26l1.84-1.73c.16-.15.41.01.34.22l-.79,2.4c-.08.23.24.38.37.18l1.35-2.13c.12-.18.4-.09.38.13l-.17,2.52c-.02.25.33.31.41.08l.78-2.4c.07-.21.36-.19.4.03l.46,2.48c.04.24.4.22.41-.02l.16-2.52c.01-.22.31-.27.4-.07l1.06,2.29c.1.22.44.11.39-.13l-.47-2.48c-.04-.21.23-.34.37-.17l1.6,1.95c.16.19.45,0,.35-.22l-1.07-2.29c-.09-.2.14-.38.31-.26l2.03,1.49c.2.15.44-.11.28-.3l-1.61-1.95c-.14-.17.04-.41.24-.33l2.34.94c.23.09.4-.22.2-.36l-2.04-1.49c-.17-.13-.06-.4.15-.38l2.5.33c.24.03.33-.31.1-.4l-2.35-.93c-.2-.08-.16-.37.05-.4l2.51-.3c.24-.03.24-.38,0-.41l-2.5-.32c-.21-.03-.25-.32-.05-.4l2.35-.92c.23-.09.14-.43-.1-.4l-2.5.31c-.21.03-.32-.25-.15-.38l2.05-1.47c.2-.14.03-.45-.2-.36l-2.35.93c-.2.08-.38-.16-.24-.33l1.62-1.94c.16-.19-.08-.45-.28-.3l-2.04,1.48c-.17.13-.4-.06-.31-.26l1.09-2.28c.11-.22-.19-.41-.35-.22l-1.61,1.94c-.14.17-.41.04-.37-.17l.49-2.48c.05-.24-.29-.35-.39-.13l-1.08,2.28c-.09.2-.38.14-.4-.08l-.15-2.52c-.01-.25-.37-.27-.41-.03l-.48,2.48c-.04.21-.34.23-.4.02l-.77-2.4c-.07-.23-.42-.17-.41.08l.16,2.52c.01.22-.27.31-.38.12Z"/><path class="cls-13" d="m263.28,133.85l-1.58-2.01c-.17-.22-.52-.01-.41.24l1.04,2.34c.1.23-.17.44-.36.29l-2.03-1.56c-.22-.17-.51.12-.33.34l1.59,2.01c.15.19-.05.46-.28.37l-2.35-1c-.26-.11-.46.24-.24.41l2.04,1.55c.2.15.06.46-.18.43l-2.53-.39c-.28-.04-.39.35-.13.46l2.36.99c.23.1.18.43-.07.46l-2.55.26c-.28.03-.29.43-.01.47l2.53.38c.24.04.28.37.05.46l-2.4.88c-.26.1-.17.49.11.46l2.54-.27c.25-.03.36.29.16.43l-2.11,1.45c-.23.16-.05.52.22.42l2.4-.89c.23-.09.42.19.26.38l-1.68,1.93c-.18.21.08.51.32.35l2.1-1.46c.2-.14.46.08.35.3l-1.15,2.29c-.13.25.21.47.39.26l1.67-1.94c.16-.19.47-.03.41.21l-.54,2.5c-.06.27.32.41.45.16l1.14-2.29c.11-.22.44-.15.45.1l.1,2.56c.01.28.41.32.47.04l.53-2.5c.05-.24.39-.25.46-.02l.73,2.45c.08.27.48.2.47-.08l-.11-2.56c-.01-.25.32-.34.44-.13l1.32,2.19c.14.24.51.08.43-.19l-.74-2.45c-.07-.24.22-.41.4-.24l1.82,1.8c.2.2.52-.05.37-.29l-1.32-2.19c-.13-.21.11-.45.32-.33l2.21,1.29c.24.14.49-.18.29-.38l-1.83-1.79c-.18-.17,0-.47.23-.4l2.46.7c.27.08.43-.29.18-.44l-2.21-1.28c-.21-.12-.12-.45.13-.44l2.56.07c.28,0,.34-.39.07-.47l-2.46-.69c-.24-.07-.23-.41.01-.46l2.49-.57c.27-.06.23-.46-.05-.47l-2.56-.06c-.25,0-.32-.34-.1-.45l2.27-1.17c.25-.13.11-.51-.16-.44l-2.49.58c-.24.06-.4-.25-.21-.41l1.91-1.7c.21-.19-.02-.52-.27-.39l-2.27,1.18c-.22.11-.45-.14-.31-.34l1.43-2.12c.16-.23-.15-.5-.36-.31l-1.9,1.71c-.18.17-.47-.02-.38-.26l.85-2.41c.09-.26-.27-.44-.42-.21l-1.42,2.13c-.14.21-.46.09-.44-.15l.23-2.55c.02-.28-.37-.36-.46-.1l-.84,2.42c-.08.23-.42.2-.46-.04l-.42-2.52c-.05-.28-.45-.26-.47.02l-.22,2.55c-.02.25-.36.3-.46.08l-1.03-2.34c-.11-.26-.5-.14-.45.14l.42,2.52c.04.24-.27.38-.42.19Z"/><circle class="cls-14" cx="266.02" cy="139.33" r="4.91"/><path class="cls-18" d="m282.03,148.21c5.98-3.83,6.19-13.55.4-17.66,0,0-.64.59-.64.59.38.68.74,1.35,1.05,2.03,1.5,3.28,1.89,7.05.68,10.48-.47,1.37-1.18,2.67-2.08,3.92l.59.64h0Z"/><path class="cls-18" d="m250.61,148.24c-5.98-3.83-6.19-13.55-.4-17.66,0,0,.64.59.64.59-.38.68-.74,1.35-1.05,2.03-1.5,3.28-1.89,7.05-.68,10.48.47,1.37,1.18,2.67,2.08,3.92l-.59.64h0Z"/><circle class="cls-18" cx="273.94" cy="128.41" r="2.43"/><circle class="cls-18" cx="261.94" cy="142.85" r="1.39"/></g><path class="cls-9" d="m231.87,140.21h-17.7"/><line class="cls-3" x1="302.69" y1="134.02" x2="320.39" y2="118.97"/></g><rect class="cls-31" x="120.57" y="3" width="159.34" height="70.82" rx="35.41" ry="35.41"/><circle class="cls-31" cx="276.82" cy="55.67" r="41.16"/><path class="cls-27" d="m257.79,204.84v4.57c0,.51-.02,1.02-.04,1.52-.12,1.88-.45,3.7-.96,5.47-3.25,10.93-13.92,19.31-27.12,20.91-1.51.19-3.05.28-4.62.28h-3.54c-17.49,0-31.79-11.81-32.7-26.66-.04-.5-.05-1.01-.05-1.52v-4.57h69.05Z"/><path class="cls-20" d="m256.78,216.4c-3.25,10.93-13.92,19.31-27.12,20.91-.42-1.49-.64-3.05-.64-4.67,0-10.09,8.52-18.28,19.03-18.28,3.15,0,6.12.73,8.73,2.04Z"/><path class="cls-18" d="m257.79,204.84v3.32c0,.37-.02.74-.04,1.11h-68.95c-.04-.37-.05-.74-.05-1.11v-3.32h69.05Z"/><path class="cls-16" d="m263.24,280.08c-6.9,6.8-21.91,11.51-39.32,11.51s-32.42-4.71-39.32-11.51h78.65Z"/><path class="cls-30" d="m158.64,357.98l12.84-77.9h-19.09c-8.73,0-15.87,7.18-15.87,15.96l-12.39,61.94h34.52Z"/></g><g id="Layer_4"><g><path class="cls-38" d="m319.71,318.97s99.89-81.65,128.33,83.11c0,0-130.81,77.19-148.53-29.93"/><g><line class="cls-33" x1="372.52" y1="367.19" x2="383" y2="389.08"/><line class="cls-33" x1="397.01" y1="357.78" x2="372.52" y2="367.19"/><polyline class="cls-10" points="346.22 385.91 328.57 348.72 414.24 384.81"/><line class="cls-10" x1="371.48" y1="335.29" x2="328.57" y2="348.72"/></g><path class="cls-38" d="m319.71,318.97s-25.58,13.57-27.49,20.46c-1.91,6.89,7.29,32.73,7.29,32.73"/></g><g><path class="cls-39" d="m152.13,393.5S126.52,519.95.17,410.43c0,0,52.37-142.58,133.91-70.88"/><g><line class="cls-33" x1="80.73" y1="389.61" x2="58.75" y2="379.31"/><line class="cls-33" x1="67.73" y1="412.4" x2="80.73" y2="389.61"/><polyline class="cls-10" points="89.22 358.47 126.43 376.08 37.27 402.39"/><line class="cls-10" x1="101.72" y1="413.65" x2="126.43" y2="376.08"/></g><path class="cls-39" d="m152.13,393.5s11.2-26.7,8.32-33.24c-2.88-6.54-26.36-20.71-26.36-20.71"/></g><path class="cls-39" d="m215.99,401.76s75.81,104.4-90.32,123.37c0,0-69.59-135.01,38.37-146.57"/><g><line class="cls-33" x1="164.83" y1="451.72" x2="142.37" y2="460.94"/><line class="cls-33" x1="172.82" y1="476.71" x2="164.83" y2="451.72"/><polyline class="cls-10" points="147.64 424.39 185.78 408.91 144.85 492.37"/><line class="cls-10" x1="196.73" y1="452.51" x2="185.78" y2="408.91"/></g><path class="cls-39" d="m215.99,401.76s-12.09-26.31-18.85-28.61c-6.77-2.3-33.09,5.41-33.09,5.41"/><g><path class="cls-38" d="m283.96,373.81s128.72,8.75,36.77,148.41c0,0-148.23-33.16-87.88-123.42"/><g><line class="cls-33" x1="289.5" y1="445.1" x2="282.17" y2="468.24"/><line class="cls-33" x1="313.8" y1="454.99" x2="289.5" y2="445.1"/><polyline class="cls-10" points="257.51 440.77 270.08 401.57 307.88 486.49"/><line class="cls-10" x1="310.56" y1="421.12" x2="270.08" y2="401.57"/></g><path class="cls-38" d="m283.96,373.81s-27.94-7.59-34.05-3.88c-6.11,3.72-17.07,28.86-17.07,28.86"/></g></g><g id="Layer_5"><g><path class="cls-16" d="m302.23,423l-11.67-79.67h17.36c7.94,0,14.44,7.35,14.44,16.33l11.27,63.34h-31.4Z"/><g><path class="cls-35" d="m304.09,398.15c-.8-.77-.21-3.37,1.12-4.9.72-.82,1.1-.7,3.25-1.97,2.68-1.58,3.41-2.54,3.92-2.19.63.43.23,2.37-.23,3.54-.15.37-.76,1.84-2.8,3.42-.3.24-4.11,3.19-5.27,2.08Z"/><path class="cls-2" d="m300.58,396.75c3.17.66,5.69,3.03,6.46,6.07,1.02,4.04-1.57,7.16-1.82,7.45"/><path class="cls-12" d="m306.4,403.07c1.75-.75,1.57-2.24,3.9-3.96,0,0,1.49-1.1,3.35-1.6,3.96-1.07,7.66,1.07,8.44,1.52,7.41,4.29,7.28,15.46,7.25,16.65-.15,5.89-2.66,11.34-5.71,13.58-.81.59-3.75,2.75-5.67,2.1-.23-.08-.81-.32-1.49-.16-.96.23-1.49,1.1-1.66,1.33-1.29,1.84-6.19,1.68-8.45,1.35-6.81-1.02-10.99-6.89-12.07-8.41-1.53-2.15-6.14-8.62-3.8-15.07.32-.9,1.73-4.39,5.21-6.23,2.32-1.23,4.84-1.34,5.59-1.36,2.91-.06,3.55.92,5.11.25Z"/></g><g><path class="cls-26" d="m352.42,436.63l-1.17-.35c-3.26-.99-5.29-3.8-4.53-6.29l9.64-31.81c.75-2.49,4-3.71,7.26-2.72l1.17.35c3.26.99,5.29,3.8,4.53,6.29l-11.98,30.52c-.75,2.49-1.67,5-4.92,4.01Z"/><path class="cls-28" d="m357.67,404.47c13.27,4.1,16.69,7.21,20.61,4.89,3.75-2.21,4.76-7.5,4.62-10.77-.29-6.84-5.85-11.04-8.27-12.88-6.97-5.28-19.5-8.96-28.05-2.64-4.58,3.38-8.67,10.11-6.69,14.65,1.52,3.5,5.44,2.93,17.79,6.74Z"/></g><g><path class="cls-17" d="m338.21,419.41c-.83-2.37-.55-4.46-2.13-5.83-3.8-3.29-9.48-.29-11.56-3.27-1.05-1.51-.9-3.72-.1-5.1.84-1.44,2.17-1.59,7.04-3.1,5.14-1.6,6.29-3.44,7.38-4.65,1.59-1.77,3.22-2.61,5.19-3.23.15-.05,1.94-.59,2.89.3,1.43,1.35-.01,5.12-1.16,8.12-1.74,4.55-3.08,5.58-2.67,7.83.28,1.52,1.01,1.69,2.72,4.16,1.69,2.45,4.18,6.05,3.92,10.1-.14,2.2-1.18,5.89-3.9,6.72-1.74.53-3.9-.2-5.22-1.57-2.28-2.37-.5-5.05-2.4-10.5Z"/><path class="cls-5" d="m325.08,408.67c3.17-3.05,6.07-4.38,8.18-5.04,2.12-.65,4.22-.73,6.57-2.36,1.63-1.13,2.82-2.73,3.13-3.08.93-1.04,1.62-2.01,2.09-2.74"/><g><path class="cls-4" d="m332.45,410.74c.78.26,1.74.66,2.77,1.25.88.51,1.6,1.05,2.19,1.54"/><path class="cls-4" d="m332.91,409.73c1.38.42,2.19,1.04,2.68,1.56.31.32.68.81,1.4,1.4.44.36.83.61,1.09.77"/><path class="cls-4" d="m334.26,409.07c.74.34,1.99,1.04,3.09,2.4.52.64.88,1.28,1.12,1.8"/><path class="cls-4" d="m335.32,408.29c.33.26.8.65,1.3,1.19.52.57.86,1.05,1.31,1.7.27.39.62.92,1.02,1.59"/><path class="cls-4" d="m336.78,408.35c.33.3.8.79,1.21,1.49.22.38.29.6.51,1.05.22.45.58,1.08,1.12,1.8"/><path class="cls-4" d="m337.73,407.37l.72,1.47,1.96,4"/><path class="cls-4" d="m338.91,407.32c.3.64.45,1.19.53,1.57.15.71.09,1,.34,1.66.18.49.4.87.51,1.05.25.41.5.72.71.96"/><path class="cls-4" d="m339.96,406.54c.27.93.34,1.67.35,2.18.01.67-.07.99.04,1.55.15.75.53,1.32.82,1.68"/><path class="cls-4" d="m340.92,406.07c-.16.47-.5,1.68-.11,3.19.26.99.73,1.71,1.03,2.1"/><path class="cls-4" d="m342.17,405.2c-.08.22-.18.53-.27.91-.12.53-.33,1.38-.23,2.46.09,1.04.43,1.9.75,2.5"/></g></g><path class="cls-30" d="m287.72,358.38l-12.84-77.9h19.09c8.73,0,15.87,7.18,15.87,15.96l12.39,61.94h-34.52Z"/><path class="cls-7" d="m374.5,421.93c-.76-32.73-20.79-58.94-45.39-58.94s-44.63,26.22-45.39,58.94"/><path class="cls-34" d="m381.84,435.85l-18.73,42.29c-2.85,6.45-14.17,11.03-27.24,11.03h-10.14c-13.59,0-25.44-4.68-28.72-11.35l-20.65-41.97"/><rect class="cls-8" x="271.12" y="423.34" width="115.97" height="12.59" rx="5.95" ry="5.95"/><g class="cls-42"><line class="cls-6" x1="286.16" y1="435.79" x2="312.84" y2="487.63"/><line class="cls-6" x1="298.8" y1="435.43" x2="325.96" y2="489.39"/><line class="cls-6" x1="312.2" y1="435.7" x2="339.08" y2="489.39"/><line class="cls-6" x1="325.84" y1="435.7" x2="351.67" y2="486.75"/><line class="cls-6" x1="337.7" y1="435.86" x2="360.59" y2="481.46"/><line class="cls-6" x1="349.14" y1="435.95" x2="366.36" y2="470.44"/><line class="cls-6" x1="361.42" y1="435.77" x2="372.14" y2="457.66"/><line class="cls-6" x1="371.49" y1="435.46" x2="376.86" y2="446.65"/><line class="cls-6" x1="376.12" y1="435.99" x2="302.34" y2="483.22"/><line class="cls-6" x1="377.35" y1="446.87" x2="312.84" y2="487.63"/><line class="cls-6" x1="372.19" y1="458.05" x2="325.96" y2="489.39"/><line class="cls-6" x1="366.36" y1="471.33" x2="338.55" y2="489.39"/><line class="cls-6" x1="361.59" y1="436.2" x2="297.09" y2="477.94"/><line class="cls-6" x1="338.59" y1="435.87" x2="289.22" y2="462.51"/><line class="cls-6" x1="349.39" y1="435.7" x2="292.9" y2="469.56"/><line class="cls-6" x1="325.96" y1="435.63" x2="286.6" y2="457.22"/><line class="cls-6" x1="312.14" y1="435.94" x2="283.98" y2="451.5"/><line class="cls-6" x1="299.13" y1="436.18" x2="281.35" y2="445.77"/><line class="cls-6" x1="286.59" y1="436.08" x2="278.2" y2="440.04"/></g><g><rect class="cls-23" x="345.46" y="423.36" width="5.18" height="2.15"/><path class="cls-18" d="m273.5,429.63v4.72h-.24c-1.22-1.08-2.03-2.62-2.13-4.34-.01-.13-.02-.26-.02-.38h2.38Z"/><path class="cls-23" d="m273.5,434.36v.2c-.08-.06-.16-.13-.24-.2h.24Z"/><rect class="cls-23" x="273.5" y="429.63" width="5.18" height="4.72"/><path class="cls-18" d="m278.68,434.36v1.57h-1.26c-1.47,0-2.83-.51-3.91-1.37v-.2h5.18Z"/><rect class="cls-18" x="278.68" y="429.63" width="5.18" height="4.72"/><rect class="cls-23" x="278.68" y="434.36" width="5.18" height="1.57"/><rect class="cls-23" x="283.86" y="429.63" width="5.18" height="4.72"/><rect class="cls-18" x="283.86" y="434.36" width="5.18" height="1.57"/><rect class="cls-18" x="289.04" y="429.63" width="5.18" height="4.72"/><rect class="cls-23" x="289.04" y="434.36" width="5.18" height="1.57"/><rect class="cls-23" x="294.22" y="429.63" width="5.18" height="4.72"/><rect class="cls-18" x="294.22" y="434.36" width="5.18" height="1.57"/><rect class="cls-18" x="299.4" y="429.63" width="5.18" height="4.72"/><rect class="cls-23" x="299.4" y="434.36" width="5.18" height="1.57"/><rect class="cls-23" x="304.58" y="429.63" width="5.18" height="4.72"/><rect class="cls-18" x="309.76" y="429.63" width="5.18" height="4.72"/><rect class="cls-23" x="309.76" y="434.36" width="5.18" height="1.57"/><rect class="cls-23" x="314.94" y="429.63" width="5.18" height="4.72"/><rect class="cls-18" x="314.94" y="434.36" width="5.18" height="1.57"/><rect class="cls-18" x="320.12" y="429.63" width="5.18" height="4.72"/><rect class="cls-23" x="320.12" y="434.36" width="5.18" height="1.57"/><rect class="cls-23" x="325.3" y="429.63" width="5.18" height="4.72"/><rect class="cls-18" x="325.31" y="434.36" width="5.18" height="1.57"/><rect class="cls-18" x="330.48" y="429.63" width="5.18" height="4.72"/><rect class="cls-23" x="330.49" y="434.36" width="5.18" height="1.57"/><path class="cls-18" d="m273.08,425.07v.22h-.22s.07-.07.1-.11c.04-.04.07-.07.12-.11Z"/><path class="cls-23" d="m273.08,425.3v4.72h-1.95c-.01-.13-.02-.26-.02-.38,0-1.68.67-3.21,1.74-4.34h.22Z"/><path class="cls-23" d="m278.26,423.34v1.96h-5.18v-.22c1.13-1.08,2.66-1.74,4.33-1.74h.84Z"/><rect class="cls-18" x="273.08" y="425.29" width="5.18" height="4.72"/><rect class="cls-18" x="278.26" y="423.34" width="5.18" height="1.96"/><rect class="cls-23" x="278.26" y="425.29" width="5.18" height="4.72"/><rect class="cls-23" x="283.44" y="423.34" width="5.18" height="1.96"/><rect class="cls-18" x="283.44" y="425.29" width="5.18" height="4.72"/><rect class="cls-18" x="288.62" y="423.34" width="5.18" height="1.96"/><rect class="cls-23" x="288.62" y="425.29" width="5.18" height="4.72"/><rect class="cls-23" x="293.8" y="423.34" width="5.18" height="1.96"/><rect class="cls-18" x="293.8" y="425.29" width="5.18" height="4.72"/><rect class="cls-18" x="298.98" y="423.34" width="5.18" height="1.96"/><rect class="cls-23" x="298.98" y="425.29" width="5.18" height="4.72"/><rect class="cls-23" x="304.16" y="423.34" width="5.18" height="1.96"/><rect class="cls-18" x="304.16" y="425.29" width="5.18" height="4.72"/><rect class="cls-18" x="309.34" y="423.34" width="5.18" height="1.96"/><rect class="cls-23" x="309.34" y="425.29" width="5.18" height="4.72"/><rect class="cls-23" x="314.52" y="423.34" width="5.18" height="1.96"/><rect class="cls-18" x="314.52" y="425.29" width="5.18" height="4.72"/><rect class="cls-18" x="319.71" y="423.34" width="5.18" height="1.96"/><rect class="cls-23" x="319.71" y="425.29" width="5.18" height="4.72"/><rect class="cls-23" x="324.89" y="423.34" width="5.18" height="1.96"/><rect class="cls-18" x="324.89" y="425.29" width="5.18" height="4.72"/><rect class="cls-18" x="330.07" y="423.34" width="5.18" height="1.96"/><rect class="cls-23" x="330.07" y="425.29" width="5.18" height="4.72"/><rect class="cls-23" x="345.84" y="429.83" width="5.18" height="4.72"/><rect class="cls-18" x="345.84" y="434.55" width="5.18" height="1.39"/><rect class="cls-18" x="351.02" y="429.83" width="5.18" height="4.72"/><rect class="cls-23" x="351.03" y="434.55" width="5.18" height="1.39"/><rect class="cls-23" x="356.2" y="429.83" width="5.18" height="4.72"/><rect class="cls-18" x="356.2" y="434.55" width="5.18" height="1.39"/><rect class="cls-18" x="361.38" y="429.83" width="5.18" height="4.72"/><rect class="cls-23" x="361.38" y="434.55" width="5.18" height="1.39"/><rect class="cls-23" x="366.56" y="429.83" width="5.18" height="4.72"/><rect class="cls-18" x="366.56" y="434.55" width="5.18" height="1.39"/><rect class="cls-18" x="371.75" y="429.83" width="5.18" height="4.72"/><rect class="cls-23" x="371.74" y="434.55" width="5.18" height="1.39"/><rect class="cls-23" x="376.93" y="429.83" width="5.18" height="4.72"/><path class="cls-18" d="m382.11,434.55v1.25c-.43.09-.86.14-1.31.14h-3.87v-1.39h5.18Z"/><rect class="cls-18" x="382.11" y="429.82" width="5.18" height="4.72"/><path class="cls-23" d="m384.73,434.55c-.76.6-1.64,1.04-2.62,1.25v-1.25h2.62Z"/><rect class="cls-23" x="335.91" y="429.83" width="5.18" height="4.72"/><rect class="cls-18" x="335.91" y="434.55" width="5.18" height="1.39"/><rect class="cls-18" x="341.09" y="429.83" width="5.18" height="4.72"/><rect class="cls-23" x="341.1" y="434.55" width="5.18" height="1.39"/><rect class="cls-18" x="345.42" y="425.48" width="5.18" height="4.72"/><rect class="cls-18" x="350.61" y="423.34" width="5.18" height="2.15"/><rect class="cls-23" x="350.6" y="425.48" width="5.18" height="4.72"/><rect class="cls-23" x="355.78" y="423.34" width="5.18" height="2.15"/><rect class="cls-18" x="355.79" y="425.48" width="5.18" height="4.72"/><rect class="cls-18" x="360.96" y="423.34" width="5.18" height="2.15"/><rect class="cls-23" x="360.97" y="425.48" width="5.18" height="4.72"/><rect class="cls-23" x="366.14" y="423.34" width="5.18" height="2.15"/><rect class="cls-18" x="366.15" y="425.48" width="5.18" height="4.72"/><rect class="cls-18" x="371.33" y="423.34" width="5.18" height="2.15"/><rect class="cls-23" x="371.33" y="425.48" width="5.18" height="4.72"/><path class="cls-23" d="m381.69,423.4v2.08h-5.18v-2.15h4.29c.3,0,.6.02.89.06Z"/><rect class="cls-18" x="376.51" y="425.48" width="5.18" height="4.72"/><path class="cls-18" d="m385.52,425.48h-3.84v-2.08c1.52.22,2.87.98,3.84,2.08Z"/><path class="cls-1" d="m386.87,425.48v2.49c-.26-.93-.72-1.78-1.34-2.49h1.34Z"/><path class="cls-23" d="m386.87,427.97v2.24h-5.18v-4.72h3.84c.62.71,1.09,1.55,1.34,2.49Z"/><rect class="cls-23" x="335.5" y="423.34" width="5.18" height="2.15"/><rect class="cls-18" x="335.5" y="425.48" width="5.18" height="4.72"/><rect class="cls-23" x="340.68" y="425.48" width="5.18" height="4.72"/><path class="cls-18" d="m387.29,429.82v.38h-.42v-2.24c.15.53.23,1.09.23,1.66,0,.06,0,.13,0,.19h.2Z"/><path class="cls-7" d="m387.07,430.21c-.14,1.51-.81,2.86-1.82,3.88-.16.16-.34.32-.52.46-.76.6-1.64,1.04-2.62,1.25-.43.09-.86.14-1.31.14h-103.38c-1.47,0-2.83-.51-3.91-1.37-.08-.06-.16-.13-.24-.2-1.22-1.08-2.03-2.62-2.13-4.34-.01-.13-.02-.26-.02-.38,0-1.68.67-3.21,1.74-4.34.04-.04.07-.07.1-.11.04-.04.07-.07.12-.11,1.13-1.08,2.66-1.74,4.33-1.74h103.38c.3,0,.6.02.89.06,1.52.22,2.87.98,3.84,2.08.62.71,1.09,1.55,1.34,2.49.15.53.23,1.09.23,1.66"/></g></g></g></svg>