<?xml version="1.0" encoding="UTF-8"?><svg xmlns="http://www.w3.org/2000/svg" width="210mm" height="210mm" viewBox="0 0 595.28 595.28"><defs><style>.cls-1{fill:#063;}.cls-2{fill:#fff;}.cls-3{fill:#0ea550;}.cls-4{fill:none;stroke:#063;stroke-miterlimit:10;}</style></defs><g id="skitse"><g><path class="cls-3" d="m111.31,222.42c-2.19,1.63-6.71,5.06-11.04,10.79-6.18,8.18-8.57,16.53-9.57,20.12-1.24,4.46-1.78,8.25-2.03,10.67,0,0-.11,1.04-.19,2.08-1.99,26.89-2.05,91.33-2.05,91.33-.03,31.17-1.36,71.8,3.48,96.05,1.68,8.41,4.25,15.61,7.54,22.1,0,0,4.95,9.72,12.68,18.32,17.19,19.09,54.37,38.88,63.38,43.74,39.23,21.12,51.28,31.84,90.95,49.76,9.65,4.36,23.14,10.14,40.61,9.15,15.66-.89,27.05-6.79,35.04-11.04,44.52-23.67,76.53-42.69,90.23-50.74,0,0,30.55-17.94,63.29-44.89,2.9-2.39,9.38-7.85,14.45-17.03,5.01-9.06,6.23-17.39,6.73-21.38,3.27-26.27.35-68.81.39-94.81.04-25.7,2.49-72.89-1.63-96.07-.93-5.24-2.72-12.17-6.8-19.51-2-3.6-5.54-9.07-11.86-15.04-29.09-27.47-132.59-80.02-156.77-93.56-3.01-1.68-12.44-7.05-25.84-9.58-12.44-2.35-21.43-.97-23.44-.64-11.51,1.9-19.56,6.89-22.69,8.79-25.25,15.3-117.6,63.66-154.88,91.38Z"/><g><path class="cls-2" d="m215.2,274.76c4.75-13.27,9.23-26.04,13.45-38.32h17.21c-3.86,10.67-7.91,21.63-12.17,32.88-4.26,11.25-8.56,22.52-12.91,33.82-4.35,11.29-8.67,22.28-12.98,32.94h-14.52c-4.21-10.67-8.52-21.65-12.91-32.94-4.39-11.29-8.72-22.57-12.98-33.82-4.26-11.25-8.32-22.21-12.17-32.88h18.15c4.21,12.37,8.69,25.17,13.45,38.39,4.75,13.22,9.46,26.2,14.12,38.93,4.75-12.73,9.5-25.73,14.25-38.99Z"/><path class="cls-2" d="m261.46,236.43h16.94v99.64h-16.94v-99.64Z"/><path class="cls-2" d="m302.6,236.43h16.94v86.06h40.88v13.58h-57.82v-99.64Z"/><path class="cls-2" d="m374.94,236.43h25.95c11.74,0,21.58,2.13,29.51,6.39,7.93,4.26,13.89,10.13,17.88,17.62,3.99,7.49,5.98,16.07,5.98,25.75s-2,18.27-5.98,25.75c-3.99,7.49-9.95,13.38-17.88,17.68-7.93,4.3-17.77,6.45-29.51,6.45h-25.95v-99.64Zm16.94,13.45v72.75h10.35c11.2,0,19.7-3.27,25.48-9.82,5.78-6.54,8.67-15.37,8.67-26.49s-2.89-20.08-8.67-26.62c-5.78-6.54-14.28-9.82-25.48-9.82h-10.35Z"/><path class="cls-2" d="m156.58,371.43h15.33l34.69,69.92,34.69-69.92h14.66l2.42,99.64h-15.73l-1.48-69.12-29.45,59.57h-11.03l-29.45-59.57-1.48,69.12h-15.46l2.29-99.64Z"/><path class="cls-2" d="m292.25,421.25c6.1-16.63,12.28-33.23,18.56-49.82h19.23c6.36,16.59,12.59,33.19,18.69,49.82,6.09,16.63,12.01,33.24,17.75,49.82h-17.62c-2.87-8.88-5.83-17.84-8.87-26.89h-39.8c-1.53,4.48-3.03,8.96-4.5,13.45-1.48,4.48-2.94,8.96-4.37,13.45h-16.94c5.83-16.58,11.79-33.19,17.88-49.82Zm35.57-12.57c-2.55-7.35-5.13-14.66-7.73-21.92-2.6,7.26-5.18,14.57-7.73,21.92-2.56,7.35-5.09,14.7-7.6,22.05h30.66c-2.51-7.35-5.04-14.7-7.6-22.05Z"/><path class="cls-2" d="m383.55,371.43h25.95c11.74,0,21.58,2.13,29.51,6.39,7.93,4.26,13.89,10.13,17.88,17.61,3.99,7.49,5.98,16.07,5.98,25.75s-2,18.27-5.98,25.75c-3.99,7.49-9.95,13.38-17.88,17.68s-17.77,6.45-29.51,6.45h-25.95v-99.64Zm16.94,13.45v72.75h10.35c11.2,0,19.7-3.27,25.48-9.82,5.78-6.54,8.67-15.37,8.67-26.49s-2.89-20.08-8.67-26.62c-5.78-6.54-14.28-9.82-25.48-9.82h-10.35Z"/></g></g></g><g id="Lag_3"><g><path class="cls-3" d="m96.9,238.28c-28.1-6.01-39.32-39.02-52.96-79.17-9.84-28.97-18.37-54.04-6.84-66.16,17.11-18.01,69.1,2.37,100.39,27.38,16.28,13.02,37.63,30.09,37.64,54.76.02,35.59-44.4,70.44-78.22,63.2Z"/><path class="cls-3" d="m248.84,148.19c-16.72-23.36-2.79-55.33,14.15-94.2,12.23-28.04,22.81-52.32,39.49-53.53,24.78-1.79,49.5,48.28,55.78,87.84,3.27,20.59,7.56,47.59-9.04,65.83-23.95,26.32-80.26,22.18-100.39-5.94Z"/><path class="cls-3" d="m160.25,184.47c-24.51-17.07-22.22-52.01-19.43-94.51,2.01-30.66,3.75-57.2,19.56-63.61,23.48-9.52,65.18,30.56,85.24,66.4,10.44,18.65,24.13,43.11,14.41,65.78-14.03,32.71-70.27,46.48-99.78,25.94Z"/><path class="cls-3" d="m340.09,153.16c-9.69-27.05,12.46-53.98,39.4-86.73,19.43-23.63,36.26-44.08,52.63-40.67,24.32,5.06,34.39,59.98,29.61,99.75-2.49,20.7-5.75,47.84-26.71,60.84-30.24,18.76-83.26-.63-94.93-33.19Z"/><path class="cls-3" d="m424.8,180.6c-.7-28.72,28.79-47.33,64.66-69.95,25.88-16.32,48.27-30.45,62.75-22.07,21.5,12.45,13.8,67.75-3.24,104-8.87,18.87-20.5,43.61-44.48,49.36-34.61,8.31-78.85-26.77-79.68-61.35Z"/><path class="cls-1" d="m554.61,538.98c-64.64,15.96-150.86,30.76-252.87,30.8-102.36.04-188.85-14.81-253.62-30.8v-82.13c65.81,15.63,152.58,29.8,254.76,29.66,100.79-.14,186.48-14.16,251.73-29.66v82.13Z"/><g><path class="cls-2" d="m142.84,505.96h28.44l-.71,4.38h-19.54v8.85h15.84v4.38h-15.84v14.86h-8.18v-32.48Z"/><path class="cls-2" d="m178.39,530.75c-1.58-2.59-2.37-5.56-2.37-8.92s.81-6.06,2.44-8.53c1.62-2.47,4.03-4.4,7.21-5.81,3.18-1.4,7.11-2.1,11.79-2.1s8.66.7,11.82,2.1c3.16,1.4,5.55,3.34,7.18,5.81,1.62,2.47,2.44,5.31,2.44,8.53s-.79,6.33-2.37,8.92c-1.58,2.59-3.95,4.61-7.11,6.07-3.16,1.46-7.14,2.19-11.95,2.19s-8.73-.73-11.92-2.19c-3.18-1.46-5.56-3.48-7.14-6.07Zm31.85-8.92c0-3.74-1.1-6.69-3.31-8.85s-5.37-3.24-9.48-3.24-7.27,1.08-9.48,3.24-3.31,5.11-3.31,8.85,1.11,7.03,3.34,9.36c2.23,2.32,5.38,3.48,9.45,3.48s7.27-1.16,9.48-3.48,3.31-5.44,3.31-9.36Z"/><path class="cls-2" d="m228.49,505.96h12.66c3.68,0,6.95.33,9.81.99,2.86.66,5.11,1.65,6.75,2.98,1.64,1.33,2.47,3,2.47,5.02s-.83,3.79-2.5,5.15c-1.67,1.36-3.97,2.34-6.92,2.96,2.51.88,4.88,2.54,7.11,4.98,2.23,2.44,4.62,5.91,7.18,10.41h-9.03c-1.69-2.78-3.19-5.03-4.51-6.77-1.32-1.74-2.61-3.08-3.86-4.01-1.26-.93-2.59-1.58-3.99-1.93-1.41-.35-3.06-.53-4.97-.53h-2.01v13.24h-8.18v-32.48Zm20.39,13.65c1.95-.95,2.92-2.32,2.92-4.1s-.97-3.11-2.92-3.99c-1.95-.88-4.44-1.31-7.47-1.31h-4.74v10.83h4.74c3.03,0,5.52-.47,7.47-1.42Z"/><path class="cls-2" d="m287.19,505.96h13.96c3.38,0,6.34.31,8.89.92s4.56,1.53,6.01,2.74c1.45,1.21,2.17,2.72,2.17,4.54s-.78,3.19-2.34,4.38c-1.56,1.2-3.42,2.04-5.59,2.54,3.29.44,5.87,1.37,7.73,2.78,1.86,1.42,2.79,3.18,2.79,5.28s-.79,3.75-2.37,5.13c-1.58,1.37-3.77,2.41-6.56,3.11-2.79.7-6.03,1.05-9.71,1.05h-15v-32.48Zm14.03,13.5c2.81,0,4.99-.41,6.53-1.23,1.54-.82,2.3-2,2.3-3.55,0-1.46-.81-2.57-2.43-3.33s-3.84-1.14-6.66-1.14h-5.71v9.25h5.97Zm-5.97,14.73h6.88c3.25,0,5.77-.45,7.57-1.36,1.79-.91,2.69-2.24,2.69-3.99s-.88-2.98-2.63-3.86c-1.75-.88-4.28-1.31-7.56-1.31h-6.95v10.52Z"/><path class="cls-2" d="m332.83,534.54c-1.91-1.52-3.33-3.36-4.29-5.52-.95-2.16-1.43-4.56-1.43-7.19,0-3.21.81-6.06,2.43-8.53,1.62-2.47,4.03-4.4,7.21-5.81,3.18-1.4,7.11-2.1,11.79-2.1,2.29,0,4.42.17,6.36.53,1.95.35,3.7.85,5.26,1.49l3.25-3.24,3.96,1.71-3.57,3.59c2.03,1.46,3.57,3.24,4.61,5.35,1.04,2.1,1.56,4.44,1.56,7.01,0,3.36-.79,6.33-2.37,8.92-1.58,2.59-3.95,4.61-7.11,6.07-3.16,1.46-7.14,2.19-11.95,2.19-2.47,0-4.71-.2-6.72-.59-2.01-.39-3.84-.97-5.49-1.73l-3.25,3.33-3.96-1.71,3.7-3.77Zm5.07-4.82l17.99-18.32c-1.99-1.11-4.44-1.67-7.34-1.67-4.11,0-7.27,1.08-9.48,3.24-2.21,2.16-3.31,5.11-3.31,8.85,0,3.16.71,5.79,2.14,7.89Zm10.65,4.95c4.11,0,7.27-1.16,9.48-3.48s3.31-5.44,3.31-9.36c0-3.16-.78-5.76-2.34-7.8l-18.25,18.54c2.08,1.4,4.68,2.1,7.79,2.1Z"/><path class="cls-2" d="m379.59,505.96h12.66c3.68,0,6.95.33,9.8.99,2.86.66,5.11,1.65,6.75,2.98,1.65,1.33,2.47,3,2.47,5.02s-.83,3.79-2.5,5.15c-1.67,1.36-3.97,2.34-6.92,2.96,2.51.88,4.88,2.54,7.11,4.98,2.23,2.44,4.62,5.91,7.17,10.41h-9.03c-1.69-2.78-3.19-5.03-4.51-6.77-1.32-1.74-2.61-3.08-3.86-4.01-1.26-.93-2.59-1.58-3.99-1.93-1.41-.35-3.06-.53-4.97-.53h-2.01v13.24h-8.18v-32.48Zm20.39,13.65c1.95-.95,2.92-2.32,2.92-4.1s-.97-3.11-2.92-3.99c-1.95-.88-4.44-1.31-7.47-1.31h-4.74v10.83h4.74c3.03,0,5.52-.47,7.47-1.42Z"/><path class="cls-2" d="m423.09,505.96h8.57l20.71,22.49-.07-2.5v-19.99h7.47v32.48h-6.75l-22.47-24.5v24.5h-7.47v-32.48Z"/></g><line class="cls-4" x1="118.1" y1="177.17" x2="62.51" y2="114.49"/><line class="cls-4" x1="118.1" y1="177.17" x2="119.57" y2="132.89"/><line class="cls-4" x1="90.3" y1="145.83" x2="88.53" y2="112.13"/><line class="cls-4" x1="90.3" y1="145.83" x2="56.55" y2="145.83"/><line class="cls-4" x1="73.43" y1="174.08" x2="117.63" y2="177.18"/><g><line class="cls-4" x1="200.1" y1="137.55" x2="178.17" y2="56.68"/><line class="cls-4" x1="200.1" y1="137.55" x2="221.11" y2="98.54"/><line class="cls-4" x1="189.14" y1="97.12" x2="202.53" y2="66.14"/><line class="cls-4" x1="189.14" y1="97.12" x2="158.9" y2="82.12"/><line class="cls-4" x1="161.46" y1="114.92" x2="199.68" y2="137.35"/></g><g><line class="cls-4" x1="301.47" y1="122.02" x2="305.66" y2="38.34"/><line class="cls-4" x1="301.47" y1="122.02" x2="333.52" y2="91.43"/><line class="cls-4" x1="303.56" y1="80.18" x2="325.89" y2="54.88"/><line class="cls-4" x1="303.56" y1="80.18" x2="279.46" y2="56.56"/><line class="cls-4" x1="271.74" y1="88.54" x2="301.13" y2="121.7"/></g><g><line class="cls-4" x1="399.66" y1="134.25" x2="428.68" y2="55.65"/><line class="cls-4" x1="399.66" y1="134.25" x2="439.4" y2="114.64"/><line class="cls-4" x1="414.17" y1="94.95" x2="443.05" y2="77.48"/><line class="cls-4" x1="414.17" y1="94.95" x2="398.24" y2="65.2"/><line class="cls-4" x1="381.3" y1="93.41" x2="399.43" y2="133.84"/></g><g><line class="cls-4" x1="480.57" y1="181.32" x2="538.4" y2="120.69"/><line class="cls-4" x1="480.57" y1="181.32" x2="524.82" y2="179.1"/><line class="cls-4" x1="509.48" y1="151.01" x2="542.92" y2="146.43"/><line class="cls-4" x1="509.48" y1="151.01" x2="506.67" y2="117.38"/><line class="cls-4" x1="479.93" y1="136.55" x2="480.52" y2="180.85"/></g></g></g></svg>