<?xml version="1.0" encoding="UTF-8"?>
<svg id="Layer_2" data-name="Layer 2" xmlns="http://www.w3.org/2000/svg" xmlns:xlink="http://www.w3.org/1999/xlink" viewBox="0 0 491.91 481.87">
  <defs>
    <style>
      .cls-1, .cls-2, .cls-3, .cls-4, .cls-5, .cls-6, .cls-7, .cls-8, .cls-9, .cls-10 {
        fill: none;
      }

      .cls-11 {
        fill: url(#linear-gradient);
      }

      .cls-2, .cls-12, .cls-3, .cls-5, .cls-13, .cls-14, .cls-15, .cls-16, .cls-17, .cls-6, .cls-7, .cls-8, .cls-9 {
        stroke-miterlimit: 10;
      }

      .cls-2, .cls-4 {
        stroke: #673606;
      }

      .cls-2, .cls-15, .cls-16 {
        stroke-width: .88px;
      }

      .cls-12 {
        fill: #00009f;
      }

      .cls-12, .cls-4, .cls-17 {
        stroke-width: 2.63px;
      }

      .cls-12, .cls-17, .cls-7 {
        stroke: #000;
      }

      .cls-18 {
        fill: #02b6af;
      }

      .cls-19 {
        fill: #000621;
      }

      .cls-20 {
        fill: #f0f0f0;
      }

      .cls-21 {
        fill: #ffdfc5;
      }

      .cls-22 {
        fill: #e7a43f;
      }

      .cls-23, .cls-13 {
        fill: #fff;
      }

      .cls-24, .cls-16, .cls-25 {
        fill: #ffccc6;
      }

      .cls-26 {
        fill: red;
      }

      .cls-27 {
        fill: #e4e4e4;
      }

      .cls-28 {
        fill: #fdf6f5;
      }

      .cls-29 {
        fill: #89ece9;
      }

      .cls-30 {
        fill: #cab095;
      }

      .cls-31 {
        fill: #cbcbcb;
      }

      .cls-32 {
        fill: #d37100;
      }

      .cls-33 {
        fill: #13d5cc;
      }

      .cls-34 {
        fill: #495315;
      }

      .cls-35 {
        fill: #7c4a1a;
      }

      .cls-3, .cls-4, .cls-10 {
        stroke-linecap: round;
      }

      .cls-3, .cls-13, .cls-8, .cls-9 {
        stroke: #000046;
      }

      .cls-3, .cls-14, .cls-6, .cls-7, .cls-8 {
        stroke-width: 1.75px;
      }

      .cls-4, .cls-10 {
        stroke-linejoin: round;
      }

      .cls-36 {
        font-family: Futura-Medium, Futura;
        font-size: 19px;
        font-weight: 500;
      }

      .cls-5 {
        stroke-width: .26px;
      }

      .cls-5, .cls-10 {
        stroke: #ad7a4a;
      }

      .cls-13, .cls-9 {
        stroke-width: 3.51px;
      }

      .cls-14 {
        fill: #cd9965;
      }

      .cls-14, .cls-6 {
        stroke: #7c4a1a;
      }

      .cls-15 {
        fill: #00a14c;
        stroke: #00943a;
      }

      .cls-16 {
        stroke: #ffccc6;
      }

      .cls-37 {
        opacity: .25;
      }

      .cls-38 {
        letter-spacing: -.06em;
      }

      .cls-39 {
        letter-spacing: -.02em;
      }

      .cls-25 {
        opacity: .45;
      }

      .cls-40 {
        fill: #facaaa;
        opacity: .63;
      }

      .cls-10 {
        stroke-width: .44px;
      }
    </style>
    <linearGradient id="linear-gradient" x1="392.18" y1="581.96" x2="431.12" y2="581.96" gradientTransform="translate(-87.26 -97.49) rotate(-9.48)" gradientUnits="userSpaceOnUse">
      <stop offset="0" stop-color="#7ac710"/>
      <stop offset="1" stop-color="#ff0006"/>
    </linearGradient>
  </defs>
  <g id="Layer_5" data-name="Layer 5">
    <rect class="cls-34" x="271.89" y="274.35" width="116.58" height="158.65"/>
    <path class="cls-21" d="m407,415.47l-11.56-78.89h17.19c7.86,0,14.29,7.27,14.29,16.17l11.16,62.72h-31.09Z"/>
    <g>
      <path class="cls-15" d="m408.84,390.87c-.79-.76-.2-3.34,1.11-4.85.71-.81,1.09-.69,3.21-1.95,2.65-1.56,3.38-2.52,3.89-2.17.62.43.23,2.35-.22,3.51-.15.37-.75,1.82-2.77,3.39-.3.23-4.07,3.16-5.22,2.06Z"/>
      <path class="cls-4" d="m405.37,389.48c3.14.66,5.63,3,6.4,6.01,1.01,4-1.55,7.09-1.8,7.38"/>
      <path class="cls-11" d="m411.13,395.74c1.73-.74,1.56-2.22,3.87-3.92,0,0,1.48-1.08,3.31-1.58,3.92-1.06,7.58,1.06,8.36,1.51,7.34,4.25,7.21,15.31,7.18,16.49-.15,5.83-2.63,11.23-5.65,13.44-.8.59-3.71,2.73-5.61,2.08-.23-.08-.8-.32-1.48-.16-.95.22-1.48,1.09-1.64,1.32-1.28,1.82-6.12,1.67-8.37,1.33-6.74-1.01-10.88-6.82-11.96-8.33-1.52-2.13-6.08-8.54-3.76-14.92.32-.89,1.71-4.35,5.16-6.17,2.29-1.21,4.79-1.33,5.53-1.34,2.88-.06,3.51.91,5.06.25Z"/>
    </g>
    <g>
      <path class="cls-30" d="m456.7,428.97l-1.16-.35c-3.22-.98-5.23-3.77-4.49-6.23l9.54-31.5c.75-2.46,3.97-3.67,7.19-2.69l1.16.35c3.22.98,5.23,3.77,4.49,6.23l-11.86,30.22c-.75,2.46-1.65,4.95-4.87,3.97Z"/>
      <path class="cls-32" d="m461.9,397.12c13.14,4.06,16.53,7.14,20.4,4.84,3.71-2.19,4.71-7.42,4.57-10.67-.29-6.77-5.79-10.93-8.19-12.75-6.9-5.22-19.31-8.87-27.78-2.61-4.53,3.35-8.58,10.01-6.63,14.51,1.5,3.46,5.38,2.9,17.62,6.68Z"/>
    </g>
    <g>
      <path class="cls-22" d="m442.63,411.92c-.82-2.35-.55-4.42-2.11-5.77-3.76-3.25-9.39-.28-11.45-3.24-1.04-1.49-.9-3.69-.1-5.05.83-1.42,2.15-1.57,6.97-3.07,5.09-1.59,6.23-3.4,7.31-4.6,1.58-1.75,3.19-2.58,5.14-3.19.15-.05,1.92-.58,2.86.3,1.41,1.34-.01,5.07-1.14,8.04-1.72,4.51-3.05,5.53-2.64,7.75.28,1.5,1,1.67,2.7,4.12,1.68,2.42,4.14,5.99,3.88,10-.14,2.18-1.17,5.83-3.86,6.65-1.73.52-3.86-.2-5.16-1.55-2.26-2.34-.5-5-2.38-10.4Z"/>
      <path class="cls-10" d="m429.63,401.28c3.14-3.02,6.01-4.34,8.1-4.99,2.1-.65,4.18-.72,6.51-2.34,1.61-1.12,2.79-2.71,3.1-3.05.92-1.03,1.6-1.99,2.07-2.71"/>
      <g>
        <path class="cls-5" d="m436.93,403.33c.78.26,1.72.65,2.74,1.24.87.5,1.59,1.04,2.17,1.52"/>
        <path class="cls-5" d="m437.38,402.33c1.37.41,2.17,1.03,2.65,1.54.3.32.68.8,1.39,1.39.43.35.82.6,1.08.76"/>
        <path class="cls-5" d="m438.72,401.68c.73.33,1.97,1.03,3.06,2.38.51.64.87,1.26,1.11,1.78"/>
        <path class="cls-5" d="m439.77,400.91c.33.25.79.64,1.29,1.18.52.56.85,1.04,1.3,1.69.27.38.62.92,1.01,1.57"/>
        <path class="cls-5" d="m441.22,400.97c.33.3.8.78,1.2,1.48.22.38.28.59.51,1.04.22.44.57,1.07,1.11,1.78"/>
        <path class="cls-5" d="m442.16,399.99l.71,1.46,1.94,3.96"/>
        <path class="cls-5" d="m443.32,399.94c.3.64.44,1.17.52,1.55.15.71.09.99.33,1.64.18.49.4.86.51,1.04.24.4.49.72.7.95"/>
        <path class="cls-5" d="m444.36,399.17c.27.92.33,1.65.34,2.16.01.67-.07.98.04,1.53.15.75.53,1.31.82,1.67"/>
        <path class="cls-5" d="m445.32,398.71c-.16.47-.5,1.67-.11,3.15.25.98.72,1.69,1.02,2.08"/>
        <path class="cls-5" d="m446.55,397.84c-.08.22-.18.53-.27.91-.12.52-.32,1.37-.23,2.44.09,1.03.43,1.88.74,2.48"/>
      </g>
    </g>
    <ellipse class="cls-12" cx="337.59" cy="220.58" rx="16.35" ry="16.65"/>
    <ellipse class="cls-17" cx="337.59" cy="220.58" rx="16.35" ry="16.65"/>
    <rect class="cls-35" x="210.54" y="39.44" width="232.54" height="96.42" rx="35.06" ry="35.06"/>
    <rect class="cls-21" x="232.68" y="51.71" width="194.59" height="194.59" rx="83.27" ry="83.27"/>
    <path class="cls-21" d="m236.41,117.45h2.08c7.3,0,13.23,5.93,13.23,13.23v37.15c0,7.51-6.1,13.61-13.61,13.61h0c-18.13,0-32.85-14.72-32.85-32.85h0c0-17.19,13.95-31.14,31.14-31.14Z"/>
    <path class="cls-25" d="m227.02,137.61h0c2.51,0,4.55,2.04,4.55,4.55v24.21c0,2.51-2.04,4.55-4.55,4.55h0c-7.16,0-12.98-5.82-12.98-12.98v-7.35c0-7.16,5.82-12.98,12.98-12.98Z"/>
    <path class="cls-40" d="m230.26,151.64h1.31v13.15h-1.32c-3.63,0-6.57-2.95-6.57-6.57h0c0-3.63,2.95-6.57,6.57-6.57Z"/>
    <path class="cls-21" d="m428.33,120.08h0c7.51,0,13.61,6.1,13.61,13.61v37.15c0,7.3-5.93,13.23-13.23,13.23h-2.08c-17.19,0-31.14-13.95-31.14-31.14h0c0-18.13,14.72-32.85,32.85-32.85Z" transform="translate(837.42 304.15) rotate(-180)"/>
    <path class="cls-25" d="m428.62,140.24h0c2.51,0,4.55,2.04,4.55,4.55v24.21c0,2.51-2.04,4.55-4.55,4.55h0c-7.16,0-12.98-5.82-12.98-12.98v-7.35c0-7.16,5.82-12.98,12.98-12.98Z" transform="translate(848.82 313.79) rotate(-180)"/>
    <path class="cls-40" d="m422.22,154.27h1.32v13.15h-1.31c-3.63,0-6.57-2.95-6.57-6.57h0c0-3.63,2.95-6.57,6.57-6.57Z" transform="translate(839.17 321.68) rotate(180)"/>
    <rect class="cls-21" x="314.62" y="246.3" width="31.55" height="36.81"/>
    <path class="cls-16" d="m329.14,181.88h-7.84c-4.95,0-8.05-6.37-5.57-11.46l3.92-8.06,3.92-8.06c2.48-5.09,8.66-5.09,11.14,0l3.92,8.06,3.92,8.06c2.48,5.09-.62,11.46-5.57,11.46h-7.84Z"/>
    <path class="cls-8" d="m320.98,135.86h17.53"/>
    <g>
      <g>
        <circle class="cls-13" cx="286.4" cy="134.99" r="13.13"/>
        <circle class="cls-27" cx="286.65" cy="135.02" r="24.11"/>
        <ellipse class="cls-20" cx="286.65" cy="135.2" rx="24.11" ry="20.67"/>
        <circle class="cls-27" cx="286.48" cy="135.02" r="15.15"/>
        <circle class="cls-8" cx="285.65" cy="134.96" r="35.04"/>
        <circle class="cls-18" cx="286.57" cy="134.99" r="13.13"/>
        <circle class="cls-33" cx="286.96" cy="135.14" r="10.08"/>
        <circle class="cls-29" cx="286.96" cy="135.14" r="7.78"/>
        <circle class="cls-9" cx="286.57" cy="134.99" r="13.13"/>
        <path class="cls-33" d="m288.86,129.76l1.33-2.12c.13-.21.45-.06.37.17l-.77,2.38c-.07.2.18.36.34.21l1.81-1.72c.18-.17.45.05.32.26l-1.34,2.11c-.11.18.09.39.27.29l2.18-1.21c.21-.12.42.16.24.33l-1.82,1.71c-.16.15-.01.4.19.35l2.42-.63c.24-.06.36.26.15.38l-2.19,1.21c-.19.1-.11.39.1.39h2.5c.24-.01.29.33.05.39l-2.42.62c-.21.05-.21.35,0,.4l2.42.61c.24.06.19.41-.05.41h-2.5c-.21,0-.29.29-.1.39l2.2,1.19c.21.12.09.44-.15.38l-2.42-.62c-.21-.05-.35.21-.19.35l1.83,1.7c.18.17-.03.45-.24.33l-2.19-1.2c-.19-.1-.39.11-.27.29l1.35,2.1c.13.2-.14.43-.31.26l-1.82-1.71c-.16-.15-.4.01-.34.22l.78,2.37c.08.23-.24.38-.37.18l-1.34-2.11c-.11-.18-.39-.09-.38.12l.17,2.49c.02.24-.33.31-.4.08l-.77-2.38c-.07-.2-.36-.18-.4.03l-.46,2.46c-.04.24-.39.22-.41-.02l-.16-2.49c-.01-.21-.3-.27-.39-.07l-1.05,2.27c-.1.22-.44.11-.39-.13l.47-2.46c.04-.21-.23-.33-.36-.17l-1.58,1.93c-.15.19-.45,0-.35-.22l1.06-2.26c.09-.19-.14-.38-.31-.25l-2.01,1.48c-.2.14-.44-.11-.28-.3l1.59-1.93c.14-.17-.04-.4-.24-.32l-2.32.93c-.23.09-.4-.22-.2-.36l2.02-1.47c.17-.13.06-.4-.15-.37l-2.48.33c-.24.03-.33-.31-.1-.4l2.32-.92c.2-.08.16-.37-.05-.4l-2.48-.3c-.24-.03-.24-.38,0-.41l2.48-.32c.21-.03.25-.32.05-.4l-2.33-.91c-.23-.09-.14-.43.1-.4l2.48.31c.21.03.32-.25.15-.37l-2.03-1.46c-.2-.14-.03-.45.2-.36l2.32.92c.2.08.37-.16.23-.32l-1.6-1.92c-.16-.19.08-.44.28-.3l2.02,1.47c.17.13.4-.06.31-.26l-1.08-2.26c-.1-.22.19-.41.35-.22l1.6,1.92c.14.16.4.04.36-.17l-.48-2.45c-.05-.24.29-.35.39-.13l1.07,2.26c.09.19.38.14.39-.08l.14-2.5c.01-.24.36-.27.41-.03l.47,2.45c.04.21.33.23.4.02l.76-2.38c.07-.23.42-.17.4.08l-.15,2.49c-.01.21.27.3.38.12Z"/>
        <path class="cls-18" d="m289.63,129.56l1.56-1.99c.17-.22.51-.01.4.24l-1.03,2.31c-.1.22.16.43.36.28l2.01-1.54c.22-.17.5.12.33.33l-1.57,1.99c-.15.19.05.46.28.36l2.33-.99c.26-.11.46.24.24.4l-2.02,1.53c-.19.15-.06.46.18.42l2.5-.38c.27-.04.38.34.13.45l-2.33.98c-.23.09-.18.43.07.45l2.52.25c.28.03.29.43.01.47l-2.51.37c-.24.04-.28.37-.05.45l2.38.87c.26.1.17.48-.11.46l-2.52-.26c-.24-.03-.36.29-.16.43l2.09,1.44c.23.16.04.51-.22.42l-2.37-.88c-.23-.09-.42.19-.26.38l1.66,1.91c.18.21-.08.51-.31.35l-2.08-1.44c-.2-.14-.45.08-.35.3l1.14,2.26c.12.25-.21.47-.39.26l-1.66-1.92c-.16-.18-.46-.03-.41.2l.54,2.48c.06.27-.32.4-.44.16l-1.13-2.27c-.11-.22-.44-.15-.45.1l-.09,2.53c-.01.28-.41.31-.47.04l-.53-2.48c-.05-.24-.39-.25-.46-.02l-.72,2.43c-.08.27-.47.2-.46-.08l.1-2.53c.01-.24-.31-.34-.44-.13l-1.3,2.17c-.14.24-.51.08-.43-.19l.73-2.43c.07-.23-.22-.41-.39-.24l-1.8,1.78c-.2.2-.51-.05-.37-.29l1.31-2.17c.13-.21-.11-.45-.32-.33l-2.19,1.28c-.24.14-.48-.18-.28-.37l1.81-1.77c.17-.17,0-.46-.23-.4l-2.44.69c-.27.08-.42-.29-.18-.43l2.19-1.27c.21-.12.12-.45-.12-.44l-2.53.06c-.28,0-.34-.39-.07-.46l2.44-.68c.24-.07.23-.4-.01-.46l-2.47-.57c-.27-.06-.23-.46.05-.47l2.53-.05c.24,0,.32-.33.1-.45l-2.25-1.16c-.25-.13-.11-.5.16-.44l2.47.58c.24.06.39-.24.21-.41l-1.89-1.69c-.21-.18.02-.51.27-.39l2.25,1.17c.22.11.44-.14.3-.34l-1.41-2.1c-.15-.23.15-.49.35-.31l1.88,1.69c.18.16.46-.02.38-.25l-.84-2.39c-.09-.26.26-.44.42-.21l1.4,2.11c.14.2.45.09.43-.15l-.22-2.52c-.02-.28.37-.36.46-.1l.83,2.39c.08.23.42.2.46-.04l.41-2.5c.05-.27.44-.26.47.02l.21,2.52c.02.24.35.3.45.08l1.02-2.32c.11-.25.49-.14.45.13l-.42,2.5c-.04.24.27.38.42.18Z"/>
        <circle class="cls-19" cx="286.92" cy="134.99" r="4.86"/>
        <path class="cls-23" d="m271.07,143.78c-5.92-3.79-6.13-13.42-.4-17.49,0,0,.63.59.63.59-.38.68-.73,1.34-1.04,2.01-1.49,3.25-1.87,6.98-.67,10.38.46,1.36,1.17,2.64,2.06,3.89l-.59.63h0Z"/>
        <path class="cls-23" d="m302.18,143.81c5.92-3.79,6.13-13.42.4-17.49,0,0-.63.59-.63.59.38.68.73,1.34,1.04,2.01,1.49,3.25,1.87,6.98.67,10.38-.46,1.36-1.17,2.64-2.06,3.89l.59.63h0Z"/>
        <circle class="cls-23" cx="279.08" cy="124.17" r="2.41"/>
        <circle class="cls-23" cx="290.96" cy="138.47" r="1.38"/>
      </g>
      <line class="cls-3" x1="250.61" y1="129.73" x2="233.08" y2="114.82"/>
      <g>
        <circle class="cls-13" cx="372.6" cy="134.99" r="13.13"/>
        <circle class="cls-27" cx="372.35" cy="135.02" r="24.11"/>
        <ellipse class="cls-20" cx="372.35" cy="135.2" rx="24.11" ry="20.67"/>
        <circle class="cls-27" cx="372.52" cy="135.02" r="15.15"/>
        <circle class="cls-8" cx="373.35" cy="134.96" r="35.04"/>
        <circle class="cls-18" cx="372.43" cy="134.99" r="13.13"/>
        <circle class="cls-33" cx="372.04" cy="135.14" r="10.08"/>
        <circle class="cls-29" cx="372.04" cy="135.14" r="7.78"/>
        <circle class="cls-9" cx="372.43" cy="134.99" r="13.13"/>
        <path class="cls-33" d="m370.15,129.76l-1.33-2.12c-.13-.21-.45-.06-.37.17l.77,2.38c.07.2-.18.36-.34.21l-1.81-1.72c-.18-.17-.45.05-.32.26l1.34,2.11c.11.18-.09.39-.27.29l-2.18-1.21c-.21-.12-.42.16-.24.33l1.82,1.71c.16.15.01.4-.19.35l-2.42-.63c-.24-.06-.36.26-.15.38l2.19,1.21c.19.1.11.39-.1.39h-2.5c-.24-.01-.29.33-.05.39l2.42.62c.21.05.21.35,0,.4l-2.42.61c-.24.06-.19.41.05.41h2.5c.21,0,.29.29.1.39l-2.2,1.19c-.21.12-.09.44.15.38l2.42-.62c.21-.05.35.21.19.35l-1.83,1.7c-.18.17.03.45.24.33l2.19-1.2c.19-.1.39.11.27.29l-1.35,2.1c-.13.2.14.43.31.26l1.82-1.71c.16-.15.4.01.34.22l-.78,2.37c-.08.23.24.38.37.18l1.34-2.11c.11-.18.39-.09.38.12l-.17,2.49c-.02.24.33.31.4.08l.77-2.38c.07-.2.36-.18.4.03l.46,2.46c.04.24.39.22.41-.02l.16-2.49c.01-.21.3-.27.39-.07l1.05,2.27c.1.22.44.11.39-.13l-.47-2.46c-.04-.21.23-.33.36-.17l1.58,1.93c.15.19.45,0,.35-.22l-1.06-2.26c-.09-.19.14-.38.31-.25l2.01,1.48c.2.14.44-.11.28-.3l-1.59-1.93c-.14-.17.04-.4.24-.32l2.32.93c.23.09.4-.22.2-.36l-2.02-1.47c-.17-.13-.06-.4.15-.37l2.48.33c.24.03.33-.31.1-.4l-2.32-.92c-.2-.08-.16-.37.05-.4l2.48-.3c.24-.03.24-.38,0-.41l-2.48-.32c-.21-.03-.25-.32-.05-.4l2.33-.91c.23-.09.14-.43-.1-.4l-2.48.31c-.21.03-.32-.25-.15-.37l2.03-1.46c.2-.14.03-.45-.2-.36l-2.32.92c-.2.08-.37-.16-.23-.32l1.6-1.92c.16-.19-.08-.44-.28-.3l-2.02,1.47c-.17.13-.4-.06-.31-.26l1.08-2.26c.1-.22-.19-.41-.35-.22l-1.6,1.92c-.14.16-.4.04-.36-.17l.48-2.45c.05-.24-.29-.35-.39-.13l-1.07,2.26c-.09.19-.38.14-.39-.08l-.14-2.5c-.01-.24-.36-.27-.41-.03l-.47,2.45c-.04.21-.33.23-.4.02l-.76-2.38c-.07-.23-.42-.17-.4.08l.15,2.49c.01.21-.27.3-.38.12Z"/>
        <path class="cls-18" d="m369.37,129.56l-1.56-1.99c-.17-.22-.51-.01-.4.24l1.03,2.31c.1.22-.16.43-.36.28l-2.01-1.54c-.22-.17-.5.12-.33.33l1.57,1.99c.15.19-.05.46-.28.36l-2.33-.99c-.26-.11-.46.24-.24.4l2.02,1.53c.19.15.06.46-.18.42l-2.5-.38c-.27-.04-.38.34-.13.45l2.33.98c.23.09.18.43-.07.45l-2.52.25c-.28.03-.29.43-.01.47l2.51.37c.24.04.28.37.05.45l-2.38.87c-.26.1-.17.48.11.46l2.52-.26c.24-.03.36.29.16.43l-2.09,1.44c-.23.16-.04.51.22.42l2.37-.88c.23-.09.42.19.26.38l-1.66,1.91c-.18.21.08.51.31.35l2.08-1.44c.2-.14.45.08.35.3l-1.14,2.26c-.12.25.21.47.39.26l1.66-1.92c.16-.18.46-.03.41.2l-.54,2.48c-.06.27.32.4.44.16l1.13-2.27c.11-.22.44-.15.45.1l.09,2.53c.01.28.41.31.47.04l.53-2.48c.05-.24.39-.25.46-.02l.72,2.43c.08.27.47.2.46-.08l-.1-2.53c-.01-.24.31-.34.44-.13l1.3,2.17c.14.24.51.08.43-.19l-.73-2.43c-.07-.23.22-.41.39-.24l1.8,1.78c.2.2.51-.05.37-.29l-1.31-2.17c-.13-.21.11-.45.32-.33l2.19,1.28c.24.14.48-.18.28-.37l-1.81-1.77c-.17-.17,0-.46.23-.4l2.44.69c.27.08.42-.29.18-.43l-2.19-1.27c-.21-.12-.12-.45.12-.44l2.53.06c.28,0,.34-.39.07-.46l-2.44-.68c-.24-.07-.23-.4.01-.46l2.47-.57c.27-.06.23-.46-.05-.47l-2.53-.05c-.24,0-.32-.33-.1-.45l2.25-1.16c.25-.13.11-.5-.16-.44l-2.47.58c-.24.06-.39-.24-.21-.41l1.89-1.69c.21-.18-.02-.51-.27-.39l-2.25,1.17c-.22.11-.44-.14-.3-.34l1.41-2.1c.15-.23-.15-.49-.35-.31l-1.88,1.69c-.18.16-.46-.02-.38-.25l.84-2.39c.09-.26-.26-.44-.42-.21l-1.4,2.11c-.14.2-.45.09-.43-.15l.22-2.52c.02-.28-.37-.36-.46-.1l-.83,2.39c-.08.23-.42.2-.46-.04l-.41-2.5c-.05-.27-.44-.26-.47.02l-.21,2.52c-.02.24-.35.3-.45.08l-1.02-2.32c-.11-.25-.49-.14-.45.13l.42,2.5c.04.24-.27.38-.42.18Z"/>
        <circle class="cls-19" cx="372.08" cy="134.99" r="4.86"/>
        <path class="cls-23" d="m387.94,143.78c5.92-3.79,6.13-13.42.4-17.49,0,0-.63.59-.63.59.38.68.73,1.34,1.04,2.01,1.49,3.25,1.87,6.98.67,10.38-.46,1.36-1.17,2.64-2.06,3.89l.59.63h0Z"/>
        <path class="cls-23" d="m356.83,143.81c-5.92-3.79-6.13-13.42-.4-17.49,0,0,.63.59.63.59-.38.68-.73,1.34-1.04,2.01-1.49,3.25-1.87,6.98-.67,10.38.46,1.36,1.17,2.64,2.06,3.89l-.59.63h0Z"/>
        <circle class="cls-23" cx="379.92" cy="124.17" r="2.41"/>
        <circle class="cls-23" cx="368.04" cy="138.47" r="1.38"/>
      </g>
      <path class="cls-8" d="m338.27,135.86c-5.84,0-11.69,0-17.53,0"/>
      <line class="cls-3" x1="408.39" y1="129.73" x2="425.92" y2="114.82"/>
    </g>
    <rect class="cls-35" x="228.07" y="0" width="157.77" height="70.12" rx="35.06" ry="35.06"/>
    <circle class="cls-35" cx="382.77" cy="52.15" r="40.76"/>
    <path class="cls-31" d="m363.93,199.85v4.53c0,.51-.02,1.01-.04,1.51-.11,1.86-.45,3.67-.96,5.42-3.22,10.82-13.79,19.12-26.86,20.7-1.5.19-3.02.28-4.58.28h-3.51c-17.32,0-31.48-11.69-32.38-26.4-.04-.5-.05-1-.05-1.51v-4.53h68.37Z"/>
    <path class="cls-24" d="m362.93,211.3c-3.22,10.82-13.79,19.12-26.86,20.7-.41-1.47-.63-3.02-.63-4.62,0-9.99,8.44-18.1,18.85-18.1,3.12,0,6.06.72,8.64,2.02Z"/>
    <path class="cls-23" d="m363.93,199.85v3.29c0,.37-.02.73-.04,1.1h-68.27c-.04-.36-.05-.73-.05-1.1v-3.29h68.37Z"/>
    <path class="cls-21" d="m253.95,408.46l10.93-71.87h-16.26c-7.43,0-13.51,6.63-13.51,14.73l-10.55,57.15h29.39Z"/>
    <path class="cls-21" d="m369.33,274.35c-6.84,6.73-21.69,11.39-38.94,11.39s-32.1-4.66-38.94-11.39h77.87Z"/>
    <path class="cls-34" d="m265.76,351.49l12.71-77.13h-18.91c-8.64,0-15.72,7.11-15.72,15.81l-12.27,61.33h34.18Z"/>
    <path class="cls-34" d="m392.64,351.49l-12.71-77.13h18.91c8.64,0,15.72,7.11,15.72,15.81l12.27,61.33h-34.18Z"/>
    <path class="cls-6" d="m478.56,414.42c-.76-32.4-20.59-58.36-44.95-58.36s-44.19,25.96-44.95,58.36"/>
    <path class="cls-14" d="m485.83,428.2l-18.55,41.88c-2.83,6.38-14.03,10.92-26.97,10.92h-10.04c-13.46,0-25.19-4.63-28.44-11.24l-20.45-41.56"/>
    <rect class="cls-7" x="376.2" y="415.81" width="114.83" height="12.47" rx="5.9" ry="5.9"/>
    <g class="cls-37">
      <line class="cls-2" x1="391.09" y1="428.14" x2="417.51" y2="479.47"/>
      <line class="cls-2" x1="403.6" y1="427.79" x2="430.5" y2="481.21"/>
      <line class="cls-2" x1="416.88" y1="428.04" x2="443.49" y2="481.21"/>
      <line class="cls-2" x1="430.39" y1="428.04" x2="455.96" y2="478.59"/>
      <line class="cls-2" x1="442.12" y1="428.21" x2="464.79" y2="473.36"/>
      <line class="cls-2" x1="453.45" y1="428.29" x2="470.51" y2="462.45"/>
      <line class="cls-2" x1="465.61" y1="428.12" x2="476.22" y2="449.8"/>
      <line class="cls-2" x1="475.58" y1="427.81" x2="480.9" y2="438.89"/>
      <line class="cls-2" x1="480.16" y1="428.33" x2="407.12" y2="475.1"/>
      <line class="cls-2" x1="481.38" y1="439.11" x2="417.51" y2="479.47"/>
      <line class="cls-2" x1="476.27" y1="450.17" x2="430.5" y2="481.21"/>
      <line class="cls-2" x1="470.51" y1="463.32" x2="442.97" y2="481.21"/>
      <line class="cls-2" x1="465.78" y1="428.54" x2="401.92" y2="469.87"/>
      <line class="cls-2" x1="443.01" y1="428.22" x2="394.13" y2="454.6"/>
      <line class="cls-2" x1="453.7" y1="428.05" x2="397.76" y2="461.58"/>
      <line class="cls-2" x1="430.5" y1="427.98" x2="391.53" y2="449.36"/>
      <line class="cls-2" x1="416.82" y1="428.28" x2="388.93" y2="443.69"/>
      <line class="cls-2" x1="403.93" y1="428.52" x2="386.33" y2="438.02"/>
      <line class="cls-2" x1="391.52" y1="428.43" x2="383.21" y2="432.34"/>
    </g>
    <g>
      <rect class="cls-26" x="449.8" y="415.83" width="5.13" height="2.13"/>
      <path class="cls-23" d="m378.56,422.04v4.68h-.24c-1.21-1.07-2.01-2.59-2.1-4.3-.01-.12-.02-.25-.02-.38h2.36Z"/>
      <path class="cls-26" d="m378.56,426.72v.2c-.08-.06-.16-.13-.24-.2h.24Z"/>
      <rect class="cls-26" x="378.56" y="422.04" width="5.13" height="4.68"/>
      <path class="cls-23" d="m383.69,426.72v1.56h-1.25c-1.46,0-2.81-.51-3.88-1.36v-.2h5.13Z"/>
      <rect class="cls-23" x="383.69" y="422.04" width="5.13" height="4.68"/>
      <rect class="cls-26" x="383.69" y="426.72" width="5.13" height="1.56"/>
      <rect class="cls-26" x="388.82" y="422.04" width="5.13" height="4.68"/>
      <rect class="cls-23" x="388.81" y="426.72" width="5.13" height="1.56"/>
      <rect class="cls-23" x="393.94" y="422.04" width="5.13" height="4.68"/>
      <rect class="cls-26" x="393.94" y="426.72" width="5.13" height="1.56"/>
      <rect class="cls-26" x="399.07" y="422.04" width="5.13" height="4.68"/>
      <rect class="cls-23" x="399.07" y="426.72" width="5.13" height="1.56"/>
      <rect class="cls-23" x="404.2" y="422.04" width="5.13" height="4.68"/>
      <rect class="cls-26" x="404.21" y="426.72" width="5.13" height="1.56"/>
      <rect class="cls-26" x="409.33" y="422.04" width="5.13" height="4.68"/>
      <rect class="cls-23" x="414.46" y="422.04" width="5.13" height="4.68"/>
      <rect class="cls-26" x="414.46" y="426.72" width="5.13" height="1.56"/>
      <rect class="cls-26" x="419.59" y="422.04" width="5.13" height="4.68"/>
      <rect class="cls-23" x="419.59" y="426.72" width="5.13" height="1.56"/>
      <rect class="cls-23" x="424.72" y="422.04" width="5.13" height="4.68"/>
      <rect class="cls-26" x="424.72" y="426.72" width="5.13" height="1.56"/>
      <rect class="cls-26" x="429.85" y="422.04" width="5.13" height="4.68"/>
      <rect class="cls-23" x="429.85" y="426.72" width="5.13" height="1.56"/>
      <rect class="cls-23" x="434.98" y="422.04" width="5.13" height="4.68"/>
      <rect class="cls-26" x="434.98" y="426.72" width="5.13" height="1.56"/>
      <path class="cls-23" d="m378.14,417.53v.22h-.22s.07-.07.1-.11c.04-.04.07-.07.11-.11Z"/>
      <path class="cls-26" d="m378.14,417.75v4.68h-1.93c-.01-.12-.02-.25-.02-.38,0-1.66.66-3.17,1.73-4.3h.22Z"/>
      <path class="cls-26" d="m383.27,415.81v1.94h-5.13v-.22c1.12-1.07,2.63-1.72,4.29-1.72h.84Z"/>
      <rect class="cls-23" x="378.14" y="417.74" width="5.13" height="4.68"/>
      <rect class="cls-23" x="383.27" y="415.81" width="5.13" height="1.94"/>
      <rect class="cls-26" x="383.27" y="417.74" width="5.13" height="4.68"/>
      <rect class="cls-26" x="388.4" y="415.81" width="5.13" height="1.94"/>
      <rect class="cls-23" x="388.4" y="417.74" width="5.13" height="4.68"/>
      <rect class="cls-23" x="393.53" y="415.81" width="5.13" height="1.94"/>
      <rect class="cls-26" x="393.53" y="417.74" width="5.13" height="4.68"/>
      <rect class="cls-26" x="398.66" y="415.81" width="5.13" height="1.94"/>
      <rect class="cls-23" x="398.66" y="417.74" width="5.13" height="4.68"/>
      <rect class="cls-23" x="403.79" y="415.81" width="5.13" height="1.94"/>
      <rect class="cls-26" x="403.79" y="417.74" width="5.13" height="4.68"/>
      <rect class="cls-26" x="408.92" y="415.81" width="5.13" height="1.94"/>
      <rect class="cls-23" x="408.92" y="417.74" width="5.13" height="4.68"/>
      <rect class="cls-23" x="414.05" y="415.81" width="5.13" height="1.94"/>
      <rect class="cls-26" x="414.05" y="417.74" width="5.13" height="4.68"/>
      <rect class="cls-26" x="419.18" y="415.81" width="5.13" height="1.94"/>
      <rect class="cls-23" x="419.18" y="417.74" width="5.13" height="4.68"/>
      <rect class="cls-23" x="424.31" y="415.81" width="5.13" height="1.94"/>
      <rect class="cls-26" x="424.31" y="417.74" width="5.13" height="4.68"/>
      <rect class="cls-26" x="429.44" y="415.81" width="5.13" height="1.94"/>
      <rect class="cls-23" x="429.44" y="417.74" width="5.13" height="4.68"/>
      <rect class="cls-23" x="434.57" y="415.81" width="5.13" height="1.94"/>
      <rect class="cls-26" x="434.57" y="417.74" width="5.13" height="4.68"/>
      <rect class="cls-26" x="450.19" y="422.23" width="5.13" height="4.68"/>
      <rect class="cls-23" x="450.18" y="426.91" width="5.13" height="1.37"/>
      <rect class="cls-23" x="455.32" y="422.23" width="5.13" height="4.68"/>
      <rect class="cls-26" x="455.32" y="426.91" width="5.13" height="1.37"/>
      <rect class="cls-26" x="460.45" y="422.23" width="5.13" height="4.68"/>
      <rect class="cls-23" x="460.45" y="426.91" width="5.13" height="1.37"/>
      <rect class="cls-23" x="465.58" y="422.23" width="5.13" height="4.68"/>
      <rect class="cls-26" x="465.58" y="426.91" width="5.13" height="1.37"/>
      <rect class="cls-26" x="470.7" y="422.23" width="5.13" height="4.68"/>
      <rect class="cls-23" x="470.7" y="426.91" width="5.13" height="1.37"/>
      <rect class="cls-23" x="475.83" y="422.23" width="5.13" height="4.68"/>
      <rect class="cls-26" x="475.83" y="426.91" width="5.13" height="1.37"/>
      <rect class="cls-26" x="480.96" y="422.23" width="5.13" height="4.68"/>
      <path class="cls-23" d="m486.09,426.91v1.24c-.42.09-.85.14-1.3.14h-3.83v-1.37h5.13Z"/>
      <rect class="cls-23" x="486.09" y="422.23" width="5.13" height="4.68"/>
      <path class="cls-26" d="m488.69,426.91c-.75.6-1.63,1.03-2.59,1.24v-1.24h2.59Z"/>
      <rect class="cls-26" x="440.36" y="422.23" width="5.13" height="4.68"/>
      <rect class="cls-23" x="440.35" y="426.91" width="5.13" height="1.37"/>
      <rect class="cls-23" x="445.48" y="422.23" width="5.13" height="4.68"/>
      <rect class="cls-26" x="445.49" y="426.91" width="5.13" height="1.37"/>
      <rect class="cls-23" x="449.77" y="417.93" width="5.13" height="4.68"/>
      <rect class="cls-23" x="454.9" y="415.81" width="5.13" height="2.13"/>
      <rect class="cls-26" x="454.9" y="417.93" width="5.13" height="4.68"/>
      <rect class="cls-26" x="460.03" y="415.81" width="5.13" height="2.13"/>
      <rect class="cls-23" x="460.03" y="417.93" width="5.13" height="4.68"/>
      <rect class="cls-23" x="465.16" y="415.81" width="5.13" height="2.13"/>
      <rect class="cls-26" x="465.16" y="417.93" width="5.13" height="4.68"/>
      <rect class="cls-26" x="470.29" y="415.81" width="5.13" height="2.13"/>
      <rect class="cls-23" x="470.29" y="417.93" width="5.13" height="4.68"/>
      <rect class="cls-23" x="475.42" y="415.81" width="5.13" height="2.13"/>
      <rect class="cls-26" x="475.42" y="417.93" width="5.13" height="4.68"/>
      <path class="cls-26" d="m485.68,415.87v2.06h-5.13v-2.13h4.25c.3,0,.6.02.88.06Z"/>
      <rect class="cls-23" x="480.55" y="417.93" width="5.13" height="4.68"/>
      <path class="cls-23" d="m489.48,417.93h-3.8v-2.06c1.5.22,2.84.97,3.8,2.06Z"/>
      <path class="cls-1" d="m490.81,417.93v2.46c-.25-.92-.72-1.76-1.33-2.46h1.33Z"/>
      <path class="cls-26" d="m490.81,420.4v2.21h-5.13v-4.68h3.8c.61.7,1.08,1.54,1.33,2.46Z"/>
      <rect class="cls-26" x="439.94" y="415.81" width="5.13" height="2.13"/>
      <rect class="cls-23" x="439.94" y="417.93" width="5.13" height="4.68"/>
      <rect class="cls-26" x="445.07" y="417.93" width="5.13" height="4.68"/>
      <path class="cls-23" d="m491.22,422.23v.38h-.42v-2.21c.15.52.22,1.08.22,1.65,0,.06,0,.12,0,.19h.2Z"/>
      <path class="cls-6" d="m491,422.61c-.14,1.49-.8,2.83-1.8,3.84-.16.16-.33.32-.51.46-.75.6-1.63,1.03-2.59,1.24-.42.09-.85.14-1.3.14h-102.36c-1.46,0-2.81-.51-3.88-1.36-.08-.06-.16-.13-.24-.2-1.21-1.07-2.01-2.59-2.1-4.3-.01-.12-.02-.25-.02-.38,0-1.66.66-3.17,1.73-4.3.04-.04.07-.07.1-.11.04-.04.07-.07.11-.11,1.12-1.07,2.63-1.72,4.29-1.72h102.36c.3,0,.6.02.88.06,1.5.22,2.84.97,3.8,2.06.61.7,1.08,1.54,1.33,2.46.15.52.22,1.08.22,1.65"/>
    </g>
    <path class="cls-28" d="m225.92,231.86h.33c-.22,0-.43.03-.65.06-1.24.2-34.89.2-36.1.2H10.53c-5.79,0-10.53-2.81-10.53-6.24v-77.42c0-3.43,4.74-6.24,10.53-6.24h178.98c5.79,0,10.53,2.81,10.53,6.24v54.5l30.27,23.77c2.69,2.12.1,5.15-4.39,5.13Z"/>
    <text class="cls-36" transform="translate(15.22 181.2)"><tspan class="cls-38" x="0" y="0">V</tspan><tspan x="11.65" y="0">ælg hvil</tspan><tspan class="cls-39" x="79.4" y="0">k</tspan><tspan x="88.56" y="0">en måned </tspan><tspan x="0" y="22.8">du vil san</tspan><tspan class="cls-39" x="82" y="22.8">k</tspan><tspan x="91.16" y="22.8">e i</tspan></text>
  </g>
</svg>