<?xml version="1.0" encoding="UTF-8"?><svg id="Layer_5" xmlns="http://www.w3.org/2000/svg" width="670" height="670" xmlns:xlink="http://www.w3.org/1999/xlink" viewBox="0 0 670 670"><defs><style>.cls-1,.cls-2,.cls-3,.cls-4,.cls-5,.cls-6,.cls-7,.cls-8,.cls-9,.cls-10{fill:none;}.cls-11{fill:url(#linear-gradient);}.cls-2,.cls-12,.cls-3,.cls-5,.cls-13,.cls-14,.cls-15,.cls-16,.cls-17,.cls-6,.cls-7,.cls-8,.cls-9{stroke-miterlimit:10;}.cls-2,.cls-4{stroke:#673606;}.cls-2,.cls-15,.cls-16{stroke-width:.88px;}.cls-12{fill:#00009f;}.cls-12,.cls-4,.cls-17{stroke-width:2.63px;}.cls-12,.cls-17,.cls-7{stroke:#000;}.cls-18{fill:#02b6af;}.cls-19{fill:#000621;}.cls-20{fill:#f0f0f0;}.cls-21{fill:#ffdfc5;}.cls-22{fill:#e7a43f;}.cls-23,.cls-13{fill:#fff;}.cls-24,.cls-16,.cls-25{fill:#ffccc6;}.cls-26{fill:red;}.cls-27{fill:#e4e4e4;}.cls-28{fill:#fdf6f5;}.cls-29{fill:#89ece9;}.cls-30{fill:#cab095;}.cls-31{fill:#cbcbcb;}.cls-32{fill:#d37100;}.cls-33{fill:#13d5cc;}.cls-34{fill:#495315;}.cls-35{fill:#7c4a1a;}.cls-3,.cls-4,.cls-10{stroke-linecap:round;}.cls-3,.cls-13,.cls-8,.cls-9{stroke:#000046;}.cls-3,.cls-14,.cls-6,.cls-7,.cls-8{stroke-width:1.75px;}.cls-4,.cls-10{stroke-linejoin:round;}.cls-5{stroke-width:.26px;}.cls-5,.cls-10{stroke:#ad7a4a;}.cls-13,.cls-9{stroke-width:3.51px;}.cls-14{fill:#cd9965;}.cls-14,.cls-6{stroke:#7c4a1a;}.cls-15{fill:#00a14c;stroke:#00943a;}.cls-16{stroke:#ffccc6;}.cls-36{opacity:.25;}.cls-25{opacity:.45;}.cls-37{fill:#facaaa;opacity:.63;}.cls-10{stroke-width:.44px;}</style><linearGradient id="linear-gradient" x1="401.18" y1="674.9" x2="440.11" y2="674.9" gradientTransform="translate(-106.36 -105.68) rotate(-9.48)" gradientUnits="userSpaceOnUse"><stop offset="0" stop-color="#7ac710"/><stop offset="1" stop-color="#ff0006"/></linearGradient></defs><rect class="cls-34" x="276.99" y="356.35" width="116.58" height="158.65"/><path class="cls-21" d="m412.09,497.47l-11.56-78.89h17.19c7.86,0,14.29,7.27,14.29,16.17l11.16,62.72h-31.09Z"/><g><path class="cls-15" d="m413.94,472.87c-.79-.76-.2-3.34,1.11-4.85.71-.81,1.09-.69,3.21-1.95,2.65-1.56,3.38-2.52,3.89-2.17.62.43.23,2.35-.22,3.51-.15.37-.75,1.82-2.77,3.39-.3.23-4.07,3.16-5.22,2.06Z"/><path class="cls-4" d="m410.46,471.48c3.14.66,5.63,3,6.4,6.01,1.01,4-1.55,7.09-1.8,7.38"/><path class="cls-11" d="m416.22,477.74c1.73-.74,1.56-2.22,3.87-3.92,0,0,1.48-1.08,3.31-1.58,3.92-1.06,7.58,1.06,8.36,1.51,7.34,4.25,7.21,15.31,7.18,16.49-.15,5.83-2.63,11.23-5.65,13.44-.8.59-3.71,2.73-5.61,2.08-.23-.08-.8-.32-1.48-.16-.95.22-1.48,1.09-1.64,1.32-1.28,1.82-6.12,1.67-8.37,1.33-6.74-1.01-10.88-6.82-11.96-8.33-1.52-2.13-6.08-8.54-3.76-14.92.32-.89,1.71-4.35,5.16-6.17,2.29-1.21,4.79-1.33,5.53-1.34,2.88-.06,3.51.91,5.06.25Z"/></g><g><path class="cls-30" d="m461.79,510.97l-1.16-.35c-3.22-.98-5.23-3.77-4.49-6.23l9.54-31.5c.75-2.46,3.97-3.67,7.19-2.69l1.16.35c3.22.98,5.23,3.77,4.49,6.23l-11.86,30.22c-.75,2.46-1.65,4.95-4.87,3.97Z"/><path class="cls-32" d="m466.99,479.12c13.14,4.06,16.53,7.14,20.4,4.84,3.71-2.19,4.71-7.42,4.57-10.67-.29-6.77-5.79-10.93-8.19-12.75-6.9-5.22-19.31-8.87-27.78-2.61-4.53,3.35-8.58,10.01-6.63,14.51,1.5,3.46,5.38,2.9,17.62,6.68Z"/></g><g><path class="cls-22" d="m447.72,493.92c-.82-2.35-.55-4.42-2.11-5.77-3.76-3.25-9.39-.28-11.45-3.24-1.04-1.49-.9-3.69-.1-5.05.83-1.42,2.15-1.57,6.97-3.07,5.09-1.59,6.23-3.4,7.31-4.6,1.58-1.75,3.19-2.58,5.14-3.19.15-.05,1.92-.58,2.86.3,1.41,1.34-.01,5.07-1.14,8.04-1.72,4.51-3.05,5.53-2.64,7.75.28,1.5,1,1.67,2.7,4.12,1.68,2.42,4.14,5.99,3.88,10-.14,2.18-1.17,5.83-3.86,6.65-1.73.52-3.86-.2-5.16-1.55-2.26-2.34-.5-5-2.38-10.4Z"/><path class="cls-10" d="m434.72,483.28c3.14-3.02,6.01-4.34,8.1-4.99,2.1-.65,4.18-.72,6.51-2.34,1.61-1.12,2.79-2.71,3.1-3.05.92-1.03,1.6-1.99,2.07-2.71"/><g><path class="cls-5" d="m442.02,485.33c.78.26,1.72.65,2.74,1.24.87.5,1.59,1.04,2.17,1.52"/><path class="cls-5" d="m442.48,484.33c1.37.41,2.17,1.03,2.65,1.54.3.32.68.8,1.39,1.39.43.35.82.6,1.08.76"/><path class="cls-5" d="m443.81,483.68c.73.33,1.97,1.03,3.06,2.38.51.64.87,1.26,1.11,1.78"/><path class="cls-5" d="m444.86,482.91c.33.25.79.64,1.29,1.18.52.56.85,1.04,1.3,1.69.27.38.62.92,1.01,1.57"/><path class="cls-5" d="m446.31,482.97c.33.3.8.78,1.2,1.48.22.38.28.59.51,1.04.22.44.57,1.07,1.11,1.78"/><path class="cls-5" d="m447.25,481.99l.71,1.46,1.94,3.96"/><path class="cls-5" d="m448.41,481.94c.3.64.44,1.17.52,1.55.15.71.09.99.33,1.64.18.49.4.86.51,1.04.24.4.49.72.7.95"/><path class="cls-5" d="m449.45,481.17c.27.92.33,1.65.34,2.16.01.67-.07.98.04,1.53.15.75.53,1.31.82,1.67"/><path class="cls-5" d="m450.41,480.71c-.16.47-.5,1.67-.11,3.15.25.98.72,1.69,1.02,2.08"/><path class="cls-5" d="m451.64,479.84c-.08.22-.18.53-.27.91-.12.52-.32,1.37-.23,2.44.09,1.03.43,1.88.74,2.48"/></g></g><ellipse class="cls-12" cx="342.68" cy="302.58" rx="16.35" ry="16.65"/><ellipse class="cls-17" cx="342.68" cy="302.58" rx="16.35" ry="16.65"/><rect class="cls-35" x="215.63" y="121.44" width="232.54" height="96.42" rx="35.06" ry="35.06"/><rect class="cls-21" x="237.78" y="133.71" width="194.59" height="194.59" rx="83.27" ry="83.27"/><path class="cls-21" d="m241.51,199.45h2.08c7.3,0,13.23,5.93,13.23,13.23v37.15c0,7.51-6.1,13.61-13.61,13.61h0c-18.13,0-32.85-14.72-32.85-32.85h0c0-17.19,13.95-31.14,31.14-31.14Z"/><path class="cls-25" d="m232.12,219.61h0c2.51,0,4.55,2.04,4.55,4.55v24.21c0,2.51-2.04,4.55-4.55,4.55h0c-7.16,0-12.98-5.82-12.98-12.98v-7.35c0-7.16,5.82-12.98,12.98-12.98Z"/><path class="cls-37" d="m235.35,233.64h1.31v13.15h-1.32c-3.63,0-6.57-2.95-6.57-6.57h0c0-3.63,2.95-6.57,6.57-6.57Z"/><path class="cls-21" d="m433.42,202.08h0c7.51,0,13.61,6.1,13.61,13.61v37.15c0,7.3-5.93,13.23-13.23,13.23h-2.08c-17.19,0-31.14-13.95-31.14-31.14h0c0-18.13,14.72-32.85,32.85-32.85Z" transform="translate(847.61 468.15) rotate(180)"/><path class="cls-25" d="m433.72,222.24h0c2.51,0,4.55,2.04,4.55,4.55v24.21c0,2.51-2.04,4.55-4.55,4.55h0c-7.16,0-12.98-5.82-12.98-12.98v-7.35c0-7.16,5.82-12.98,12.98-12.98Z" transform="translate(859 477.79) rotate(180)"/><path class="cls-37" d="m427.31,236.27h1.32v13.15h-1.31c-3.63,0-6.57-2.95-6.57-6.57h0c0-3.63,2.95-6.57,6.57-6.57Z" transform="translate(849.36 485.68) rotate(180)"/><rect class="cls-21" x="319.71" y="328.3" width="31.55" height="36.81"/><path class="cls-16" d="m334.23,263.88h-7.84c-4.95,0-8.05-6.37-5.57-11.46l3.92-8.06,3.92-8.06c2.48-5.09,8.66-5.09,11.14,0l3.92,8.06,3.92,8.06c2.48,5.09-.62,11.46-5.57,11.46h-7.84Z"/><path class="cls-8" d="m326.07,217.86h17.53"/><g><g><circle class="cls-13" cx="291.49" cy="216.99" r="13.13"/><circle class="cls-27" cx="291.75" cy="217.02" r="24.11"/><ellipse class="cls-20" cx="291.75" cy="217.2" rx="24.11" ry="20.67"/><circle class="cls-27" cx="291.58" cy="217.02" r="15.15"/><circle class="cls-8" cx="290.74" cy="216.96" r="35.04"/><circle class="cls-18" cx="291.67" cy="216.99" r="13.13"/><circle class="cls-33" cx="292.06" cy="217.14" r="10.08"/><circle class="cls-29" cx="292.06" cy="217.14" r="7.78"/><circle class="cls-9" cx="291.67" cy="216.99" r="13.13"/><path class="cls-33" d="m293.95,211.76l1.33-2.12c.13-.21.45-.06.37.17l-.77,2.38c-.07.2.18.36.34.21l1.81-1.72c.18-.17.45.05.32.26l-1.34,2.11c-.11.18.09.39.27.29l2.18-1.21c.21-.12.42.16.24.33l-1.82,1.71c-.16.15-.01.4.19.35l2.42-.63c.24-.06.36.26.15.38l-2.19,1.21c-.19.1-.11.39.1.39h2.5c.24-.01.29.33.05.39l-2.42.62c-.21.05-.21.35,0,.4l2.42.61c.24.06.19.41-.05.41h-2.5c-.21,0-.29.29-.1.39l2.2,1.19c.21.12.09.44-.15.38l-2.42-.62c-.21-.05-.35.21-.19.35l1.83,1.7c.18.17-.03.45-.24.33l-2.19-1.2c-.19-.1-.39.11-.27.29l1.35,2.1c.13.2-.14.43-.31.26l-1.82-1.71c-.16-.15-.4.01-.34.22l.78,2.37c.08.23-.24.38-.37.18l-1.34-2.11c-.11-.18-.39-.09-.38.12l.17,2.49c.02.24-.33.31-.4.08l-.77-2.38c-.07-.2-.36-.18-.4.03l-.46,2.46c-.04.24-.39.22-.41-.02l-.16-2.49c-.01-.21-.3-.27-.39-.07l-1.05,2.27c-.1.22-.44.11-.39-.13l.47-2.46c.04-.21-.23-.33-.36-.17l-1.58,1.93c-.15.19-.45,0-.35-.22l1.06-2.26c.09-.19-.14-.38-.31-.25l-2.01,1.48c-.2.14-.44-.11-.28-.3l1.59-1.93c.14-.17-.04-.4-.24-.32l-2.32.93c-.23.09-.4-.22-.2-.36l2.02-1.47c.17-.13.06-.4-.15-.37l-2.48.33c-.24.03-.33-.31-.1-.4l2.32-.92c.2-.08.16-.37-.05-.4l-2.48-.3c-.24-.03-.24-.38,0-.41l2.48-.32c.21-.03.25-.32.05-.4l-2.33-.91c-.23-.09-.14-.43.1-.4l2.48.31c.21.03.32-.25.15-.37l-2.03-1.46c-.2-.14-.03-.45.2-.36l2.32.92c.2.08.37-.16.23-.32l-1.6-1.92c-.16-.19.08-.44.28-.3l2.02,1.47c.17.13.4-.06.31-.26l-1.08-2.26c-.1-.22.19-.41.35-.22l1.6,1.92c.14.16.4.04.36-.17l-.48-2.45c-.05-.24.29-.35.39-.13l1.07,2.26c.09.19.38.14.39-.08l.14-2.5c.01-.24.36-.27.41-.03l.47,2.45c.04.21.33.23.4.02l.76-2.38c.07-.23.42-.17.4.08l-.15,2.49c-.01.21.27.3.38.12Z"/><path class="cls-18" d="m294.73,211.56l1.56-1.99c.17-.22.51-.01.4.24l-1.03,2.31c-.1.22.16.43.36.28l2.01-1.54c.22-.17.5.12.33.33l-1.57,1.99c-.15.19.05.46.28.36l2.33-.99c.26-.11.46.24.24.4l-2.02,1.53c-.19.15-.06.46.18.42l2.5-.38c.27-.04.38.34.13.45l-2.33.98c-.23.09-.18.43.07.45l2.52.25c.28.03.29.43.01.47l-2.51.37c-.24.04-.28.37-.05.45l2.38.87c.26.1.17.48-.11.46l-2.52-.26c-.24-.03-.36.29-.16.43l2.09,1.44c.23.16.04.51-.22.42l-2.37-.88c-.23-.09-.42.19-.26.38l1.66,1.91c.18.21-.08.51-.31.35l-2.08-1.44c-.2-.14-.45.08-.35.3l1.14,2.26c.12.25-.21.47-.39.26l-1.66-1.92c-.16-.18-.46-.03-.41.2l.54,2.48c.06.27-.32.4-.44.16l-1.13-2.27c-.11-.22-.44-.15-.45.1l-.09,2.53c-.01.28-.41.31-.47.04l-.53-2.48c-.05-.24-.39-.25-.46-.02l-.72,2.43c-.08.27-.47.2-.46-.08l.1-2.53c.01-.24-.31-.34-.44-.13l-1.3,2.17c-.14.24-.51.08-.43-.19l.73-2.43c.07-.23-.22-.41-.39-.24l-1.8,1.78c-.2.2-.51-.05-.37-.29l1.31-2.17c.13-.21-.11-.45-.32-.33l-2.19,1.28c-.24.14-.48-.18-.28-.37l1.81-1.77c.17-.17,0-.46-.23-.4l-2.44.69c-.27.08-.42-.29-.18-.43l2.19-1.27c.21-.12.12-.45-.12-.44l-2.53.06c-.28,0-.34-.39-.07-.46l2.44-.68c.24-.07.23-.4-.01-.46l-2.47-.57c-.27-.06-.23-.46.05-.47l2.53-.05c.24,0,.32-.33.1-.45l-2.25-1.16c-.25-.13-.11-.5.16-.44l2.47.58c.24.06.39-.24.21-.41l-1.89-1.69c-.21-.18.02-.51.27-.39l2.25,1.17c.22.11.44-.14.3-.34l-1.41-2.1c-.15-.23.15-.49.35-.31l1.88,1.69c.18.16.46-.02.38-.25l-.84-2.39c-.09-.26.26-.44.42-.21l1.4,2.11c.14.2.45.09.43-.15l-.22-2.52c-.02-.28.37-.36.46-.1l.83,2.39c.08.23.42.2.46-.04l.41-2.5c.05-.27.44-.26.47.02l.21,2.52c.02.24.35.3.45.08l1.02-2.32c.11-.25.49-.14.45.13l-.42,2.5c-.04.24.27.38.42.18Z"/><circle class="cls-19" cx="292.01" cy="216.99" r="4.86"/><path class="cls-23" d="m276.16,225.78c-5.92-3.79-6.13-13.42-.4-17.49,0,0,.63.59.63.59-.38.68-.73,1.34-1.04,2.01-1.49,3.25-1.87,6.98-.67,10.38.46,1.36,1.17,2.64,2.06,3.89l-.59.63h0Z"/><path class="cls-23" d="m307.27,225.81c5.92-3.79,6.13-13.42.4-17.49,0,0-.63.59-.63.59.38.68.73,1.34,1.04,2.01,1.49,3.25,1.87,6.98.67,10.38-.46,1.36-1.17,2.64-2.06,3.89l.59.63h0Z"/><circle class="cls-23" cx="284.17" cy="206.17" r="2.41"/><circle class="cls-23" cx="296.05" cy="220.47" r="1.38"/></g><line class="cls-3" x1="255.71" y1="211.73" x2="238.18" y2="196.82"/><g><circle class="cls-13" cx="377.69" cy="216.99" r="13.13"/><circle class="cls-27" cx="377.44" cy="217.02" r="24.11"/><ellipse class="cls-20" cx="377.44" cy="217.2" rx="24.11" ry="20.67"/><circle class="cls-27" cx="377.61" cy="217.02" r="15.15"/><circle class="cls-8" cx="378.44" cy="216.96" r="35.04"/><circle class="cls-18" cx="377.52" cy="216.99" r="13.13"/><circle class="cls-33" cx="377.13" cy="217.14" r="10.08"/><circle class="cls-29" cx="377.13" cy="217.14" r="7.78"/><circle class="cls-9" cx="377.52" cy="216.99" r="13.13"/><path class="cls-33" d="m375.24,211.76l-1.33-2.12c-.13-.21-.45-.06-.37.17l.77,2.38c.07.2-.18.36-.34.21l-1.81-1.72c-.18-.17-.45.05-.32.26l1.34,2.11c.11.18-.09.39-.27.29l-2.18-1.21c-.21-.12-.42.16-.24.33l1.82,1.71c.16.15.01.4-.19.35l-2.42-.63c-.24-.06-.36.26-.15.38l2.19,1.21c.19.1.11.39-.1.39h-2.5c-.24-.01-.29.33-.05.39l2.42.62c.21.05.21.35,0,.4l-2.42.61c-.24.06-.19.41.05.41h2.5c.21,0,.29.29.1.39l-2.2,1.19c-.21.12-.09.44.15.38l2.42-.62c.21-.05.35.21.19.35l-1.83,1.7c-.18.17.03.45.24.33l2.19-1.2c.19-.1.39.11.27.29l-1.35,2.1c-.13.2.14.43.31.26l1.82-1.71c.16-.15.4.01.34.22l-.78,2.37c-.08.23.24.38.37.18l1.34-2.11c.11-.18.39-.09.38.12l-.17,2.49c-.02.24.33.31.4.08l.77-2.38c.07-.2.36-.18.4.03l.46,2.46c.04.24.39.22.41-.02l.16-2.49c.01-.21.3-.27.39-.07l1.05,2.27c.1.22.44.11.39-.13l-.47-2.46c-.04-.21.23-.33.36-.17l1.58,1.93c.15.19.45,0,.35-.22l-1.06-2.26c-.09-.19.14-.38.31-.25l2.01,1.48c.2.14.44-.11.28-.3l-1.59-1.93c-.14-.17.04-.4.24-.32l2.32.93c.23.09.4-.22.2-.36l-2.02-1.47c-.17-.13-.06-.4.15-.37l2.48.33c.24.03.33-.31.1-.4l-2.32-.92c-.2-.08-.16-.37.05-.4l2.48-.3c.24-.03.24-.38,0-.41l-2.48-.32c-.21-.03-.25-.32-.05-.4l2.33-.91c.23-.09.14-.43-.1-.4l-2.48.31c-.21.03-.32-.25-.15-.37l2.03-1.46c.2-.14.03-.45-.2-.36l-2.32.92c-.2.08-.37-.16-.23-.32l1.6-1.92c.16-.19-.08-.44-.28-.3l-2.02,1.47c-.17.13-.4-.06-.31-.26l1.08-2.26c.1-.22-.19-.41-.35-.22l-1.6,1.92c-.14.16-.4.04-.36-.17l.48-2.45c.05-.24-.29-.35-.39-.13l-1.07,2.26c-.09.19-.38.14-.39-.08l-.14-2.5c-.01-.24-.36-.27-.41-.03l-.47,2.45c-.04.21-.33.23-.4.02l-.76-2.38c-.07-.23-.42-.17-.4.08l.15,2.49c.01.21-.27.3-.38.12Z"/><path class="cls-18" d="m374.46,211.56l-1.56-1.99c-.17-.22-.51-.01-.4.24l1.03,2.31c.1.22-.16.43-.36.28l-2.01-1.54c-.22-.17-.5.12-.33.33l1.57,1.99c.15.19-.05.46-.28.36l-2.33-.99c-.26-.11-.46.24-.24.4l2.02,1.53c.19.15.06.46-.18.42l-2.5-.38c-.27-.04-.38.34-.13.45l2.33.98c.23.09.18.43-.07.45l-2.52.25c-.28.03-.29.43-.01.47l2.51.37c.24.04.28.37.05.45l-2.38.87c-.26.1-.17.48.11.46l2.52-.26c.24-.03.36.29.16.43l-2.09,1.44c-.23.16-.04.51.22.42l2.37-.88c.23-.09.42.19.26.38l-1.66,1.91c-.18.21.08.51.31.35l2.08-1.44c.2-.14.45.08.35.3l-1.14,2.26c-.12.25.21.47.39.26l1.66-1.92c.16-.18.46-.03.41.2l-.54,2.48c-.06.27.32.4.44.16l1.13-2.27c.11-.22.44-.15.45.1l.09,2.53c.01.28.41.31.47.04l.53-2.48c.05-.24.39-.25.46-.02l.72,2.43c.08.27.47.2.46-.08l-.1-2.53c-.01-.24.31-.34.44-.13l1.3,2.17c.14.24.51.08.43-.19l-.73-2.43c-.07-.23.22-.41.39-.24l1.8,1.78c.2.2.51-.05.37-.29l-1.31-2.17c-.13-.21.11-.45.32-.33l2.19,1.28c.24.14.48-.18.28-.37l-1.81-1.77c-.17-.17,0-.46.23-.4l2.44.69c.27.08.42-.29.18-.43l-2.19-1.27c-.21-.12-.12-.45.12-.44l2.53.06c.28,0,.34-.39.07-.46l-2.44-.68c-.24-.07-.23-.4.01-.46l2.47-.57c.27-.06.23-.46-.05-.47l-2.53-.05c-.24,0-.32-.33-.1-.45l2.25-1.16c.25-.13.11-.5-.16-.44l-2.47.58c-.24.06-.39-.24-.21-.41l1.89-1.69c.21-.18-.02-.51-.27-.39l-2.25,1.17c-.22.11-.44-.14-.3-.34l1.41-2.1c.15-.23-.15-.49-.35-.31l-1.88,1.69c-.18.16-.46-.02-.38-.25l.84-2.39c.09-.26-.26-.44-.42-.21l-1.4,2.11c-.14.2-.45.09-.43-.15l.22-2.52c.02-.28-.37-.36-.46-.1l-.83,2.39c-.08.23-.42.2-.46-.04l-.41-2.5c-.05-.27-.44-.26-.47.02l-.21,2.52c-.02.24-.35.3-.45.08l-1.02-2.32c-.11-.25-.49-.14-.45.13l.42,2.5c.04.24-.27.38-.42.18Z"/><circle class="cls-19" cx="377.18" cy="216.99" r="4.86"/><path class="cls-23" d="m393.03,225.78c5.92-3.79,6.13-13.42.4-17.49,0,0-.63.59-.63.59.38.68.73,1.34,1.04,2.01,1.49,3.25,1.87,6.98.67,10.38-.46,1.36-1.17,2.64-2.06,3.89l.59.63h0Z"/><path class="cls-23" d="m361.92,225.81c-5.92-3.79-6.13-13.42-.4-17.49,0,0,.63.59.63.59-.38.68-.73,1.34-1.04,2.01-1.49,3.25-1.87,6.98-.67,10.38.46,1.36,1.17,2.64,2.06,3.89l-.59.63h0Z"/><circle class="cls-23" cx="385.02" cy="206.17" r="2.41"/><circle class="cls-23" cx="373.13" cy="220.47" r="1.38"/></g><path class="cls-8" d="m343.36,217.86c-5.84,0-11.69,0-17.53,0"/><line class="cls-3" x1="413.48" y1="211.73" x2="431.01" y2="196.82"/></g><rect class="cls-35" x="233.16" y="82" width="157.77" height="70.12" rx="35.06" ry="35.06"/><circle class="cls-35" cx="387.87" cy="134.15" r="40.76"/><path class="cls-31" d="m369.02,281.85v4.53c0,.51-.02,1.01-.04,1.51-.11,1.86-.45,3.67-.96,5.42-3.22,10.82-13.79,19.12-26.86,20.7-1.5.19-3.02.28-4.58.28h-3.51c-17.32,0-31.48-11.69-32.38-26.4-.04-.5-.05-1-.05-1.51v-4.53h68.37Z"/><path class="cls-24" d="m368.02,293.3c-3.22,10.82-13.79,19.12-26.86,20.7-.41-1.47-.63-3.02-.63-4.62,0-9.99,8.44-18.1,18.85-18.1,3.12,0,6.06.72,8.64,2.02Z"/><path class="cls-23" d="m369.02,281.85v3.29c0,.37-.02.73-.04,1.1h-68.27c-.04-.36-.05-.73-.05-1.1v-3.29h68.37Z"/><path class="cls-21" d="m259.05,490.46l10.93-71.87h-16.26c-7.43,0-13.51,6.63-13.51,14.73l-10.55,57.15h29.39Z"/><path class="cls-21" d="m374.42,356.35c-6.84,6.73-21.69,11.39-38.94,11.39s-32.1-4.66-38.94-11.39h77.87Z"/><path class="cls-34" d="m270.85,433.49l12.71-77.13h-18.91c-8.64,0-15.72,7.11-15.72,15.81l-12.27,61.33h34.18Z"/><path class="cls-34" d="m397.73,433.49l-12.71-77.13h18.91c8.64,0,15.72,7.11,15.72,15.81l12.27,61.33h-34.18Z"/><path class="cls-6" d="m483.65,496.42c-.76-32.4-20.59-58.36-44.95-58.36s-44.19,25.96-44.95,58.36"/><path class="cls-14" d="m490.93,510.2l-18.55,41.88c-2.83,6.38-14.03,10.92-26.97,10.92h-10.04c-13.46,0-25.19-4.63-28.44-11.24l-20.45-41.56"/><rect class="cls-7" x="381.29" y="497.81" width="114.83" height="12.47" rx="5.9" ry="5.9"/><g class="cls-36"><line class="cls-2" x1="396.18" y1="510.14" x2="422.6" y2="561.47"/><line class="cls-2" x1="408.7" y1="509.79" x2="435.59" y2="563.21"/><line class="cls-2" x1="421.97" y1="510.04" x2="448.58" y2="563.21"/><line class="cls-2" x1="435.48" y1="510.04" x2="461.05" y2="560.59"/><line class="cls-2" x1="447.22" y1="510.21" x2="469.88" y2="555.36"/><line class="cls-2" x1="458.54" y1="510.29" x2="475.6" y2="544.45"/><line class="cls-2" x1="470.7" y1="510.12" x2="481.31" y2="531.8"/><line class="cls-2" x1="480.68" y1="509.81" x2="485.99" y2="520.89"/><line class="cls-2" x1="485.26" y1="510.33" x2="412.21" y2="557.1"/><line class="cls-2" x1="486.47" y1="521.11" x2="422.6" y2="561.47"/><line class="cls-2" x1="481.37" y1="532.17" x2="435.59" y2="563.21"/><line class="cls-2" x1="475.6" y1="545.32" x2="448.06" y2="563.21"/><line class="cls-2" x1="470.88" y1="510.54" x2="407.01" y2="551.87"/><line class="cls-2" x1="448.1" y1="510.22" x2="399.22" y2="536.6"/><line class="cls-2" x1="458.79" y1="510.05" x2="402.85" y2="543.58"/><line class="cls-2" x1="435.59" y1="509.98" x2="396.62" y2="531.36"/><line class="cls-2" x1="421.91" y1="510.28" x2="394.02" y2="525.69"/><line class="cls-2" x1="409.03" y1="510.52" x2="391.42" y2="520.02"/><line class="cls-2" x1="396.61" y1="510.43" x2="388.31" y2="514.34"/></g><g><rect class="cls-26" x="454.9" y="497.83" width="5.13" height="2.13"/><path class="cls-23" d="m383.65,504.04v4.68h-.24c-1.21-1.07-2.01-2.59-2.1-4.3-.01-.12-.02-.25-.02-.38h2.36Z"/><path class="cls-26" d="m383.65,508.72v.2c-.08-.06-.16-.13-.24-.2h.24Z"/><rect class="cls-26" x="383.65" y="504.04" width="5.13" height="4.68"/><path class="cls-23" d="m388.78,508.72v1.56h-1.25c-1.46,0-2.81-.51-3.88-1.36v-.2h5.13Z"/><rect class="cls-23" x="388.78" y="504.04" width="5.13" height="4.68"/><rect class="cls-26" x="388.78" y="508.72" width="5.13" height="1.56"/><rect class="cls-26" x="393.91" y="504.04" width="5.13" height="4.68"/><rect class="cls-23" x="393.91" y="508.72" width="5.13" height="1.56"/><rect class="cls-23" x="399.04" y="504.04" width="5.13" height="4.68"/><rect class="cls-26" x="399.04" y="508.72" width="5.13" height="1.56"/><rect class="cls-26" x="404.17" y="504.04" width="5.13" height="4.68"/><rect class="cls-23" x="404.16" y="508.72" width="5.13" height="1.56"/><rect class="cls-23" x="409.3" y="504.04" width="5.13" height="4.68"/><rect class="cls-26" x="409.3" y="508.72" width="5.13" height="1.56"/><rect class="cls-26" x="414.43" y="504.04" width="5.13" height="4.68"/><rect class="cls-23" x="419.55" y="504.04" width="5.13" height="4.68"/><rect class="cls-26" x="419.55" y="508.72" width="5.13" height="1.56"/><rect class="cls-26" x="424.68" y="504.04" width="5.13" height="4.68"/><rect class="cls-23" x="424.68" y="508.72" width="5.13" height="1.56"/><rect class="cls-23" x="429.81" y="504.04" width="5.13" height="4.68"/><rect class="cls-26" x="429.81" y="508.72" width="5.13" height="1.56"/><rect class="cls-26" x="434.94" y="504.04" width="5.13" height="4.68"/><rect class="cls-23" x="434.95" y="508.72" width="5.13" height="1.56"/><rect class="cls-23" x="440.07" y="504.04" width="5.13" height="4.68"/><rect class="cls-26" x="440.07" y="508.72" width="5.13" height="1.56"/><path class="cls-23" d="m383.23,499.53v.22h-.22s.07-.07.1-.11c.04-.04.07-.07.11-.11Z"/><path class="cls-26" d="m383.23,499.75v4.68h-1.93c-.01-.12-.02-.25-.02-.38,0-1.66.66-3.17,1.73-4.3h.22Z"/><path class="cls-26" d="m388.36,497.81v1.94h-5.13v-.22c1.12-1.07,2.63-1.72,4.29-1.72h.84Z"/><rect class="cls-23" x="383.23" y="499.74" width="5.13" height="4.68"/><rect class="cls-23" x="388.36" y="497.81" width="5.13" height="1.94"/><rect class="cls-26" x="388.36" y="499.74" width="5.13" height="4.68"/><rect class="cls-26" x="393.49" y="497.81" width="5.13" height="1.94"/><rect class="cls-23" x="393.49" y="499.74" width="5.13" height="4.68"/><rect class="cls-23" x="398.63" y="497.81" width="5.13" height="1.94"/><rect class="cls-26" x="398.62" y="499.74" width="5.13" height="4.68"/><rect class="cls-26" x="403.75" y="497.81" width="5.13" height="1.94"/><rect class="cls-23" x="403.75" y="499.74" width="5.13" height="4.68"/><rect class="cls-23" x="408.88" y="497.81" width="5.13" height="1.94"/><rect class="cls-26" x="408.88" y="499.74" width="5.13" height="4.68"/><rect class="cls-26" x="414.01" y="497.81" width="5.13" height="1.94"/><rect class="cls-23" x="414.01" y="499.74" width="5.13" height="4.68"/><rect class="cls-23" x="419.14" y="497.81" width="5.13" height="1.94"/><rect class="cls-26" x="419.14" y="499.74" width="5.13" height="4.68"/><rect class="cls-26" x="424.27" y="497.81" width="5.13" height="1.94"/><rect class="cls-23" x="424.27" y="499.74" width="5.13" height="4.68"/><rect class="cls-23" x="429.4" y="497.81" width="5.13" height="1.94"/><rect class="cls-26" x="429.4" y="499.74" width="5.13" height="4.68"/><rect class="cls-26" x="434.53" y="497.81" width="5.13" height="1.94"/><rect class="cls-23" x="434.53" y="499.74" width="5.13" height="4.68"/><rect class="cls-23" x="439.66" y="497.81" width="5.13" height="1.94"/><rect class="cls-26" x="439.66" y="499.74" width="5.13" height="4.68"/><rect class="cls-26" x="455.28" y="504.23" width="5.13" height="4.68"/><rect class="cls-23" x="455.28" y="508.91" width="5.13" height="1.37"/><rect class="cls-23" x="460.41" y="504.23" width="5.13" height="4.68"/><rect class="cls-26" x="460.41" y="508.91" width="5.13" height="1.37"/><rect class="cls-26" x="465.54" y="504.23" width="5.13" height="4.68"/><rect class="cls-23" x="465.54" y="508.91" width="5.13" height="1.37"/><rect class="cls-23" x="470.67" y="504.23" width="5.13" height="4.68"/><rect class="cls-26" x="470.67" y="508.91" width="5.13" height="1.37"/><rect class="cls-26" x="475.8" y="504.23" width="5.13" height="4.68"/><rect class="cls-23" x="475.8" y="508.91" width="5.13" height="1.37"/><rect class="cls-23" x="480.93" y="504.23" width="5.13" height="4.68"/><rect class="cls-26" x="480.92" y="508.91" width="5.13" height="1.37"/><rect class="cls-26" x="486.06" y="504.23" width="5.13" height="4.68"/><path class="cls-23" d="m491.19,508.91v1.24c-.42.09-.85.14-1.3.14h-3.83v-1.37h5.13Z"/><rect class="cls-23" x="491.19" y="504.23" width="5.13" height="4.68"/><path class="cls-26" d="m493.78,508.91c-.75.6-1.63,1.03-2.59,1.24v-1.24h2.59Z"/><rect class="cls-26" x="445.45" y="504.23" width="5.13" height="4.68"/><rect class="cls-23" x="445.45" y="508.91" width="5.13" height="1.37"/><rect class="cls-23" x="450.58" y="504.23" width="5.13" height="4.68"/><rect class="cls-26" x="450.58" y="508.91" width="5.13" height="1.37"/><rect class="cls-23" x="454.86" y="499.93" width="5.13" height="4.68"/><rect class="cls-23" x="459.99" y="497.81" width="5.13" height="2.13"/><rect class="cls-26" x="459.99" y="499.93" width="5.13" height="4.68"/><rect class="cls-26" x="465.12" y="497.81" width="5.13" height="2.13"/><rect class="cls-23" x="465.12" y="499.93" width="5.13" height="4.68"/><rect class="cls-23" x="470.25" y="497.81" width="5.13" height="2.13"/><rect class="cls-26" x="470.25" y="499.93" width="5.13" height="4.68"/><rect class="cls-26" x="475.38" y="497.81" width="5.13" height="2.13"/><rect class="cls-23" x="475.38" y="499.93" width="5.13" height="4.68"/><rect class="cls-23" x="480.51" y="497.81" width="5.13" height="2.13"/><rect class="cls-26" x="480.51" y="499.93" width="5.13" height="4.68"/><path class="cls-26" d="m490.77,497.87v2.06h-5.13v-2.13h4.25c.3,0,.6.02.88.06Z"/><rect class="cls-23" x="485.64" y="499.93" width="5.13" height="4.68"/><path class="cls-23" d="m494.57,499.93h-3.8v-2.06c1.5.22,2.84.97,3.8,2.06Z"/><path class="cls-1" d="m495.9,499.93v2.46c-.25-.92-.72-1.76-1.33-2.46h1.33Z"/><path class="cls-26" d="m495.9,502.4v2.21h-5.13v-4.68h3.8c.61.7,1.08,1.54,1.33,2.46Z"/><rect class="cls-26" x="445.04" y="497.81" width="5.13" height="2.13"/><rect class="cls-23" x="445.03" y="499.93" width="5.13" height="4.68"/><rect class="cls-26" x="450.16" y="499.93" width="5.13" height="4.68"/><path class="cls-23" d="m496.31,504.23v.38h-.42v-2.21c.15.52.22,1.08.22,1.65,0,.06,0,.12,0,.19h.2Z"/><path class="cls-6" d="m496.1,504.61c-.14,1.49-.8,2.83-1.8,3.84-.16.16-.33.32-.51.46-.75.6-1.63,1.03-2.59,1.24-.42.09-.85.14-1.3.14h-102.36c-1.46,0-2.81-.51-3.88-1.36-.08-.06-.16-.13-.24-.2-1.21-1.07-2.01-2.59-2.1-4.3-.01-.12-.02-.25-.02-.38,0-1.66.66-3.17,1.73-4.3.04-.04.07-.07.1-.11.04-.04.07-.07.11-.11,1.12-1.07,2.63-1.72,4.29-1.72h102.36c.3,0,.6.02.88.06,1.5.22,2.84.97,3.8,2.06.61.7,1.08,1.54,1.33,2.46.15.52.22,1.08.22,1.65"/></g><path class="cls-28" d="m231.01,313.86h.33c-.22,0-.43.03-.65.06-1.24.2-34.89.2-36.1.2H15.62c-5.79,0-10.53-2.81-10.53-6.24v-77.42c0-3.43,4.74-6.24,10.53-6.24h178.98c5.79,0,10.53,2.81,10.53,6.24v54.5l30.27,23.77c2.69,2.12.1,5.15-4.39,5.13Z"/><g><path d="m22.75,248.87l3.96,9.93,4.02-9.93h2.37l-6.43,15.4-6.28-15.4h2.37Z"/><path d="m47.39,259.14h-6.51c.07.73.32,1.32.76,1.78.43.45.98.67,1.63.67.95,0,1.74-.6,2.37-1.81l1.8,1c-.2.38-.41.71-.64.99-.23.28-.48.52-.74.71-.88.65-1.85.97-2.89.97-1.21,0-2.3-.48-3.27-1.45-.76.96-1.87,1.45-3.33,1.45-1.1,0-2-.28-2.68-.83-.69-.56-1.03-1.28-1.03-2.18s.33-1.66.98-2.23c.66-.57,1.52-.85,2.59-.85.76,0,1.55.2,2.36.61,0-.82-.17-1.39-.51-1.71-.35-.33-.93-.49-1.74-.49s-1.59.11-2.41.34v-1.94c1.08-.19,1.95-.28,2.62-.28,1.47,0,2.53.42,3.17,1.27.81-.85,1.86-1.27,3.15-1.27s2.37.42,3.16,1.27c.79.85,1.19,1.97,1.19,3.37l-.02.59Zm-12.52,1.27c0,.35.17.65.52.88.37.24.8.35,1.32.35.55,0,1.01-.12,1.38-.36.37-.25.56-.55.56-.92,0-.32-.19-.6-.57-.83-.38-.23-.84-.35-1.38-.35-.51,0-.94.12-1.29.36-.35.24-.53.53-.53.87Zm10.33-2.96c-.25-1.11-.93-1.66-2.03-1.66s-1.84.55-2.15,1.66h4.18Z"/><path d="m51.72,247.53v15.67h-2.09v-15.67h2.09Z"/><path d="m63.11,262.98c0,.43-.01.8-.04,1.13-.03.32-.07.61-.12.86-.15.68-.44,1.26-.87,1.75-.82.94-1.94,1.41-3.37,1.41-1.21,0-2.2-.32-2.98-.97-.8-.67-1.27-1.59-1.39-2.77h2.1c.08.45.21.79.4,1.03.43.56,1.06.84,1.89.84,1.53,0,2.29-.94,2.29-2.81v-1.26c-.83.85-1.78,1.27-2.87,1.27-1.23,0-2.24-.45-3.03-1.34-.79-.9-1.19-2.03-1.19-3.39s.37-2.44,1.1-3.36c.79-.98,1.84-1.47,3.14-1.47,1.14,0,2.08.42,2.84,1.27v-1.02h2.09v8.82Zm-2-4.29c0-.88-.23-1.58-.71-2.11-.48-.54-1.08-.81-1.83-.81-.79,0-1.42.29-1.87.88-.41.53-.62,1.21-.62,2.04s.21,1.5.62,2.02c.45.58,1.08.86,1.87.86s1.43-.29,1.89-.87c.43-.53.64-1.2.64-2.02Z"/><path d="m71.61,247.53h2.09v7.38c.74-.67,1.56-1,2.46-1,1.02,0,1.84.33,2.45.99.52.58.78,1.49.78,2.76v5.54h-2.09v-5.34c0-.72-.13-1.25-.38-1.57-.26-.33-.67-.49-1.24-.49-.73,0-1.24.23-1.54.68-.29.46-.44,1.24-.44,2.36v4.37h-2.09v-15.67Z"/><path d="m83.15,254.16l2.34,5.07,2.33-5.07h2.35l-4.69,9.66-4.66-9.66h2.34Z"/><path d="m91.26,250.4c0-.36.13-.68.4-.95.27-.27.58-.4.96-.4s.7.13.96.4c.27.26.4.58.4.96s-.13.7-.4.96c-.26.27-.58.4-.96.4s-.7-.13-.96-.4c-.27-.27-.4-.59-.4-.97Zm2.4,3.76v9.04h-2.09v-9.04h2.09Z"/><path d="m98.39,247.53v15.67h-2.09v-15.67h2.09Z"/><path d="m103.12,247.53v9.56l2.94-2.92h2.8l-3.92,3.79,4.21,5.24h-2.71l-2.99-3.81-.33.33v3.48h-2.09v-15.67h2.09Z"/><path d="m118.42,259.17h-6.48c.06.74.3,1.33.72,1.77.43.43.97.65,1.64.65.52,0,.95-.12,1.29-.37.33-.25.71-.71,1.14-1.37l1.76.98c-.27.46-.56.86-.86,1.19-.3.33-.63.6-.97.82-.35.21-.72.37-1.12.47-.4.1-.84.15-1.31.15-1.35,0-2.43-.43-3.25-1.3-.82-.87-1.22-2.03-1.22-3.47s.4-2.58,1.19-3.47c.8-.87,1.86-1.31,3.17-1.31s2.38.42,3.15,1.27c.77.84,1.15,2.01,1.15,3.5v.49Zm-2.15-1.71c-.29-1.11-.99-1.67-2.11-1.67-.25,0-.49.04-.71.12-.22.08-.42.19-.61.33-.18.15-.34.32-.47.52s-.23.44-.3.7h4.19Z"/><path d="m120.7,254.16h2.1v.83c.73-.72,1.55-1.09,2.47-1.09,1.05,0,1.87.33,2.46.99.51.56.76,1.48.76,2.76v5.54h-2.1v-5.05c0-.89-.12-1.51-.37-1.85-.24-.35-.68-.52-1.32-.52-.69,0-1.18.23-1.48.69-.28.45-.43,1.24-.43,2.37v4.36h-2.1v-9.04Z"/><path d="m136.98,254.16h2.09v.83c.4-.42.75-.71,1.03-.85.3-.15.68-.23,1.14-.23,1.02,0,1.83.45,2.42,1.34.66-.89,1.54-1.34,2.66-1.34,2.03,0,3.05,1.23,3.05,3.7v5.58h-2.1v-5.02c0-.87-.11-1.48-.32-1.84-.22-.36-.57-.55-1.07-.55-.57,0-.99.22-1.26.65-.26.43-.39,1.13-.39,2.09v4.67h-2.1v-4.99c0-1.61-.46-2.41-1.39-2.41-.59,0-1.02.22-1.29.66-.27.44-.4,1.13-.4,2.08v4.67h-2.09v-9.04Z"/><path d="m158.67,254.16h2.1v9.04h-2.1v-.95c-.86.8-1.79,1.21-2.77,1.21-1.25,0-2.28-.45-3.1-1.35-.81-.92-1.21-2.07-1.21-3.45s.4-2.48,1.21-3.39c.81-.9,1.82-1.35,3.04-1.35,1.05,0,2,.43,2.83,1.3v-1.05Zm-4.95,4.49c0,.87.23,1.57.7,2.12.48.55,1.08.83,1.8.83.77,0,1.4-.27,1.88-.8.48-.55.71-1.25.71-2.1s-.24-1.55-.71-2.1c-.48-.54-1.1-.81-1.86-.81-.72,0-1.32.27-1.8.82-.48.55-.71,1.23-.71,2.04Zm.71-7.93c0-.54.2-1.01.59-1.4.4-.4.87-.59,1.42-.59s1.04.2,1.43.59c.4.4.59.87.59,1.43s-.2,1.03-.59,1.43c-.39.4-.86.59-1.42.59s-1.04-.2-1.44-.59c-.39-.4-.58-.88-.58-1.46Zm1.1.02c0,.27.09.49.26.66s.39.26.65.26.48-.09.65-.26.26-.39.26-.65-.09-.48-.26-.65-.39-.26-.65-.26c-.13,0-.25.02-.36.07-.11.05-.21.12-.29.2-.08.08-.15.18-.2.29-.05.11-.07.23-.07.34Z"/><path d="m163.41,254.16h2.1v.83c.73-.72,1.55-1.09,2.47-1.09,1.05,0,1.87.33,2.46.99.51.56.76,1.48.76,2.76v5.54h-2.1v-5.05c0-.89-.12-1.51-.37-1.85-.24-.35-.68-.52-1.32-.52-.69,0-1.19.23-1.48.69-.28.45-.43,1.24-.43,2.37v4.36h-2.1v-9.04Z"/><path d="m182.05,259.17h-6.48c.06.74.3,1.33.72,1.77.43.43.97.65,1.64.65.52,0,.95-.12,1.29-.37.33-.25.71-.71,1.14-1.37l1.76.98c-.27.46-.56.86-.86,1.19-.3.33-.63.6-.97.82-.35.21-.72.37-1.12.47-.4.1-.84.15-1.31.15-1.35,0-2.43-.43-3.25-1.3-.82-.87-1.22-2.03-1.22-3.47s.4-2.58,1.19-3.47c.8-.87,1.86-1.31,3.17-1.31s2.38.42,3.15,1.27c.77.84,1.15,2.01,1.15,3.5v.49Zm-2.15-1.71c-.29-1.11-.99-1.67-2.11-1.67-.25,0-.49.04-.71.12-.22.08-.43.19-.61.33-.18.15-.34.32-.47.52-.13.2-.23.44-.3.7h4.19Z"/><path d="m191,247.53h2.1v15.67h-2.1v-.95c-.82.8-1.75,1.21-2.79,1.21-1.24,0-2.26-.45-3.08-1.35-.81-.92-1.21-2.07-1.21-3.45s.4-2.47,1.21-3.38c.8-.91,1.82-1.36,3.03-1.36,1.06,0,2,.43,2.84,1.3v-7.68Zm-4.95,11.12c0,.87.23,1.57.7,2.12.48.55,1.08.83,1.8.83.77,0,1.4-.27,1.88-.8.48-.55.71-1.25.71-2.1s-.24-1.55-.71-2.1c-.48-.54-1.1-.81-1.86-.81-.72,0-1.32.27-1.8.82-.48.55-.71,1.23-.71,2.04Z"/><path d="m28.29,270.33h2.1v15.67h-2.1v-.95c-.82.8-1.75,1.21-2.79,1.21-1.24,0-2.26-.45-3.08-1.35-.81-.92-1.22-2.07-1.22-3.45s.41-2.47,1.22-3.38c.8-.91,1.81-1.36,3.03-1.36,1.06,0,2,.43,2.84,1.3v-7.68Zm-4.95,11.12c0,.87.23,1.57.7,2.12.48.55,1.08.83,1.8.83.77,0,1.4-.27,1.87-.8.48-.55.71-1.25.71-2.1s-.24-1.55-.71-2.1c-.48-.54-1.09-.81-1.86-.81-.72,0-1.32.27-1.8.82-.48.55-.71,1.23-.71,2.04Z"/><path d="m35.11,276.96v5.19c0,1.5.59,2.25,1.77,2.25s1.77-.75,1.77-2.25v-5.19h2.09v5.23c0,.72-.09,1.35-.27,1.87-.17.47-.47.89-.9,1.27-.71.61-1.6.92-2.69.92s-1.98-.31-2.68-.92c-.43-.38-.74-.8-.92-1.27-.17-.42-.26-1.04-.26-1.87v-5.23h2.09Z"/><path d="m50.36,276.96l2.34,5.07,2.33-5.07h2.35l-4.7,9.66-4.66-9.66h2.34Z"/><path d="m58.47,273.2c0-.36.13-.68.4-.95.27-.27.58-.4.96-.4s.7.13.96.4c.27.26.4.58.4.96s-.13.7-.4.96c-.26.27-.58.4-.96.4s-.7-.13-.96-.4c-.27-.27-.4-.59-.4-.97Zm2.4,3.76v9.04h-2.09v-9.04h2.09Z"/><path d="m65.6,270.33v15.67h-2.09v-15.67h2.09Z"/><path d="m79.36,278.5l-1.72.92c-.27-.56-.61-.83-1.01-.83-.19,0-.36.06-.49.19-.14.13-.2.29-.2.49,0,.35.4.69,1.21,1.03,1.11.48,1.85.92,2.24,1.32.38.4.58.94.58,1.62,0,.87-.32,1.6-.96,2.19-.62.56-1.38.83-2.26.83-1.52,0-2.59-.74-3.22-2.22l1.78-.83c.25.43.44.71.57.83.25.24.56.35.91.35.71,0,1.06-.32,1.06-.96,0-.37-.27-.72-.82-1.04-.21-.1-.42-.21-.63-.31-.21-.1-.42-.2-.64-.31-.61-.3-1.03-.59-1.28-.89-.32-.38-.47-.86-.47-1.46,0-.79.27-1.43.81-1.95.55-.51,1.22-.77,2-.77,1.16,0,2.02.6,2.58,1.79Z"/><path d="m88.48,276.96h2.1v9.04h-2.1v-.95c-.86.8-1.78,1.21-2.77,1.21-1.25,0-2.28-.45-3.1-1.35-.81-.92-1.22-2.07-1.22-3.45s.41-2.48,1.22-3.39c.81-.9,1.82-1.35,3.04-1.35,1.05,0,1.99.43,2.83,1.3v-1.05Zm-4.95,4.49c0,.87.23,1.57.7,2.12.48.55,1.08.83,1.8.83.77,0,1.4-.27,1.87-.8.48-.55.71-1.25.71-2.1s-.24-1.55-.71-2.1c-.48-.54-1.09-.81-1.86-.81-.72,0-1.32.27-1.8.82-.48.55-.71,1.23-.71,2.04Z"/><path d="m93.21,276.96h2.1v.83c.73-.72,1.55-1.09,2.47-1.09,1.05,0,1.87.33,2.46.99.51.56.76,1.48.76,2.76v5.54h-2.1v-5.05c0-.89-.12-1.51-.37-1.85-.24-.35-.68-.52-1.32-.52-.69,0-1.18.23-1.47.69-.29.45-.43,1.24-.43,2.37v4.36h-2.1v-9.04Z"/><path d="m105.72,270.33v9.56l2.94-2.92h2.8l-3.92,3.79,4.21,5.24h-2.71l-2.99-3.81-.33.33v3.48h-2.09v-15.67h2.09Z"/><path d="m121.02,281.97h-6.48c.06.74.3,1.33.72,1.77.43.43.97.65,1.64.65.52,0,.95-.12,1.29-.37.33-.25.71-.71,1.14-1.37l1.76.98c-.27.46-.56.86-.86,1.19-.3.33-.63.6-.97.82-.35.21-.72.37-1.12.47-.4.1-.84.15-1.31.15-1.35,0-2.43-.43-3.25-1.3-.82-.87-1.22-2.03-1.22-3.47s.4-2.58,1.19-3.47c.8-.87,1.86-1.31,3.17-1.31s2.38.42,3.15,1.27c.77.84,1.15,2.01,1.15,3.5v.49Zm-2.15-1.71c-.29-1.11-.99-1.67-2.11-1.67-.25,0-.49.04-.71.12-.22.08-.42.19-.61.33-.18.15-.34.32-.47.52s-.23.44-.3.7h4.19Z"/><path d="m128.85,273.2c0-.36.13-.68.4-.95.27-.27.58-.4.96-.4s.7.13.96.4c.27.26.4.58.4.96s-.13.7-.4.96c-.26.27-.58.4-.96.4s-.7-.13-.96-.4c-.27-.27-.4-.59-.4-.97Zm2.4,3.76v9.04h-2.09v-9.04h2.09Z"/></g></svg>